<?xml version="1.0" encoding="utf-8"?>
<!-- Generator: Adobe Illustrator 16.0.0, SVG Export Plug-In . SVG Version: 6.00 Build 0)  -->
<!DOCTYPE svg PUBLIC "-//W3C//DTD SVG 1.1//EN" "http://www.w3.org/Graphics/SVG/1.1/DTD/svg11.dtd">
<svg xmlns="http://www.w3.org/2000/svg" xmlns:xlink="http://www.w3.org/1999/xlink" version="1.1" id="Layer_1" x="0px" y="0px" width="232px" height="232px" viewBox="0 0 232 232" xml:space="preserve">
<path fill-rule="evenodd" clip-rule="evenodd" fill="#081C24" d="M176.21,169.587c0,0,0,0.117,0-23.332h-9.628  c0,23.449,0,23.332,0,23.332H176.21L176.21,169.587z"/>
<path fill-rule="evenodd" clip-rule="evenodd" fill="#081C24" d="M125.233,159.899v-13.291h-9.333v10.16  c0,2.953-0.118,3.779-0.295,4.549c-0.649,2.127-2.895,3.07-5.198,3.07c-3.189,0-4.666-1.24-5.257-3.189  c-0.177-0.65-0.236-1.357-0.295-2.066c-0.059-0.768,0-1.596,0-2.482v-10.041h-9.451v13.35c0,3.014,1.004,5.258,2.658,6.793  c2.835,2.777,7.62,3.604,12.05,3.604c5.375,0,9.51-0.768,12.463-3.662C124.111,165.216,125.233,163.267,125.233,159.899  L125.233,159.899z"/>
<path fill-rule="evenodd" clip-rule="evenodd" fill="#081C24" d="M79.396,158.245c-0.295-0.059-0.827-0.117-1.417-0.117H67.347  c-0.532,0-1.123,0.059-1.418,0.117c0.177-0.178,0.532-0.531,0.886-1.004l4.784-7.916c0.65-1.063,0.945-1.771,1.063-2.066  c0.118,0.295,0.413,1.004,1.063,2.125l4.903,7.975C78.865,157.714,79.219,158.067,79.396,158.245L79.396,158.245z M97.235,169.587  L75.97,137.688H64.039l3.13,3.723c0.06,0.059,0.178,0.117,0.295,0.176c-0.118,0.061-0.236,0.119-0.295,0.178l-18.547,27.822h10.75  l2.895-4.785c0.118-0.236,0.177-0.473,0.177-0.59c0.118,0,0.414,0.117,0.709,0.117H82.35c0.295,0,0.531-0.059,0.649-0.117  c0,0.117,0,0.295,0.118,0.471l3.013,4.904H97.235L97.235,169.587z"/>
<path fill-rule="evenodd" clip-rule="evenodd" fill="#081C24" d="M163.983,157.595c0-2.598-1.063-5.611-4.371-9.805l-7.975-10.102  h-11.104l6.319,7.088c1.063,1.182,2.422,2.246,2.422,2.246c-1.536-0.887-3.484-1.24-5.021-1.24c-3.662,0-7.384,0.768-10.691,2.6  c-3.544,1.947-5.907,5.197-5.907,9.51c0,3.307,1.477,5.848,3.367,7.797c4.253,4.252,11.991,4.666,14.826,4.666  c4.194,0,10.751-0.945,14.473-4.313C162.506,164.034,163.983,161.257,163.983,157.595L163.983,157.595z M154.769,157.892  c0,2.422-1.596,4.252-3.604,5.256c-1.653,0.887-3.604,1.123-5.316,1.123s-3.722-0.355-5.375-1.182  c-2.009-1.004-3.544-2.953-3.544-5.08c0-2.541,1.949-4.549,4.253-5.553c1.417-0.65,3.131-0.885,4.489-0.885  c1.299,0,3.189,0.176,4.666,0.768C152.996,153.46,154.769,155.587,154.769,157.892L154.769,157.892z"/>
<path fill-rule="evenodd" clip-rule="evenodd" fill="#081C24" d="M173.15,61.645c-7.198,0-13.81,2.473-19.05,6.619  c-5.238-4.146-11.852-6.619-19.051-6.619c-7.196,0-13.813,2.475-19.05,6.619c-5.237-4.146-11.851-6.619-19.05-6.619  c-7.196,0-13.813,2.475-19.05,6.619c-5.24-4.146-11.852-6.619-19.05-6.619c-16.971,0-30.724,13.753-30.724,30.724  c0,16.97,13.752,30.724,30.724,30.724c7.198,0,13.813-2.475,19.05-6.619c5.237,4.145,11.854,6.619,19.05,6.619  c7.199,0,13.813-2.473,19.05-6.619c5.237,4.145,11.854,6.619,19.05,6.619c7.199,0,13.813-2.473,19.051-6.619  c5.237,4.145,11.852,6.619,19.05,6.619c16.971,0,30.724-13.754,30.724-30.724C203.874,75.398,190.121,61.645,173.15,61.645  L173.15,61.645z M72.873,111.454c-3.915,2.856-8.806,4.6-14.023,4.6c-13.092,0-23.686-10.594-23.686-23.685  c0-13.092,10.594-23.686,23.686-23.686c5.217,0,10.104,1.744,14.023,4.6c-4.167,5.244-6.646,11.867-6.646,19.085  C66.227,99.559,68.735,106.219,72.873,111.454L72.873,111.454z M77.899,106.441c-2.916-3.938-4.635-8.797-4.635-14.073  c0-5.282,1.714-10.132,4.635-14.073c2.921,3.94,4.636,8.791,4.636,14.073C82.535,97.644,80.815,102.503,77.899,106.441  L77.899,106.441z M110.974,111.454c-3.931,2.894-8.786,4.592-14.04,4.592c-5.253,0-10.078-1.7-14.007-4.592  c4.138-5.235,6.646-11.895,6.646-19.085c0-7.219-2.479-13.841-6.646-19.085c3.929-2.892,8.754-4.593,14.007-4.593  c5.254,0,10.109,1.699,14.04,4.593c-4.167,5.244-6.646,11.867-6.646,19.085C104.327,99.559,106.835,106.219,110.974,111.454  L110.974,111.454z M116,106.441c-2.916-3.938-4.635-8.797-4.635-14.073c0-5.282,1.714-10.132,4.635-14.073  c2.921,3.94,4.636,8.791,4.636,14.073C120.636,97.644,118.916,102.503,116,106.441L116,106.441z M149.073,111.454  c-3.93,2.894-8.785,4.592-14.039,4.592s-10.078-1.7-14.008-4.592c4.138-5.235,6.646-11.895,6.646-19.085  c0-7.219-2.479-13.841-6.646-19.085c3.93-2.892,8.754-4.593,14.008-4.593s10.109,1.699,14.039,4.593  c-4.167,5.244-6.646,11.867-6.646,19.085C142.427,99.559,144.936,106.219,149.073,111.454L149.073,111.454z M154.101,106.441  c-2.916-3.938-4.635-8.797-4.635-14.073c0-5.282,1.714-10.132,4.635-14.073c2.921,3.94,4.635,8.791,4.635,14.073  C158.735,97.644,157.017,102.503,154.101,106.441L154.101,106.441z M173.15,116.054c-5.218,0-10.108-1.743-14.023-4.6  c4.138-5.235,6.646-11.895,6.646-19.085c0-7.219-2.479-13.841-6.646-19.085c3.919-2.856,8.806-4.6,14.023-4.6  c13.092,0,23.686,10.594,23.686,23.686C196.836,105.46,186.242,116.054,173.15,116.054L173.15,116.054z"/>
</svg>
