<?xml version="1.0" encoding="utf-8"?>
<!-- Generator: Adobe Illustrator 16.0.0, SVG Export Plug-In . SVG Version: 6.00 Build 0)  -->
<!DOCTYPE svg PUBLIC "-//W3C//DTD SVG 1.1//EN" "http://www.w3.org/Graphics/SVG/1.1/DTD/svg11.dtd">
<svg version="1.1" id="Layer_1" xmlns="http://www.w3.org/2000/svg" xmlns:xlink="http://www.w3.org/1999/xlink" x="0px" y="0px"
	 width="232px" height="232px" viewBox="0 0 232 232" enable-background="new 0 0 232 232" xml:space="preserve">
<path fill="#031B24" d="M145.037,163.285h7.203v1.668h-7.203V163.285L145.037,163.285z M25.265,153.176l-0.645,16.729v0.289
	c0,1.418,0.419,1.709,2.675,1.869v0.774c-1.644-0.129-2.289-0.162-3.191-0.162c-0.903,0-1.547,0.033-3.223,0.162v-0.774
	c2.256-0.16,2.578-0.418,2.643-2.158l0.677-15.826v-0.193c0-1.483-0.451-1.806-2.675-1.935v-0.807c1.257,0.098,1.74,0.13,2.643,0.13
	c1.193,0,1.837-0.032,3.062-0.161l5.996,16.309l6.092-16.309c1.451,0.129,2.127,0.161,3.094,0.161c0.806,0,1.321-0.032,2.546-0.13
	v0.807c-2.192,0.129-2.675,0.451-2.675,1.901v0.227l0.355,15.826c0.032,1.74,0.322,1.998,2.643,2.158v0.774
	c-2.031-0.194-2.805-0.258-4.029-0.258s-1.998,0.063-4.029,0.258v-0.774c2.191-0.128,2.675-0.483,2.675-1.998v-0.16l-0.29-16.697
	l-5.318,14.375l-0.386,1.064l-0.451,1.192l-0.419,1.225l-0.354,1.064h-0.484l-0.354-1.032l-0.451-1.257l-0.451-1.257l-0.387-1.128
	L25.265,153.176L25.265,153.176z M49.469,163.587c0.323-3.707,1.547-5.609,3.61-5.609c2.095,0,3.158,1.807,3.352,5.609H49.469
	L49.469,163.587z M53.659,172.032c-2.934,0-4.223-2.257-4.255-7.285h9.605c-0.064-4.963-2.095-7.606-5.898-7.606
	c-3.869,0-6.286,3.126-6.286,8.09s2.417,7.866,6.576,7.866c3.158,0,5.222-1.967,5.64-5.287h-1.289
	C57.365,170.549,55.947,172.032,53.659,172.032L53.659,172.032z M60.929,158.333v-0.58c1.837-0.161,2.933-0.354,4.254-0.741
	c0.162,1.192,0.225,1.709,0.29,2.675v0.354c0.709-1.837,2.095-2.9,3.771-2.9c1.612,0,2.804,1.063,2.804,2.61
	c0,0.935-0.548,1.547-1.353,1.547c-0.742,0-1.322-0.45-1.322-1.096c0-0.063,0.032-0.192,0.064-0.322l0.064-0.322v-0.29
	c0-0.451-0.387-0.773-0.967-0.773c-1.676,0-2.739,2.031-2.739,5.222v6.736c0,1.387,0.322,1.645,2.288,1.741v0.644
	c-1.772-0.161-2.449-0.193-3.578-0.193c-1.161,0-1.837,0.032-3.61,0.193v-0.644c1.966-0.097,2.321-0.354,2.321-1.741v-10.024v-0.516
	c-0.032-1.386-0.193-1.547-1.869-1.579H60.929L60.929,158.333z M84.378,156.851v5.317h-0.709c-0.58-2.804-1.772-4.158-3.738-4.158
	c-2.417,0-3.836,2.611-3.836,7.221c0,4.514,1.257,6.802,3.739,6.802c1.999,0,3.191-1.418,3.578-4.256h1.322
	c-0.419,3.449-2.257,5.32-5.157,5.32c-3.739,0-6.286-3.159-6.286-7.866c0-4.803,2.579-8.09,6.382-8.09
	c1.385,0,2.255,0.354,3.288,1.354l0.87-1.644H84.378L84.378,156.851z M89.671,163.587c0.323-3.707,1.547-5.609,3.61-5.609
	c2.095,0,3.159,1.807,3.352,5.609H89.671L89.671,163.587z M93.862,172.032c-2.933,0-4.223-2.257-4.254-7.285h9.605
	c-0.065-4.963-2.095-7.606-5.899-7.606c-3.868,0-6.285,3.126-6.285,8.09s2.417,7.866,6.576,7.866c3.159,0,5.221-1.967,5.64-5.287
	h-1.29C97.569,170.549,96.151,172.032,93.862,172.032L93.862,172.032z M108.139,172.225c-2.321,0-3.546-2.417-3.546-7.026
	c0-4.673,1.128-6.962,3.449-6.962c2.385,0,3.61,2.45,3.61,7.188C111.652,169.905,110.459,172.225,108.139,172.225L108.139,172.225z
	 M114.199,169.485v-18.609c-1.612,0.431-3.063,0.688-4.868,0.882v0.548c2.031,0,2.289,0.226,2.289,1.901v5.642
	c-1.193-1.935-2.127-2.515-3.868-2.515c-3.449,0-5.866,3.255-5.866,7.896s2.45,7.897,5.962,7.897c1.838,0,3.095-0.838,3.998-2.644
	c0.129,1.226,0.129,1.354,0.451,2.579c1.321-0.42,1.87-0.549,3.771-0.773l0.483-0.065v-0.547
	C114.392,171.612,114.199,171.451,114.199,169.485L114.199,169.485z M120.414,163.587c0.323-3.707,1.548-5.609,3.611-5.609
	c2.095,0,3.158,1.807,3.352,5.609H120.414L120.414,163.587z M124.605,172.032c-2.933,0-4.224-2.257-4.255-7.285h9.605
	c-0.064-4.963-2.096-7.606-5.899-7.606c-3.867,0-6.285,3.126-6.285,8.09s2.418,7.866,6.575,7.866c3.159,0,5.223-1.967,5.642-5.287
	h-1.29C128.313,170.549,126.895,172.032,124.605,172.032L124.605,172.032z M132.692,173.128v-5.383l0.708-0.032
	c0.581,2.933,1.935,4.351,4.191,4.351c1.9,0,3.32-1.256,3.32-2.901c0-1.096-0.614-1.836-2.192-2.545l-1.226-0.548l-1.482-0.677
	c-2.354-1.097-3.095-1.999-3.095-3.868c0-2.547,1.998-4.287,4.835-4.287c1.258,0,2.191,0.29,3.287,1.031l0.549-1.322h0.58v4.996
	h-0.741c-0.291-2.578-1.354-3.803-3.385-3.803c-1.709,0-3.029,1.16-3.029,2.676c0,1.289,0.482,1.708,3.416,2.998l1.354,0.58
	c2.45,1.063,3.32,2.094,3.32,3.996c0,2.707-2.158,4.641-5.188,4.641c-1.483,0-2.645-0.387-3.869-1.353l-0.773,1.45H132.692
	L132.692,173.128z M161.026,162.008c1.708,0,2.674,0.29,3.415,1.031c0.742,0.742,1.161,2.127,1.161,3.674
	c0,3.225-1.61,5.028-4.481,5.028h-1.158c-1.709,0-2-0.257-2-1.676v-8.058H161.026L161.026,162.008z M157.963,152.24h2.74
	c2.707,0,3.9,1.322,3.9,4.32c0,1.482-0.354,2.547-1.063,3.385c-0.709,0.805-1.58,1.063-3.385,1.063h-2.192V152.24L157.963,152.24z
	 M167.473,156.496c0-1.677-0.709-3.159-1.935-4.094c-1.097-0.806-2.353-1.16-4.447-1.16h-8.478v0.805
	c2.32,0.13,2.643,0.388,2.643,2.129v15.632c0,1.74-0.259,1.966-2.643,2.159v0.774h8.154c2.386,0,3.674-0.291,5.027-1.129
	c1.612-1.031,2.676-2.997,2.676-5.027c0-1.741-0.741-3.32-1.997-4.287c-0.679-0.516-1.386-0.807-2.547-1.032
	C166.247,160.396,167.473,158.753,167.473,156.496L167.473,156.496z M173.732,163.587c0.322-3.707,1.548-5.609,3.609-5.609
	c2.095,0,3.158,1.807,3.354,5.609H173.732L173.732,163.587z M177.924,172.032c-2.934,0-4.224-2.257-4.257-7.285h9.606
	c-0.064-4.963-2.097-7.606-5.898-7.606c-3.868,0-6.286,3.126-6.286,8.09s2.418,7.866,6.575,7.866c3.16,0,5.223-1.967,5.643-5.287
	h-1.291C181.629,170.549,180.211,172.032,177.924,172.032L177.924,172.032z M184.979,158.462v-0.548
	c1.87-0.258,2.966-0.516,4.254-0.967c0.162,0.741,0.258,1.579,0.322,2.804c1.161-1.741,2.481-2.514,4.352-2.514
	c1.935,0,3.61,0.999,4.254,2.578c0.324,0.773,0.484,1.676,0.484,2.901v7.735c0,1.387,0.322,1.644,2.289,1.741v0.645
	c-1.707-0.162-2.354-0.194-3.513-0.194c-1.193,0-1.837,0.032-3.515,0.194v-0.645c1.742-0.064,2.159-0.388,2.159-1.677v-7.896
	c0-2.805-0.836-3.933-2.898-3.933c-2.192,0-3.353,1.386-3.353,4.029v7.8c0,1.289,0.417,1.612,2.095,1.677v0.645
	c-1.678-0.162-2.322-0.194-3.48-0.194c-1.129,0-1.806,0.032-3.482,0.194v-0.645c1.967-0.098,2.289-0.354,2.289-1.741v-9.959v-0.483
	c-0.032-1.322-0.225-1.516-1.838-1.516C185.302,158.494,185.142,158.462,184.979,158.462L184.979,158.462z M202.187,172.741
	l8.735-14.376h-3.964c-2.095,0-2.609,0.451-3.771,3.353h-0.646l0.742-4.19h11.089v0.001l-8.768,14.375h3.772
	c2.191,0,3.093-0.87,4.06-3.804h0.679l-0.839,4.642H202.187z"/>
<g>
	<path fill="#031B24" d="M117.626,97.938"/>
	<path fill="#031B24" d="M117.626,97.938"/>
	<path fill="#031B24" d="M117.626,97.938"/>
	<polygon fill="#031B24" points="118.533,97.693 120.485,96.578 144.885,113.309 	"/>
	<polygon fill="#031B24" points="117.133,96.804 115.32,95.758 117.342,63.83 	"/>
	<polygon fill="#031B24" points="114.948,96.693 106.861,103.386 116.552,97.669 	"/>
	<path fill="#031B24" d="M117.626,54.361c-24.065,0-43.574,19.511-43.574,43.576s19.509,43.576,43.574,43.576
		c24.066,0,43.576-19.511,43.576-43.576S141.692,54.361,117.626,54.361z M117.631,139.188c-9.959,0-19.275-3.318-26.217-9.414
		c-6.756-5.932-12.002-15.359-13.297-25.378c3.07,19.056,19.593,33.609,39.514,33.609c22.105,0,40.026-17.921,40.026-40.026
		c0-9.171-3.427-18.15-8.615-24.9c5.257,4.057,9.799,15.607,9.799,24.9C158.841,120.737,140.39,139.188,117.631,139.188z
		 M113.846,94.833l3.523-36.13c0.086,0,0.172-0.003,0.257-0.003c0.03,0,0.061,0.001,0.09,0.001l0.346,38.02l6.065-3.626
		l-6.102-34.39c21.486,0.214,38.839,17.695,38.839,39.232c0,6.919-1.793,13.417-4.937,19.062l-27.232-22.786l-2.579,1.464
		l29.629,21.649c-0.074,0.13-0.15,0.26-0.226,0.39l-33.318-19.169v6.763l33.091,12.791c-6.858,11.427-19.368,19.074-33.666,19.074
		c-14.282,0-26.78-7.632-33.644-19.04l33.069-12.895v-6.763l-33.357,19.17c-0.073-0.126-0.146-0.254-0.219-0.381l29.521-21.59
		l-2.579-1.464L83.259,116.88c-3.102-5.616-4.87-12.073-4.87-18.942c0-21.367,17.082-38.745,38.334-39.227l-5.316,34.658
		L113.846,94.833z M117.626,56.705c-22.759,0-41.21,18.45-41.21,41.209c0,9.242,3.357,17.985,8.471,25.538
		c1.734,3.244,3.611,5.254,6.117,7.906c-9.814-7.841-16.164-19.907-16.164-33.444c0-23.631,19.156-42.786,42.786-42.786
		s43.151,19.99,42.449,42.784C159.483,75.67,140.012,56.705,117.626,56.705z"/>
</g>
</svg>
