<?xml version="1.0" encoding="utf-8"?>
<!-- Generator: Adobe Illustrator 16.0.0, SVG Export Plug-In . SVG Version: 6.00 Build 0)  -->
<!DOCTYPE svg PUBLIC "-//W3C//DTD SVG 1.1//EN" "http://www.w3.org/Graphics/SVG/1.1/DTD/svg11.dtd">
<svg version="1.1" id="Layer_1" xmlns="http://www.w3.org/2000/svg" xmlns:xlink="http://www.w3.org/1999/xlink" x="0px" y="0px"
	 width="232px" height="232px" viewBox="0 0 232 232" enable-background="new 0 0 232 232" xml:space="preserve">
<g>
	<path fill-rule="evenodd" clip-rule="evenodd" fill="#031B24" d="M128.488,80.111c3.754,0.584,7.543,0.999,11.253,1.799
		c4.591,0.992,8.955,2.688,11.995,6.523c7.892,9.95,3.409,23.956-8.995,28.247c-1.744,0.603-3.545,1.029-5.752,1.66
		c7.499,9.11,14.812,17.997,22.354,27.162c-0.985,0.064-1.642,0.146-2.299,0.146c-5.546,0.01-11.091-0.048-16.633,0.04
		c-1.555,0.024-2.557-0.483-3.504-1.692c-5.989-7.628-12.033-15.208-18.097-22.774c-0.43-0.537-1.157-1.182-1.753-1.188
		c-7.198-0.082-14.401-0.055-21.875-0.055c-0.041,0.911-0.108,1.707-0.108,2.5c-0.009,6.999-0.044,14.001,0.025,21.002
		c0.015,1.558-0.335,2.234-2.052,2.2c-4.78-0.098-9.564-0.03-14.346-0.04c-0.814-0.004-1.628-0.088-2.533-0.139
		c-0.067-0.698-0.166-1.232-0.166-1.771c-0.01-20.86-0.012-41.723-0.01-62.584c0-0.345,0.049-0.69,0.076-1.035
		C93.542,80.111,111.015,80.111,128.488,80.111z M95.079,108.437c0.737,0.069,1.145,0.14,1.553,0.14
		c8.249-0.006,16.499,0.059,24.746-0.073c2.892-0.047,5.81-0.387,8.653-0.931c4.09-0.782,6.02-3.245,6.095-7.21
		c0.084-4.638-1.179-6.304-5.739-7.523c-0.666-0.179-1.351-0.394-2.031-0.41c-10.661-0.254-21.322-0.493-31.984-0.66
		c-0.425-0.006-1.229,0.736-1.236,1.14C95.051,98.023,95.079,103.139,95.079,108.437z"/>
	<path fill-rule="evenodd" clip-rule="evenodd" fill="#031B24" d="M146.79,167.891c-0.01-4.5-0.021-8.996-0.023-13.492
		c0-0.189,0.108-0.382,0.169-0.596c3.026-0.579,5.593-0.42,7.435,2.675c1.401,2.356,3.376,4.371,5.339,6.849
		c0-3.361,0-6.382,0-9.557c1.405,0,2.617,0,4.009,0c0,4.513,0,9.086,0,13.65c-2.834,0.677-5.034,0.206-6.744-2.451
		c-1.635-2.543-3.737-4.784-5.944-7.547c0,3.599,0,6.771,0,9.98c-1.43,0.184-2.624,0.336-3.822,0.488
		C147.067,167.891,146.929,167.891,146.79,167.891z"/>
	<path fill-rule="evenodd" clip-rule="evenodd" fill="#031B24" d="M12.005,153.745c4.008,0.03,8.024-0.033,12.029,0.132
		c3.176,0.129,4.874,1.693,4.821,4.036c-0.037,1.666-0.636,2.336-3.714,4.028c1.358,1.724,2.695,3.42,4.165,5.285
		c-2.458,0.549-4.3,0.39-5.674-1.845c-1.307-2.126-2.793-4.053-5.925-3.464c-1.351,0.254-1.784,0.63-1.703,1.902
		c0.069,1.091,0.013,2.19,0.013,3.653c-1.445,0-2.729,0-4.012,0C12.005,162.896,12.005,158.319,12.005,153.745z M16.159,159.616
		c2.472,0,4.81,0.122,7.12-0.085c0.591-0.051,1.401-1.08,1.52-1.761c0.075-0.427-0.924-1.466-1.495-1.506
		c-2.37-0.173-4.758-0.075-7.146-0.075C16.159,157.452,16.159,158.525,16.159,159.616z"/>
	<path fill-rule="evenodd" clip-rule="evenodd" fill="#031B24" d="M36.55,167.891c-0.44-0.163-0.867-0.376-1.321-0.478
		c-3.717-0.84-5.633-3.044-5.691-6.578c-0.061-3.748,1.679-6.277,5.512-6.843c2.871-0.426,5.925-0.352,8.792,0.129
		c3.404,0.575,4.984,2.969,5.04,6.385c0.056,3.339-1.6,5.601-4.839,6.643c-0.701,0.228-1.392,0.491-2.086,0.742
		C40.156,167.891,38.351,167.891,36.55,167.891z M39.118,165.588c3.614,0.027,5.405-1.526,5.452-4.736
		c0.054-3.504-1.586-5.129-5.22-5.17c-3.64-0.04-5.62,1.646-5.666,4.828C33.639,163.794,35.528,165.558,39.118,165.588z"/>
	<path fill-rule="evenodd" clip-rule="evenodd" fill="#031B24" d="M77.735,167.891c-1.016-0.166-2.028-0.355-3.047-0.488
		c-3.472-0.46-4.876-1.983-4.949-5.461c-0.038-1.727-0.024-3.456-0.024-5.187c0-3.22,0.11-3.304,3.826-2.766
		c0,2.403-0.014,4.868,0.003,7.333c0.023,3.365,0.928,4.238,4.369,4.279c3.619,0.041,4.677-0.867,4.747-4.164
		c0.044-2.075,0.061-4.15,0.001-6.227c-0.042-1.438,0.811-1.499,1.881-1.486c1.042,0.018,1.94,0.018,1.899,1.477
		c-0.066,2.35,0.01,4.706-0.051,7.056c-0.083,3.192-1.391,4.611-4.575,5.112c-1.083,0.169-2.165,0.345-3.249,0.521
		C78.289,167.891,78.011,167.891,77.735,167.891z"/>
	<path fill-rule="evenodd" clip-rule="evenodd" fill="#031B24" d="M218.93,156.183c-3.376,0-6.616-0.033-9.853,0.018
		c-1.33,0.021-3.22-0.271-3.25,1.648c-0.03,2.018,1.927,1.558,3.203,1.622c2.214,0.108,4.438-0.024,6.648,0.108
		c2.875,0.172,4.216,1.351,4.311,3.524c0.102,2.417-1.246,3.879-4.097,4.303c-1.158,0.176-2.347,0.199-3.521,0.21
		c-3.317,0.026-6.632,0.01-10.089,0.01c0-0.891,0-1.604,0-2.58c3.271,0,6.507,0.062,9.74-0.03c1.32-0.037,3.399,0.542,3.383-1.628
		c-0.018-2.093-2.065-1.317-3.281-1.422c-2.271-0.2-4.577-0.027-6.839-0.281c-2.654-0.298-3.924-1.632-3.975-3.714
		c-0.058-2.208,1.246-3.931,3.847-4.069c4.536-0.24,9.097-0.068,13.772-0.068C218.93,154.558,218.93,155.269,218.93,156.183z"/>
	<path fill-rule="evenodd" clip-rule="evenodd" fill="#031B24" d="M199.514,153.786c0,0.806,0,1.469,0,2.4
		c-3.321,0-6.559-0.034-9.791,0.014c-1.402,0.021-3.393-0.254-3.328,1.78c0.058,1.92,2.034,1.433,3.324,1.49
		c2.282,0.108,4.577-0.031,6.853,0.146c2.624,0.199,3.866,1.374,3.964,3.396c0.119,2.37-0.984,4.097-3.568,4.249
		c-4.665,0.277-9.36,0.081-14.151,0.081c0-0.63,0-1.293,0-2.299c3.044,0,6.061,0.01,9.077-0.007c0.965-0.007,1.994,0.099,2.877-0.2
		c0.565-0.192,1.114-0.978,1.264-1.594c0.064-0.271-0.854-1.091-1.375-1.138c-1.926-0.18-3.876-0.081-5.81-0.196
		c-1.438-0.088-2.901-0.214-4.296-0.556c-1.733-0.43-2.702-1.686-2.675-3.501c0.03-1.75,0.847-3.047,2.576-3.632
		c0.521-0.18,1.063-0.413,1.599-0.417C190.474,153.77,194.892,153.786,199.514,153.786z"/>
	<path fill-rule="evenodd" clip-rule="evenodd" fill="#031B24" d="M63.668,165.053c0-1.191,0-2.136,0-3.446
		c-1.311,0-2.543,0.115-3.738-0.047c-0.562-0.078-1.05-0.694-1.571-1.066c0.479-0.353,0.943-0.989,1.438-1.016
		c2.142-0.108,4.3-0.119,6.436,0.026c0.515,0.034,1.364,0.772,1.398,1.232c0.149,2.126,0.064,4.266,0.064,6.971
		c-4.581-0.287-8.996-0.308-13.322-0.928c-2.875-0.412-4.381-2.854-4.442-5.748c-0.071-3.338,1.348-6.088,4.284-6.531
		c4.143-0.623,8.395-0.541,12.604-0.674c0.274-0.01,0.825,0.729,0.789,1.077c-0.034,0.342-0.637,0.88-1.006,0.894
		c-2.422,0.088-4.851-0.014-7.273,0.081c-3.863,0.149-5.37,1.93-4.963,5.735c0.21,1.967,1.256,3.268,3.272,3.409
		C59.558,165.158,61.495,165.053,63.668,165.053z"/>
	<path fill-rule="evenodd" clip-rule="evenodd" fill="#031B24" d="M180.923,153.394c0,1.171,0,1.777,0,2.346
		c-3.64,1.422-8.457-1.648-11.548,3.42c4.113,0,7.723,0,11.487,0c0.064,0.907,0.111,1.563,0.18,2.532c-3.803,0-7.482,0-11.24,0
		c-0.037,2.319,1.178,3.202,2.936,3.284c2.674,0.121,5.359,0.033,8.155,0.033c0,1.033,0,1.693,0,2.811
		c-3.704-0.233-7.367-0.196-10.938-0.762c-3.416-0.542-4.937-2.786-4.96-6.155c-0.023-3.684,1.445-6.107,4.875-6.696
		C173.435,153.597,177.111,153.644,180.923,153.394z"/>
	<path fill-rule="evenodd" clip-rule="evenodd" fill="#031B24" d="M103.167,167.64c-3.574-0.213-7.177-0.162-10.688-0.714
		c-3.422-0.539-4.885-2.763-4.858-6.206c0.029-3.599,1.521-5.871,4.929-6.405c3.184-0.501,6.465-0.427,9.705-0.498
		c0.377-0.007,0.772,0.67,1.158,1.032c-0.413,0.332-0.81,0.921-1.241,0.948c-2.136,0.136-4.292,0.011-6.424,0.2
		c-1.779,0.159-3.391,0.792-3.648,3.43c2.739,0,5.396,0,8.052-0.004c0.554,0,1.109,0.007,1.661-0.027
		c1.436-0.084,1.893,0.552,1.356,2.19c-3.601,0-7.294,0-11.039,0c-0.118,2.241,0.867,3.328,2.71,3.478
		c2.337,0.192,4.694,0.227,7.042,0.243C103.201,165.317,103.65,165.853,103.167,167.64z"/>
	<path fill-rule="evenodd" clip-rule="evenodd" fill="#031B24" d="M109.388,159.471c3.814,0,7.532,0,11.417,0
		c0,0.85,0,1.543,0,2.431c-3.795,0-7.514,0-11.5,0c0,1.937,0,3.697,0,5.586c-1.482,0-2.698,0-4.496,0
		c0.264-3.416,0.34-6.846,0.86-10.204c0.316-2.041,2.136-3.179,4.103-3.28c3.64-0.187,7.296-0.051,11.074-0.051
		c0,0.528,0,1.185,0,2.241c-2.708,0-5.395-0.081-8.075,0.027C110.886,156.295,109.463,157.101,109.388,159.471z"/>
	<path fill-rule="evenodd" clip-rule="evenodd" fill="#031B24" d="M134.975,167.443c0-3.728,0-7.37,0-11.21
		c-2.119,0-4.029,0-6.186,0c-0.044-0.894-0.081-1.598-0.125-2.447c5.678,0,11.183,0,16.803,0c0,0.721,0,1.385,0,2.302
		c-1.978,0-3.944,0-6.115,0c0,3.891,0,7.533,0,11.355C137.886,167.443,136.616,167.443,134.975,167.443z"/>
	<path fill-rule="evenodd" clip-rule="evenodd" fill="#031B24" d="M127.445,167.515c-1.398,0-2.682,0-4.138,0
		c0-4.561,0-9.07,0-13.745c1.341,0,2.672,0,4.138,0C127.445,158.354,127.445,162.873,127.445,167.515z"/>
</g>
</svg>
