<?xml version="1.0" encoding="utf-8"?>
<!-- Generator: Adobe Illustrator 16.0.0, SVG Export Plug-In . SVG Version: 6.00 Build 0)  -->
<!DOCTYPE svg PUBLIC "-//W3C//DTD SVG 1.1//EN" "http://www.w3.org/Graphics/SVG/1.1/DTD/svg11.dtd">
<svg xmlns="http://www.w3.org/2000/svg" xmlns:xlink="http://www.w3.org/1999/xlink" version="1.1" id="Layer_1" x="0px" y="0px" width="232px" height="232px" viewBox="0 0 232 232" xml:space="preserve">
<path fill-rule="evenodd" clip-rule="evenodd" fill="#031B24" d="M51.021,159.061c-22.998,0.053-41.424-19.299-40.768-42.097  c0.636-22.09,18.522-39.794,41.075-39.832c22.108-0.037,42.068,18.711,40.815,43.198C91.089,140.924,73.798,159.182,51.021,159.061z   M47.167,137.039c4.483,0.328,8.992,0.502,13.446-0.053c6.608-0.826,11.031-7.223,9.792-13.762  c-1.174-6.189-5.861-9.767-13.055-9.606c-2.449,0.055-3.523-0.447-3.191-3.1c0.237-1.883,0.076-3.821,0.041-5.733  c-0.061-3.285-1.823-5.223-5.062-5.312c-3.919-0.105-7.842-0.002-11.764-0.039c-1.23-0.01-1.982,0.243-1.965,1.718  c0.093,8.03,0.128,16.06,0.183,24.089c-0.439,1.207,0.587,1.699,1.207,2.33c2.584,2.646,5.199,5.266,7.833,7.863  C45.349,136.141,45.919,137.145,47.167,137.039z"/>
<path fill-rule="evenodd" clip-rule="evenodd" fill="#031B24" d="M119.797,113.209c4.438-3.728,8.781-4.439,13.277-1.991  c5.104,2.781,6.352,7.741,6.167,13.007c-0.292,8.305-4.854,13.113-11.822,13.02c-2.29-0.033-4.342-0.725-6.093-2.162  c-0.851-0.695-1.319-1.189-2.069,0.184c-0.856,1.568-2.509,2.043-4.162,1.617c-1.862-0.477-2.319-2.033-2.316-3.809  c0.018-9.66,0.034-19.32-0.008-28.978c-0.014-2.911,1.662-3.382,4.078-3.345c2.348,0.038,2.912,1.42,2.938,3.329  C119.827,106.916,119.797,109.754,119.797,113.209z M131.982,123.27c-0.076-0.461-0.146-1.428-0.407-2.34  c-0.911-3.216-3.848-5.146-6.965-4.65c-3.574,0.566-4.817,2.141-4.817,6.092c0,1.055,0.114,2.125-0.021,3.158  c-0.447,3.395,1.436,4.434,4.156,5.162C128.242,131.848,131.891,128.611,131.982,123.27z"/>
<path fill-rule="evenodd" clip-rule="evenodd" fill="#031B24" d="M168.676,123.682c0,2.965-0.039,5.932,0.013,8.896  c0.035,1.881-0.425,3.426-2.356,4.129c-1.918,0.701-3.459,0.041-4.352-1.68c-0.754-1.451-1.365-0.484-1.955-0.059  c-2.711,1.941-5.747,2.527-8.99,2.225c-4.431-0.418-6.735-2.852-6.788-7.277c-0.063-5.359,0.053-10.719-0.042-16.073  c-0.045-2.442,1.159-3.513,3.37-3.628c2.206-0.115,3.317,1.202,3.647,3.256c0.106,0.653,0.063,1.334,0.063,2.003  c0.006,3.54-0.016,7.081,0.008,10.62c0.021,3.455,1.357,4.826,4.59,4.779c3.411-0.051,5.709-2.025,5.728-4.984  c0.025-3.828-0.017-7.655,0.012-11.483c0.021-2.736,1.332-4.245,3.565-4.212c2.221,0.035,3.461,1.542,3.481,4.302  C168.693,117.557,168.676,120.619,168.676,123.682z"/>
<path fill-rule="evenodd" clip-rule="evenodd" fill="#031B24" d="M209.762,130.4c2.999,0,5.443,0.051,7.887-0.016  c2.293-0.061,4.163,0.545,4.115,3.188c-0.044,2.424-1.749,3.061-3.977,3.016c-4.593-0.082-9.186-0.061-13.778-0.002  c-1.663,0.02-3.023-0.314-3.809-1.93c-0.765-1.58-0.356-2.975,0.657-4.27c3.063-3.918,6.146-7.824,9.189-11.756  c0.374-0.481,1.191-0.984,0.657-1.672c-0.256-0.332-1.037-0.334-1.585-0.346c-2.008-0.037-4.021-0.084-6.027,0.003  c-2.051,0.089-3.183-1.04-3.25-2.835c-0.073-1.928,1.057-3.273,3.184-3.283c4.976-0.031,9.953-0.106,14.927,0.024  c3.358,0.088,4.733,3.11,2.671,5.911c-2.665,3.617-5.527,7.086-8.302,10.625C211.58,128.008,210.855,128.971,209.762,130.4z"/>
<path fill-rule="evenodd" clip-rule="evenodd" fill="#031B24" d="M183.567,130.4c3.267,0,5.813,0.035,8.36-0.012  c2.271-0.041,3.836,0.82,3.736,3.256c-0.089,2.252-1.599,2.982-3.749,2.943c-4.688-0.078-9.38-0.068-14.067,0.004  c-1.704,0.023-3.059-0.432-3.774-2.01c-0.694-1.529-0.326-2.955,0.718-4.273c3.426-4.326,6.816-8.68,10.764-13.711  c-3.208,0-5.709-0.035-8.209,0.011c-2.091,0.04-3.585-0.579-3.637-2.968c-0.054-2.407,1.47-3.124,3.53-3.135  c4.592-0.024,9.188-0.007,13.781-0.005c1.561,0,3.279,0.315,3.902,1.706c0.732,1.634,0.493,3.413-0.849,5.022  C190.65,121.336,187.396,125.578,183.567,130.4z"/>
<path fill-rule="evenodd" clip-rule="evenodd" fill="#031B24" d="M35.591,125.242c2.1,0.002,4.199-0.014,6.299,0.012  c3.711,0.053,5.245,1.551,5.294,5.199c0.03,2.195-0.009,4.393-0.019,6.586c-1.248,0.105-1.818-0.898-2.535-1.604  c-2.635-2.598-5.249-5.217-7.833-7.863C36.179,126.941,35.152,126.449,35.591,125.242z"/>
</svg>
