<?xml version="1.0" encoding="utf-8"?>
<!-- Generator: Adobe Illustrator 16.0.0, SVG Export Plug-In . SVG Version: 6.00 Build 0)  -->
<!DOCTYPE svg PUBLIC "-//W3C//DTD SVG 1.1//EN" "http://www.w3.org/Graphics/SVG/1.1/DTD/svg11.dtd">
<svg xmlns="http://www.w3.org/2000/svg" xmlns:xlink="http://www.w3.org/1999/xlink" version="1.1" id="Layer_1" x="0px" y="0px" width="232px" height="232px" viewBox="0 0 232 232" xml:space="preserve">
<g>
	<path fill-rule="evenodd" clip-rule="evenodd" fill="#031B24" d="M105.557,71.706c0-2.825,0-5.343,0-8.043c1.176,0,2.185,0,3.511,0   c0,2.49,0.126,5.018-0.041,7.526c-0.129,1.956,0.615,2.736,2.765,2.649c0-2.854,0-5.703,0-8.623c1.307,0,2.332,0,3.54,0   c0,2.587,0.098,5.057-0.035,7.514c-0.088,1.64,0.538,2.044,2.07,2.049c4.69,0.016,9.132-0.853,13.273-3.139   c1.54-0.851,3.164-1.553,4.886-2.39c0.534,1.022,1.017,1.948,1.57,3.01c-5.466,2.962-10.863,5.832-17.318,5.905   c0,2.15,0,4.036,0,5.628c3.086,1.337,5.989,2.726,9.001,3.815c0.866,0.313,2.044-0.254,3.083-0.394   c0.831-0.113,1.667-0.19,2.657-0.3c0,1.151,0,2.169,0,3.331c-0.607,0.166-1.268,0.346-1.759,0.48   c1.18,2.675,2.19,5.438,3.632,7.955c0.453,0.792,2.063,0.924,3.386,1.455c0,0.653,0,1.68,0,2.837   c-0.753,0.081-1.502,0.161-2.428,0.26c0,2.902,0,5.824,0,8.919c0.704,0.1,1.517,0.217,2.452,0.351c0,1.012,0,2.041,0,3.218   c-0.642,0.036-1.314-0.079-1.852,0.141c-0.669,0.274-1.49,0.691-1.782,1.277c-1.219,2.45-2.265,4.987-3.418,7.594   c0.352,0.113,0.992,0.32,1.736,0.561c0,0.992,0,2.02,0,3.066c-0.278,0.065-0.51,0.205-0.671,0.146   c-3.468-1.24-6.445,0.131-9.608,1.418c-5.054,2.061-10.196,1.488-14.986-1.002c-1.823-0.949-3.432-1.337-5.361-0.663   c-0.707,0.247-1.519,0.188-2.418,0.284c-0.244-1.854-0.488-3.517,1.779-3.724c-1.22-2.733-2.374-5.423-3.642-8.056   c-0.207-0.431-0.89-0.787-1.406-0.878c-0.821-0.146-1.688-0.039-2.725-0.039c0-1.097,0-2.113,0-3.336   c0.971-0.104,2.047-0.218,3.193-0.34c0-2.992,0-5.87,0-8.98c-0.995-0.06-2.016-0.122-3.183-0.192c0-1.031,0-1.99,0-2.961   c0.096-0.081,0.215-0.258,0.308-0.246c2.748,0.379,4.113-0.796,4.813-3.517c0.493-1.917,1.801-3.626,2.783-5.5   c-0.622-0.171-1.282-0.353-1.991-0.548c0-1.034,0-2.008,0-2.94c0.177-0.126,0.315-0.292,0.391-0.268   c3.757,1.226,7.069-0.037,10.38-1.692c1.168-0.584,2.578-0.686,3.975-1.032c0-1.986,0-3.936,0-6.557   c-1.174,0.544-2.163,0.766-2.824,1.355c-2.266,2.019-4.415,4.167-6.718,6.37c-0.628-0.594-1.38-1.306-2.526-2.391   c2.045-1.774,4.044-3.509,6.155-5.34c-1.762-1.3-2.77-1.079-3.912,0.044c-1.86,1.83-3.89,3.487-5.971,5.324   c-0.754-0.838-1.447-1.608-2.307-2.564c1.977-1.802,3.923-3.576,6.054-5.519c-1.862-0.957-3.535-1.815-5.276-2.71   c0.529-1.038,1.006-1.972,1.561-3.061C102.058,70.051,103.68,70.819,105.557,71.706z M126.393,101.394   c-2.705-1.393-5.194-2.682-7.694-3.951c-0.297-0.15-0.739-0.369-0.965-0.257c-2.703,1.357-5.378,2.77-8.202,4.242   c2.565,1.308,4.847,2.568,7.221,3.622c0.692,0.307,1.762,0.278,2.462-0.036C121.583,103.951,123.861,102.689,126.393,101.394z    M126.357,114.141c-2.703-1.402-5.186-2.698-7.68-3.972c-0.296-0.151-0.741-0.354-0.971-0.238   c-2.708,1.359-5.388,2.774-8.155,4.217c2.534,1.309,4.814,2.566,7.171,3.654c0.646,0.298,1.647,0.351,2.278,0.063   C121.427,116.761,123.769,115.473,126.357,114.141z M102.306,102.715c0,3.707,0,6.533,0,10.07c4.232-1.644,7.97-3.096,11.709-4.548   c0.003-0.325,0.007-0.652,0.011-0.977C110.231,105.789,106.438,104.317,102.306,102.715z M133.649,112.754c0-3.661,0-6.445,0-9.431   c-4.464,0.413-8.086,2.27-11.741,4.919C125.653,109.682,129.399,111.122,133.649,112.754z M103.574,115.838   c-0.219,0.266-0.437,0.531-0.655,0.796c1.255,2.053,2.474,4.127,3.797,6.135c0.249,0.378,1.04,0.794,1.364,0.662   c2.007-0.817,3.953-1.785,5.919-2.703c-0.021-0.243-0.041-0.486-0.062-0.729C110.484,118.613,107.028,117.226,103.574,115.838z    M113.977,95.468c-0.031-0.238-0.062-0.476-0.092-0.714c-1.69-0.828-3.353-1.724-5.088-2.439c-0.509-0.21-1.474-0.148-1.81,0.197   c-1.812,1.861-3.163,4.02-3.824,7.334C107.085,98.259,110.531,96.863,113.977,95.468z M122.002,120.033   c0.016,0.24,0.03,0.48,0.045,0.722c1.76,0.86,3.499,1.765,5.293,2.546c0.414,0.18,1.209,0.133,1.492-0.148   c1.903-1.891,3.197-4.14,3.404-7.32C128.825,117.232,125.413,118.634,122.002,120.033z M122.075,94.767   c-0.023,0.239-0.046,0.479-0.068,0.718c3.443,1.39,6.888,2.78,10.331,4.17c0.146-0.222,0.294-0.444,0.44-0.666   c-0.622-1.322-1.156-2.694-1.884-3.956c-2.041-3.543-2.27-3.587-5.868-1.792C124.036,93.736,123.059,94.258,122.075,94.767z    M124.831,126.105c-2.347-1.219-4.269-2.23-6.206-3.211c-0.29-0.146-0.733-0.307-0.97-0.188c-2.096,1.052-4.16,2.165-6.526,3.415   C115.849,128.191,120.119,128.155,124.831,126.105z M111.125,89.384c2.359,1.258,4.315,2.319,6.296,3.333   c0.271,0.139,0.727,0.181,0.983,0.049c2.028-1.043,4.03-2.14,6.347-3.385C120.097,87.366,115.851,87.368,111.125,89.384z"/>
	<path fill-rule="evenodd" clip-rule="evenodd" fill="#031B24" d="M22.512,174.27c1.018-6.869,0.976-13.703,0.045-20.658   c3.325,0,6.894-0.209,10.42,0.084c1.913,0.158,3.229,1.662,3.486,3.75c0.273,2.219-0.361,4.066-2.333,5.277   c-0.646,0.396-1.382,0.65-2.418,1.127c2.435,3.547,4.797,6.988,7.268,10.588c-1.345,0-2.798,0.113-4.218-0.057   c-0.554-0.066-1.172-0.68-1.52-1.203c-1.942-2.92-3.809-5.889-5.703-8.842c-0.188,0.039-0.376,0.076-0.564,0.113   c0.173,3.227,0.346,6.451,0.527,9.82C26.059,174.27,24.227,174.27,22.512,174.27z M27.221,154.871c0,2.844,0,5.479,0,8.186   c1.782,0.213,3.78,0.391,4.319-1.387c0.525-1.73,0.481-3.898-0.084-5.621C30.905,154.371,28.959,154.619,27.221,154.871z"/>
	<path fill-rule="evenodd" clip-rule="evenodd" fill="#031B24" d="M160.276,173.92c0.307,2.471,0.579,4.67,0.869,7.01   c-1.585,0-3.369,0-5.033,0c0.897-6.777,0.977-13.588-0.068-20.607c1.232-0.293,2.648-0.629,4.214-1   c0.147,0.592,0.273,1.1,0.434,1.75c0.447-0.203,0.824-0.35,1.181-0.537c4.43-2.324,8.013-0.586,8.817,4.361   c0.45,2.77-0.104,5.35-1.984,7.531C166.773,174.67,164.741,175.076,160.276,173.92z M160.487,167.068   c0,1.484-0.119,2.984,0.063,4.445c0.067,0.545,0.882,1.455,1.281,1.416c1.128-0.107,2.447-0.342,3.28-1.025   c2.132-1.756,2.513-6.479,0.681-8.566c-0.763-0.871-2.049-1.443-3.205-1.77c-1.388-0.391-2.286,0.205-2.126,1.898   C160.573,164.656,160.482,165.867,160.487,167.068z"/>
	<path fill-rule="evenodd" clip-rule="evenodd" fill="#031B24" d="M102.382,174.361c-1.384,0-3.135,0-4.953,0   c1.149-4.582,1.279-9.082-0.146-13.877c1.386-0.355,2.839-0.729,4.453-1.143c0.205,0.652,0.379,1.205,0.574,1.826   c1.144-0.475,2.226-0.992,3.353-1.379c3.077-1.061,4.998,0.109,5.366,3.352c0.174,1.539,0.032,3.109,0.124,4.66   c0.128,2.158,0.343,4.309,0.527,6.545c-1.557,0-3.305,0-4.73,0c0.099-3.23,0.358-6.434,0.199-9.617   c-0.051-1.018-0.992-2.439-1.907-2.877c-2.188-1.047-3.233-0.197-3.182,2.227C102.132,167.434,102.267,170.787,102.382,174.361z"/>
	<path fill-rule="evenodd" clip-rule="evenodd" fill="#031B24" d="M138.415,169.709c-0.194,1.496-0.223,2.547-0.507,3.523   c-0.139,0.471-0.709,0.895-1.183,1.16c-0.409,0.229-0.955,0.229-1.447,0.289c-4.129,0.496-8.308,0.576-11.012-3.199   c-2.88-4.025-2.655-8.582-0.754-12.955c2.021-4.648,9.525-7.201,13.942-4.928c0.301,0.154,0.604,0.604,0.631,0.938   c0.082,1.025,0.03,2.061,0.03,3.537c-1.273-0.965-2.206-1.672-3.137-2.381c-2.144-1.633-4.21-1.479-5.989,0.447   c-3.143,3.404-3.156,12.318-0.021,15.719c1.625,1.762,3.739,2.004,5.692,0.621C135.798,171.676,136.902,170.828,138.415,169.709z"/>
	<path fill-rule="evenodd" clip-rule="evenodd" fill="#031B24" d="M80.015,167.049c0.073-4.76,3.15-7.705,7.985-7.637   c4.541,0.063,7.336,3.051,7.297,7.801c-0.041,4.822-3.245,7.898-8.105,7.783C82.715,174.891,79.942,171.818,80.015,167.049z    M83.92,167.141c0.444,1.707,0.632,3.436,1.34,4.918c1.148,2.402,3.774,2.428,4.881,0.043c1.496-3.219,1.512-6.619-0.016-9.844   c-1.12-2.363-3.77-2.379-4.916-0.01C84.498,163.723,84.34,165.465,83.92,167.141z"/>
	<path fill-rule="evenodd" clip-rule="evenodd" fill="#031B24" d="M205.061,173.861c-1.265,0.031-3.104,2.074-4.195-0.857   c-1.041,0.506-1.894,1.012-2.809,1.346c-2.238,0.82-4.375-0.178-5.163-2.332c-0.851-2.328,0.082-4.506,2.382-5.328   c0.852-0.305,1.785-0.424,2.692-0.508c0.903-0.086,1.819-0.021,3.387-0.021c-0.444-1.828-0.314-4.08-1.287-4.766   c-2.611-1.838-3.88,1.463-5.854,2.316c-0.681-3.51-0.562-3.684,2.825-4.139c0.351-0.047,0.701-0.094,1.054-0.117   c5.541-0.389,6.573,0.615,6.604,6.135C204.71,168.238,204.922,170.885,205.061,173.861z M200.851,167.291   c-3.109-0.066-4.646,0.947-4.534,2.914c0.088,1.543,1.304,2.49,3.111,2.422C201.224,172.557,201.383,171.984,200.851,167.291z"/>
	<path fill-rule="evenodd" clip-rule="evenodd" fill="#031B24" d="M142.194,163.756c-0.354-3.768-0.315-3.822,3.128-4.225   c0.63-0.074,1.269-0.096,1.903-0.105c4.66-0.074,5.5,0.809,5.551,5.488c0.032,2.926,0.227,5.848,0.355,8.949   c-1.189,0.037-2.976,2.07-4.138-0.832c-1.014,0.479-1.869,0.961-2.778,1.299c-2.252,0.834-4.391-0.115-5.208-2.248   c-0.915-2.389,0.082-4.629,2.514-5.443c0.857-0.285,1.79-0.377,2.697-0.477c0.896-0.1,1.802-0.096,3.309-0.166   c-0.498-1.756-0.455-4.02-1.46-4.672C145.549,159.684,144.289,162.797,142.194,163.756z M149.341,167.232   c-3.641,0.123-5.146,1.172-4.955,3.068c0.156,1.576,1.686,2.816,3.424,2.244C150.805,171.559,148.289,169.047,149.341,167.232z"/>
	<path fill-rule="evenodd" clip-rule="evenodd" fill="#031B24" d="M52.73,166.348c-2.983,0-5.993,0-8.967,0   c-0.641,4.688,2.052,6.576,8.933,6.209c-2.555,2.166-5.168,2.736-8.03,2.029c-2.73-0.674-4.333-2.553-4.873-5.289   c-1.049-5.311,2.021-9.75,6.797-9.885C50.634,159.299,53.096,161.984,52.73,166.348z M49.456,164.986   c-0.866-1.656-0.946-2.572-1.808-3.619c-0.268-0.324-2.362-0.559-2.633-0.127c-0.79,1.256-0.771,1.9-1.513,3.77   C45.88,164.684,47.044,165.316,49.456,164.986z"/>
	<path fill-rule="evenodd" clip-rule="evenodd" fill="#031B24" d="M65.381,163.457c-1.271-0.846-2.241-1.744-3.386-2.154   c-0.733-0.266-1.725,0.193-2.601,0.328c0.226,0.857,0.187,2.004,0.736,2.518c1.01,0.943,2.377,1.498,3.578,2.242   c1.714,1.063,2.666,2.553,2.271,4.623c-0.387,2.031-1.77,3.23-3.71,3.623c-1.223,0.246-2.536,0.264-3.783,0.139   c-3.175-0.322-3.271-0.52-2.787-4.023c1.212,0.799,2.34,1.607,3.531,2.311c1.104,0.654,2.413,0.695,2.873-0.588   c0.254-0.709-0.247-2.027-0.849-2.627c-0.979-0.975-2.33-1.57-3.505-2.357c-1.7-1.133-2.475-2.699-1.995-4.736   c0.49-2.086,2.04-2.955,4.002-3.232c0.765-0.107,1.553-0.133,2.326-0.096C65.561,159.594,65.601,159.652,65.381,163.457z"/>
	<path fill-rule="evenodd" clip-rule="evenodd" fill="#031B24" d="M208.092,152.818c1.267-0.299,2.759-0.652,4.856-1.146   c0,7.68,0,15.092,0,22.629c-1.244,0-3.034,0-4.614,0C209.126,167.23,209.441,160.203,208.092,152.818z"/>
	<path fill-rule="evenodd" clip-rule="evenodd" fill="#031B24" d="M182.106,161.262c-0.721-0.109-1.233-0.188-1.902-0.291   c1.884-1.789,3.604-3.424,5.566-5.293c0,1.322,0,2.449,0,3.916c1.482,0,2.727-0.055,3.96,0.035c0.35,0.025,0.667,0.473,1,0.727   c-0.336,0.252-0.656,0.695-1.01,0.721c-1.182,0.092-2.375,0.037-3.772,0.037c0,3.223-0.147,6.314,0.104,9.373   c0.063,0.768,1.309,1.607,2.189,2.08c0.647,0.348,1.587,0.146,2.789,0.213c-2.171,1.732-4.271,2.213-6.573,1.738   c-2.043-0.418-2.31-2.088-2.337-3.77C182.07,167.646,182.106,164.545,182.106,161.262z"/>
	<path fill-rule="evenodd" clip-rule="evenodd" fill="#031B24" d="M78.764,173.313c-1.29,0.441-2.549,1.059-3.875,1.287   c-3.241,0.559-4.67-0.66-4.744-3.914c-0.06-2.609-0.09-5.223-0.006-7.83c0.042-1.33-0.272-2.053-1.635-1.756   c1.646-1.73,3.314-3.484,5.222-5.49c0.083,1.357,0.154,2.539,0.24,3.953c1.594,0,3.108,0,4.622,0   c0.057,0.256,0.114,0.508,0.17,0.764c-1.04,1.846-3.327,0.084-4.853,1.174c0,2.809-0.037,5.758,0.015,8.705   c0.027,1.506,0.952,2.305,2.412,2.441c0.764,0.068,1.539,0.012,2.309,0.012C78.681,172.877,78.723,173.094,78.764,173.313z"/>
	<path fill-rule="evenodd" clip-rule="evenodd" fill="#031B24" d="M173.009,160.484c1.444-0.373,2.918-0.754,4.997-1.291   c0,5.203,0,10.076,0,15.09c-1.261,0-3.036,0-4.841,0C174.309,169.68,174.423,165.164,173.009,160.484z"/>
	<path fill-rule="evenodd" clip-rule="evenodd" fill="#031B24" d="M175.739,157.152c-1.024-1.266-2.02-1.955-2.141-2.771   c-0.202-1.361,0.996-1.656,2.164-1.637c1.246,0.021,2.48,0.348,2.225,1.832C177.855,155.338,176.838,155.947,175.739,157.152z"/>
</g>
</svg>
