<?xml version="1.0" encoding="utf-8"?>
<!-- Generator: Adobe Illustrator 16.0.0, SVG Export Plug-In . SVG Version: 6.00 Build 0)  -->
<!DOCTYPE svg PUBLIC "-//W3C//DTD SVG 1.1//EN" "http://www.w3.org/Graphics/SVG/1.1/DTD/svg11.dtd">
<svg version="1.1" id="Layer_1" xmlns="http://www.w3.org/2000/svg" xmlns:xlink="http://www.w3.org/1999/xlink" x="0px" y="0px"
	 width="366px" height="499.664px" viewBox="0 0 366 499.664" enable-background="new 0 0 366 499.664" xml:space="preserve">
<g>
	<g>
		<defs>
			<rect id="SVGID_1_" x="7.5" y="151.548" width="353" height="224.024"/>
		</defs>
		<clipPath id="SVGID_2_">
			<use xlink:href="#SVGID_1_"  overflow="visible"/>
		</clipPath>
		<path clip-path="url(#SVGID_2_)" fill="#081C24" d="M223.567,187.094l-68.504-3.642c-0.797-0.042-1.596,0.138-2.3,0.515
			l-37.735,20.355c-1.146,0.619-1.957,1.72-2.208,2.998c-0.247,1.278,0.09,2.604,0.918,3.606l19.412,23.483
			c0.189-0.141,0.384-0.279,0.6-0.395L223.567,187.094z M223.567,187.094"/>
		<path clip-path="url(#SVGID_2_)" fill="#081C24" d="M358.74,162.781c-0.036-0.073-0.07-0.144-0.109-0.214
			c-2.705-5.073-8.826-11.116-22.59-11.116c-14.476,0-30.229,6.573-30.893,6.854C266.965,173.518,87.252,268.086,87.252,268.086
			l-43.036-23.188c-1.274-0.687-2.801-0.694-4.082-0.028L9.837,260.694c-1.278,0.667-2.142,1.926-2.309,3.355
			c-0.163,1.433,0.386,2.854,1.478,3.798l74.043,64.01c1.352,1.165,3.277,1.391,4.859,0.566l72.306-37.729l10.939,77.087
			c0.2,1.41,1.076,2.633,2.345,3.273c0.619,0.313,1.292,0.469,1.964,0.469c0.71,0,1.419-0.172,2.064-0.52
			c7.684-4.131,12.481-6.75,17.12-9.279c4.724-2.58,9.611-5.245,17.518-9.491c0.848-0.458,1.519-1.178,1.913-2.052l51.457-114.469
			l52.896-27.618C343.162,199.537,366.737,179.987,358.74,162.781L358.74,162.781z M358.74,162.781"/>
	</g>
</g>
</svg>
