<?xml version="1.0" encoding="utf-8"?>
<!-- Generator: Adobe Illustrator 16.0.0, SVG Export Plug-In . SVG Version: 6.00 Build 0)  -->
<!DOCTYPE svg PUBLIC "-//W3C//DTD SVG 1.1//EN" "http://www.w3.org/Graphics/SVG/1.1/DTD/svg11.dtd">
<svg version="1.1" id="Layer_1" xmlns="http://www.w3.org/2000/svg" xmlns:xlink="http://www.w3.org/1999/xlink" x="0px" y="0px"
	 width="366px" height="499.664px" viewBox="0 0 366 499.664" enable-background="new 0 0 366 499.664" xml:space="preserve">
<g>
	<g>
		<defs>
			<rect id="SVGID_1_" x="7.5" y="151.548" width="353" height="224.024"/>
		</defs>
		<clipPath id="SVGID_2_">
			<use xlink:href="#SVGID_1_"  overflow="visible"/>
		</clipPath>
	</g>
</g>
<path fill="#071B23" d="M78.299,211.006h-0.726c-9.565,0-17.314,7.81-17.314,17.314v75.377c0,9.505,7.749,17.313,17.314,17.313
	h0.726c9.565,0,17.313-7.809,17.313-17.313V228.32C95.613,218.816,87.797,211.006,78.299,211.006L78.299,211.006z M78.299,211.006"
	/>
<path fill="#071B23" d="M103.899,332.756c0,8.778,7.145,15.86,15.93,15.86h17.003v40.743c0,9.563,7.75,17.313,17.329,17.313h0.712
	c9.579,0,17.329-7.81,17.329-17.313v-40.743h23.783v40.743c0,9.563,7.81,17.313,17.314,17.313h0.727
	c9.564,0,17.313-7.81,17.313-17.313v-40.743h17.011c8.718,0,15.922-7.082,15.922-15.86V213.799H103.899V332.756z M103.899,332.756"
	/>
<path fill="#071B23" d="M224.015,141.622l13.5-20.878c0.848-1.271,0.484-3.08-0.847-3.935c-1.333-0.916-3.088-0.545-3.937,0.855
	l-14.044,21.544c-10.474-4.298-22.217-6.712-34.567-6.712c-12.418,0-24.147,2.414-34.628,6.712L135.5,117.664
	c-0.84-1.4-2.648-1.771-3.981-0.855c-1.339,0.855-1.71,2.664-0.854,3.935l13.5,20.878c-24.336,11.934-40.803,34.454-40.803,60.243
	c0,1.573,0.121,3.14,0.242,4.721h160.971c0.121-1.581,0.242-3.148,0.242-4.721C264.817,176.076,248.351,153.556,224.015,141.622
	L224.015,141.622z M146.769,178.929c-4.291,0-7.75-3.458-7.75-7.749c0-4.313,3.459-7.688,7.75-7.688
	c4.291,0,7.749,3.375,7.749,7.688C154.517,175.47,151.059,178.929,146.769,178.929L146.769,178.929z M221.411,178.929
	c-4.298,0-7.748-3.458-7.748-7.749c0-4.313,3.45-7.688,7.748-7.688s7.749,3.375,7.749,7.688
	C229.16,175.47,225.709,178.929,221.411,178.929L221.411,178.929z M221.411,178.929"/>
<path fill="#071B23" d="M290.606,211.006h-0.727c-9.564,0-17.314,7.81-17.314,17.314v75.377c0,9.505,7.811,17.313,17.314,17.313
	h0.727c9.565,0,17.313-7.809,17.313-17.313V228.32C307.92,218.816,300.111,211.006,290.606,211.006L290.606,211.006z
	 M290.606,211.006"/>
<rect x="60.259" y="116.332" fill="none" width="245.481" height="294.457"/>
</svg>
