<?xml version="1.0" encoding="utf-8"?>
<!-- Generator: Adobe Illustrator 16.0.0, SVG Export Plug-In . SVG Version: 6.00 Build 0)  -->
<!DOCTYPE svg PUBLIC "-//W3C//DTD SVG 1.1//EN" "http://www.w3.org/Graphics/SVG/1.1/DTD/svg11.dtd">
<svg version="1.1" xmlns="http://www.w3.org/2000/svg" xmlns:xlink="http://www.w3.org/1999/xlink" x="0px" y="0px" width="640px"
	 height="1080px" viewBox="0 0 640 1080" enable-background="new 0 0 640 1080" xml:space="preserve">
<g id="Layer_3">
</g>
<g id="normal" display="none">
	<path display="inline" fill="#D4123A" stroke="#D4123A" stroke-miterlimit="10" d="M-24.5-44.5v1154h690v-1154H-24.5z
		 M320.031,620.632c-73.972,0-133.937-59.966-133.937-133.938c0-73.972,59.965-133.938,133.937-133.938
		c73.973,0,133.938,59.965,133.938,133.938C453.969,560.666,394.004,620.632,320.031,620.632z"/>
	
		<circle display="inline" fill="#A00E31" stroke="#D4123A" stroke-width="5" stroke-miterlimit="10" cx="154" cy="924.992" r="149.209"/>
	
		<circle display="inline" fill="#A00E31" stroke="#D4123A" stroke-width="5" stroke-miterlimit="10" cx="360.37" cy="1003.299" r="70.903"/>
	
		<circle display="inline" fill="#A00E31" stroke="#D4123A" stroke-width="5" stroke-miterlimit="10" cx="375.364" cy="845.911" r="85.897"/>
	
		<circle display="inline" fill="#A00E31" stroke="#D4123A" stroke-width="5" stroke-miterlimit="10" cx="403.931" cy="868.567" r="49.027"/>
	<path display="inline" fill="#A00E31" stroke="#D4123A" stroke-width="5" stroke-miterlimit="10" d="M5.213,932.1
		c0,47.477,38.489,85.966,85.965,85.966s85.965-38.489,85.965-85.966c0-47.475-38.489-85.963-85.965-85.963
		S5.213,884.625,5.213,932.1z"/>
	
		<circle display="inline" fill="#A00E31" stroke="#D4123A" stroke-width="5" stroke-miterlimit="10" cx="30.095" cy="1048.346" r="25.119"/>
	
		<circle display="inline" fill="#A00E31" stroke="#D4123A" stroke-width="5" stroke-miterlimit="10" cx="54.731" cy="728.196" r="44.436"/>
	
		<circle display="inline" fill="#A00E31" stroke="#D4123A" stroke-width="5" stroke-miterlimit="10" cx="520.905" cy="711.206" r="111.753"/>
	
		<circle display="inline" fill="#A00E31" stroke="#D4123A" stroke-width="5" stroke-miterlimit="10" cx="532.725" cy="971.75" r="102.889"/>
	
		<circle display="inline" fill="#A00E31" stroke="#D4123A" stroke-width="5" stroke-miterlimit="10" cx="569.944" cy="1008.408" r="49.484"/>
	
		<circle display="inline" fill="#A00E31" stroke="#D4123A" stroke-width="5" stroke-miterlimit="10" cx="86.773" cy="704.586" r="81.983"/>
	
		<circle display="inline" fill="#A00E31" stroke="#D4123A" stroke-width="5" stroke-miterlimit="10" cx="269.957" cy="782.439" r="33.681"/>
	
		<circle display="inline" fill="#A00E31" stroke="#D4123A" stroke-width="5" stroke-miterlimit="10" cx="580.244" cy="843.512" r="33.681"/>
	
		<circle display="inline" fill="#A00E31" stroke="#D4123A" stroke-width="5" stroke-miterlimit="10" cx="464.994" cy="767.664" r="33.681"/>
	
		<circle display="inline" fill="#A00E31" stroke="#D4123A" stroke-width="5" stroke-miterlimit="10" cx="269.956" cy="734.173" r="13.097"/>
	
		<circle display="inline" fill="#A00E31" stroke="#D4123A" stroke-width="5" stroke-miterlimit="10" cx="40.441" cy="594.296" r="35.457"/>
	
		<circle display="inline" fill="#A00E31" stroke="#D4123A" stroke-width="5" stroke-miterlimit="10" cx="505.407" cy="222.369" r="25.828"/>
	
		<circle display="inline" fill="#A00E31" stroke="#D4123A" stroke-width="5" stroke-miterlimit="10" cx="505.408" cy="259.381" r="10.042"/>
	
		<circle display="inline" fill="#A00E31" stroke="#D4123A" stroke-width="5" stroke-miterlimit="10" cx="120.256" cy="362.811" r="10.042"/>
	
		<circle display="inline" fill="#A00E31" stroke="#D4123A" stroke-width="5" stroke-miterlimit="10" cx="531.017" cy="441.615" r="15.832"/>
	<path display="inline" fill="#A00E31" stroke="#D4123A" stroke-width="5" stroke-miterlimit="10" d="M149.919,208.162
		c0-16.385-13.279-29.667-29.664-29.667s-29.663,13.282-29.663,29.667c0,16.382,13.278,29.663,29.663,29.663
		S149.919,224.544,149.919,208.162z"/>
	<linearGradient id="SVGID_1_" gradientUnits="userSpaceOnUse" x1="320" y1="1080" x2="319.9999" y2="1.0005">
		<stop  offset="0" style="stop-color:#344952;stop-opacity:0.5"/>
		<stop  offset="1" style="stop-color:#344952;stop-opacity:0"/>
	</linearGradient>
	<path display="inline" fill="url(#SVGID_1_)" d="M-10,1v1079h660V1H-10z M320.031,620.632
		c-73.972,0-133.937-59.966-133.937-133.938c0-73.972,59.965-133.938,133.937-133.938c73.973,0,133.938,59.965,133.938,133.938
		C453.969,560.666,394.004,620.632,320.031,620.632z"/>
	
		<circle display="inline" fill="none" stroke="#D4123A" stroke-width="5" stroke-miterlimit="10" cx="320.032" cy="486.694" r="133.937"/>
</g>
<g id="Layer_5">
	<g>
		<defs>
			<polygon id="SVGID_7_" points="1149,538.965 911,622.442 911,351 1149,351 			"/>
		</defs>
		<clipPath id="SVGID_2_">
			<use xlink:href="#SVGID_7_"  overflow="visible"/>
		</clipPath>
		<path clip-path="url(#SVGID_2_)" fill="#888888" stroke="#D4123A" stroke-miterlimit="10" d="M-113.5-44.5v1154h1489v-1154H-113.5
			z M887.5,538.965l-513,83.478V350.5h513V538.965z"/>
		<linearGradient id="SVGID_3_" gradientUnits="userSpaceOnUse" x1="619" y1="1080" x2="618.9999" y2="1.0005">
			<stop  offset="0" style="stop-color:#344952;stop-opacity:0.5"/>
			<stop  offset="1" style="stop-color:#344952;stop-opacity:0"/>
		</linearGradient>
		<path clip-path="url(#SVGID_2_)" fill="url(#SVGID_3_)" d="M-93,1v1079h1424V1H-93z M887,538.965l-514,83.478V351h514V538.965z"/>
	</g>
	<g>
		<defs>
			<circle id="SVGID_10_" cx="320.032" cy="486.694" r="133.937"/>
		</defs>
		<clipPath id="SVGID_4_">
			<use xlink:href="#SVGID_10_"  overflow="visible"/>
		</clipPath>
		<path clip-path="url(#SVGID_4_)" fill="#D4123A" stroke="#D4123A" stroke-miterlimit="10" d="M-978.5-44.5v1154h1644v-1154H-978.5
			z M-157.366,620.632c-176.192,0-319.021-59.966-319.021-133.938c0-73.972,142.829-133.938,319.021-133.938
			c176.194,0,319.023,59.965,319.023,133.938C161.657,560.666,18.828,620.632-157.366,620.632z"/>
		<linearGradient id="SVGID_5_" gradientUnits="userSpaceOnUse" x1="-157" y1="1080" x2="-157" y2="1.0005">
			<stop  offset="0" style="stop-color:#344952;stop-opacity:0.5"/>
			<stop  offset="1" style="stop-color:#344952;stop-opacity:0"/>
		</linearGradient>
		<path clip-path="url(#SVGID_4_)" fill="url(#SVGID_5_)" d="M-943,1v1079H629V1H-943z M-157.366,620.632
			c-176.192,0-319.021-59.966-319.021-133.938c0-73.972,142.829-133.938,319.021-133.938c176.194,0,319.023,59.965,319.023,133.938
			C161.657,560.666,18.828,620.632-157.366,620.632z"/>
	</g>
	<circle fill="none" stroke="#D4123A" stroke-width="5" stroke-miterlimit="10" cx="320.032" cy="486.694" r="133.937"/>
</g>
<g id="bigger" display="none">
	
		<circle display="inline" fill="#A00E31" stroke="#D4123A" stroke-width="5" stroke-miterlimit="10" cx="154" cy="924.992" r="149.209"/>
	
		<circle display="inline" fill="#A00E31" stroke="#D4123A" stroke-width="5" stroke-miterlimit="10" cx="360.37" cy="1003.299" r="70.903"/>
	
		<circle display="inline" fill="#A00E31" stroke="#D4123A" stroke-width="5" stroke-miterlimit="10" cx="375.364" cy="845.911" r="85.897"/>
	
		<circle display="inline" fill="#A00E31" stroke="#D4123A" stroke-width="5" stroke-miterlimit="10" cx="403.931" cy="868.567" r="49.027"/>
	<path display="inline" fill="#A00E31" stroke="#D4123A" stroke-width="5" stroke-miterlimit="10" d="M5.213,932.1
		c0,47.477,38.489,85.966,85.965,85.966s85.965-38.489,85.965-85.966c0-47.475-38.489-85.963-85.965-85.963
		S5.213,884.625,5.213,932.1z"/>
	
		<circle display="inline" fill="#A00E31" stroke="#D4123A" stroke-width="5" stroke-miterlimit="10" cx="30.095" cy="1048.346" r="25.119"/>
	
		<circle display="inline" fill="#A00E31" stroke="#D4123A" stroke-width="5" stroke-miterlimit="10" cx="520.905" cy="711.206" r="111.753"/>
	
		<circle display="inline" fill="#A00E31" stroke="#D4123A" stroke-width="5" stroke-miterlimit="10" cx="532.725" cy="971.75" r="102.889"/>
	
		<circle display="inline" fill="#A00E31" stroke="#D4123A" stroke-width="5" stroke-miterlimit="10" cx="569.944" cy="1008.408" r="49.484"/>
	
		<circle display="inline" fill="#A00E31" stroke="#D4123A" stroke-width="5" stroke-miterlimit="10" cx="86.773" cy="704.586" r="81.983"/>
	
		<circle display="inline" fill="#A00E31" stroke="#D4123A" stroke-width="5" stroke-miterlimit="10" cx="269.957" cy="782.439" r="33.681"/>
	
		<circle display="inline" fill="#A00E31" stroke="#D4123A" stroke-width="5" stroke-miterlimit="10" cx="580.244" cy="843.512" r="33.681"/>
	
		<circle display="inline" fill="#A00E31" stroke="#D4123A" stroke-width="5" stroke-miterlimit="10" cx="464.994" cy="767.664" r="33.681"/>
	
		<circle display="inline" fill="#A00E31" stroke="#D4123A" stroke-width="5" stroke-miterlimit="10" cx="269.956" cy="734.173" r="13.097"/>
	
		<circle display="inline" fill="#A00E31" stroke="#D4123A" stroke-width="5" stroke-miterlimit="10" cx="40.441" cy="594.296" r="35.457"/>
	
		<circle display="inline" fill="#A00E31" stroke="#D4123A" stroke-width="5" stroke-miterlimit="10" cx="505.407" cy="222.369" r="25.828"/>
	
		<circle display="inline" fill="#A00E31" stroke="#D4123A" stroke-width="5" stroke-miterlimit="10" cx="505.408" cy="259.381" r="10.042"/>
	
		<circle display="inline" fill="#A00E31" stroke="#D4123A" stroke-width="5" stroke-miterlimit="10" cx="120.256" cy="362.811" r="10.042"/>
	
		<circle display="inline" fill="#A00E31" stroke="#D4123A" stroke-width="5" stroke-miterlimit="10" cx="531.017" cy="441.615" r="15.832"/>
	<path display="inline" fill="#A00E31" stroke="#D4123A" stroke-width="5" stroke-miterlimit="10" d="M149.919,208.162
		c0-16.385-13.279-29.667-29.664-29.667s-29.663,13.282-29.663,29.667c0,16.382,13.278,29.663,29.663,29.663
		S149.919,224.544,149.919,208.162z"/>
</g>
<g id="Layer_2" display="none">
	
		<circle display="inline" fill="#A00E31" stroke="#D4123A" stroke-width="5" stroke-miterlimit="10" cx="320.032" cy="478.194" r="133.937"/>
</g>
</svg>
