<?xml version="1.0" encoding="utf-8"?>
<!-- Generator: Adobe Illustrator 16.0.0, SVG Export Plug-In . SVG Version: 6.00 Build 0)  -->
<!DOCTYPE svg PUBLIC "-//W3C//DTD SVG 1.1//EN" "http://www.w3.org/Graphics/SVG/1.1/DTD/svg11.dtd">
<svg version="1.1" xmlns="http://www.w3.org/2000/svg" xmlns:xlink="http://www.w3.org/1999/xlink" x="0px" y="0px" width="640px"
	 height="1080px" viewBox="0 0 640 1080" enable-background="new 0 0 640 1080" xml:space="preserve">
<g id="Layer_3">
</g>
<g id="normal" display="none">
	<path display="inline" fill="#26CC9F" stroke="#D4123A" stroke-miterlimit="10" d="M-28.5-44.5v1154h690v-1154H-28.5z
		 M321.081,622.442L178.014,350.5h286.135L321.081,622.442z"/>
	<polygon display="inline" fill="#1D9973" stroke="#26CC9F" stroke-width="5" stroke-miterlimit="10" points="45.922,1077.5 
		183.948,838.434 321.974,1077.5 	"/>
	<polygon display="inline" fill="#1D9973" stroke="#26CC9F" stroke-width="5" stroke-miterlimit="10" points="364.396,1007.5 
		323.179,1078.891 281.961,1007.5 	"/>
	<polygon display="inline" fill="#1D9973" stroke="#26CC9F" stroke-width="5" stroke-miterlimit="10" points="266.123,838.5 
		224.906,909.89 183.688,838.5 	"/>
	<polygon display="inline" fill="#1D9973" stroke="#26CC9F" stroke-width="5" stroke-miterlimit="10" points="225.937,909.5 
		314.681,755.791 403.426,909.5 	"/>
	<polygon display="inline" fill="#1D9973" stroke="#26CC9F" stroke-width="5" stroke-miterlimit="10" points="492.652,1078.5 
		563.217,956.278 633.782,1078.5 	"/>
	<polygon display="inline" fill="#1D9973" stroke="#26CC9F" stroke-width="5" stroke-miterlimit="10" points="589.696,910.5 
		541.947,993.202 494.198,910.5 	"/>
	<polygon display="inline" fill="#1D9973" stroke="#26CC9F" stroke-width="5" stroke-miterlimit="10" points="6.431,838.5 
		95.175,684.791 183.919,838.5 	"/>
	<polygon display="inline" fill="#1D9973" stroke="#26CC9F" stroke-width="5" stroke-miterlimit="10" points="94.601,686.5 
		154.759,582.303 214.918,686.5 	"/>
	<polygon display="inline" fill="#1D9973" stroke="#26CC9F" stroke-width="5" stroke-miterlimit="10" points="183.689,838.5 
		224.391,768.001 265.094,838.5 	"/>
	<polygon display="inline" fill="#1D9973" stroke="#26CC9F" stroke-width="5" stroke-miterlimit="10" points="502.387,751.5 
		543.089,681.002 583.791,751.5 	"/>
	<polygon display="inline" fill="#1D9973" stroke="#26CC9F" stroke-width="5" stroke-miterlimit="10" points="502.387,454.5 
		528.465,409.333 554.541,454.5 	"/>
	<polygon display="inline" fill="#1D9973" stroke="#26CC9F" stroke-width="5" stroke-miterlimit="10" points="337.986,266.5 
		364.064,221.333 390.141,266.5 	"/>
	<polygon display="inline" fill="#1D9973" stroke="#26CC9F" stroke-width="5" stroke-miterlimit="10" points="377.841,199.5 
		364.801,222.083 351.764,199.5 	"/>
	<polygon display="inline" fill="#1D9973" stroke="#26CC9F" stroke-width="5" stroke-miterlimit="10" points="150.874,329.5 
		134.677,357.553 118.48,329.5 	"/>
	<polygon display="inline" fill="#1D9973" stroke="#26CC9F" stroke-width="5" stroke-miterlimit="10" points="214.916,611.5 
		231.112,583.447 247.309,611.5 	"/>
	<polygon display="inline" fill="#1D9973" stroke="#26CC9F" stroke-width="5" stroke-miterlimit="10" points="338.667,909.5 
		282.302,1007.126 225.938,909.5 	"/>
	<polygon display="inline" fill="#1D9973" stroke="#26CC9F" stroke-width="5" stroke-miterlimit="10" points="452.554,909.5 
		396.189,1007.126 339.823,909.5 	"/>
	<polygon display="inline" fill="#1D9973" stroke="#26CC9F" stroke-width="5" stroke-miterlimit="10" points="599.503,582.5 
		543.139,680.125 486.773,582.5 	"/>
	<polygon display="inline" fill="#1D9973" stroke="#26CC9F" stroke-width="5" stroke-miterlimit="10" points="452.792,910.5 
		543.103,754.077 633.413,910.5 	"/>
	<polygon display="inline" fill="#1D9973" stroke="#26CC9F" stroke-width="5" stroke-miterlimit="10" points="337.057,716.5 
		314.278,755.954 291.5,716.5 	"/>
	<linearGradient id="SVGID_1_" gradientUnits="userSpaceOnUse" x1="321" y1="1080" x2="320.9999" y2="1.0005">
		<stop  offset="0" style="stop-color:#344952;stop-opacity:0.5"/>
		<stop  offset="1" style="stop-color:#344952;stop-opacity:0"/>
	</linearGradient>
	<path display="inline" fill="url(#SVGID_1_)" d="M-9,1v1079h660V1H-9z M321.081,622.942L178.014,351h286.135L321.081,622.942z"/>
	<polygon display="inline" fill="none" stroke="#26CC9F" stroke-width="5" stroke-miterlimit="10" points="464.148,350.5 
		321.081,622.442 178.014,350.5 	"/>
</g>
<g id="Layer_5">
	<g>
		<defs>
			<polygon id="SVGID_7_" points="1849,538.965 1611,622.442 1611,351 1849,351 			"/>
		</defs>
		<clipPath id="SVGID_2_">
			<use xlink:href="#SVGID_7_"  overflow="visible"/>
		</clipPath>
		<path clip-path="url(#SVGID_2_)" fill="#888888" stroke="#D4123A" stroke-miterlimit="10" d="M586.5-44.5v1154h1489v-1154H586.5z
			 M1587.5,538.965l-513,83.478V350.5h513V538.965z"/>
		<linearGradient id="SVGID_3_" gradientUnits="userSpaceOnUse" x1="1319" y1="1080" x2="1319" y2="1.0005">
			<stop  offset="0" style="stop-color:#344952;stop-opacity:0.5"/>
			<stop  offset="1" style="stop-color:#344952;stop-opacity:0"/>
		</linearGradient>
		<path clip-path="url(#SVGID_2_)" fill="url(#SVGID_3_)" d="M607,1v1079h1424V1H607z M1587,538.965l-514,83.478V351h514V538.965z"
			/>
	</g>
	<g>
		<defs>
			<circle id="SVGID_10_" cx="1020.032" cy="486.694" r="133.937"/>
		</defs>
		<clipPath id="SVGID_4_">
			<use xlink:href="#SVGID_10_"  overflow="visible"/>
		</clipPath>
		<path clip-path="url(#SVGID_4_)" fill="#D4123A" stroke="#D4123A" stroke-miterlimit="10" d="M-278.5-44.5v1154h1644v-1154H-278.5
			z M542.634,620.632c-176.192,0-319.021-59.966-319.021-133.938c0-73.972,142.829-133.938,319.021-133.938
			c176.194,0,319.023,59.965,319.023,133.938C861.657,560.666,718.828,620.632,542.634,620.632z"/>
		<linearGradient id="SVGID_5_" gradientUnits="userSpaceOnUse" x1="543" y1="1080" x2="542.9999" y2="1.0005">
			<stop  offset="0" style="stop-color:#344952;stop-opacity:0.5"/>
			<stop  offset="1" style="stop-color:#344952;stop-opacity:0"/>
		</linearGradient>
		<path clip-path="url(#SVGID_4_)" fill="url(#SVGID_5_)" d="M-243,1v1079h1572V1H-243z M542.634,620.632
			c-176.192,0-319.021-59.966-319.021-133.938c0-73.972,142.829-133.938,319.021-133.938c176.194,0,319.023,59.965,319.023,133.938
			C861.657,560.666,718.828,620.632,542.634,620.632z"/>
	</g>
	<g>
		<defs>
			<polygon id="SVGID_13_" points="464.148,351 321.081,622.942 178.014,351 			"/>
		</defs>
		<clipPath id="SVGID_6_">
			<use xlink:href="#SVGID_13_"  overflow="visible"/>
		</clipPath>
		<path clip-path="url(#SVGID_6_)" fill="#26CC9F" stroke="#D4123A" stroke-miterlimit="10" d="M-742.5-44.5v1154h1266v-1154H-742.5
			z M-101.74,622.442L-364.134,350.5h524.788L-101.74,622.442z"/>
		<linearGradient id="SVGID_8_" gradientUnits="userSpaceOnUse" x1="-100.9995" y1="1080" x2="-100.9996" y2="1.0005">
			<stop  offset="0" style="stop-color:#344952;stop-opacity:0.5"/>
			<stop  offset="1" style="stop-color:#344952;stop-opacity:0"/>
		</linearGradient>
		<path clip-path="url(#SVGID_6_)" fill="url(#SVGID_8_)" d="M-706,1v1079H504V1H-706z M-101.74,622.942L-364.134,351h524.788
			L-101.74,622.942z"/>
	</g>
	<polygon fill="none" stroke="#26CC9F" stroke-width="5" stroke-miterlimit="10" points="464.148,350.5 321.081,622.442 
		178.014,350.5 	"/>
</g>
<g id="bigger" display="none">
	<polygon display="inline" fill="#1D9973" stroke="#26CC9F" stroke-width="5" stroke-miterlimit="10" points="45.922,1077.5 
		183.948,838.434 321.974,1077.5 	"/>
	<polygon display="inline" fill="#1D9973" stroke="#26CC9F" stroke-width="5" stroke-miterlimit="10" points="364.396,1007.5 
		323.179,1078.891 281.961,1007.5 	"/>
	<polygon display="inline" fill="#1D9973" stroke="#26CC9F" stroke-width="5" stroke-miterlimit="10" points="266.123,838.5 
		224.906,909.89 183.688,838.5 	"/>
	<polygon display="inline" fill="#1D9973" stroke="#26CC9F" stroke-width="5" stroke-miterlimit="10" points="225.937,909.5 
		314.681,755.791 403.426,909.5 	"/>
	<polygon display="inline" fill="#1D9973" stroke="#26CC9F" stroke-width="5" stroke-miterlimit="10" points="492.652,1078.5 
		563.217,956.278 633.782,1078.5 	"/>
	<polygon display="inline" fill="#1D9973" stroke="#26CC9F" stroke-width="5" stroke-miterlimit="10" points="589.696,910.5 
		541.947,993.202 494.198,910.5 	"/>
	<polygon display="inline" fill="#1D9973" stroke="#26CC9F" stroke-width="5" stroke-miterlimit="10" points="6.431,838.5 
		95.175,684.791 183.919,838.5 	"/>
	<polygon display="inline" fill="#1D9973" stroke="#26CC9F" stroke-width="5" stroke-miterlimit="10" points="94.601,686.5 
		154.759,582.303 214.918,686.5 	"/>
	<polygon display="inline" fill="#1D9973" stroke="#26CC9F" stroke-width="5" stroke-miterlimit="10" points="183.689,838.5 
		224.391,768.001 265.094,838.5 	"/>
	<polygon display="inline" fill="#1D9973" stroke="#26CC9F" stroke-width="5" stroke-miterlimit="10" points="502.387,751.5 
		543.089,681.002 583.791,751.5 	"/>
	<polygon display="inline" fill="#1D9973" stroke="#26CC9F" stroke-width="5" stroke-miterlimit="10" points="502.387,454.5 
		528.465,409.333 554.541,454.5 	"/>
	<polygon display="inline" fill="#1D9973" stroke="#26CC9F" stroke-width="5" stroke-miterlimit="10" points="337.986,266.5 
		364.064,221.333 390.141,266.5 	"/>
	<polygon display="inline" fill="#1D9973" stroke="#26CC9F" stroke-width="5" stroke-miterlimit="10" points="377.841,199.5 
		364.801,222.083 351.764,199.5 	"/>
	<polygon display="inline" fill="#1D9973" stroke="#26CC9F" stroke-width="5" stroke-miterlimit="10" points="150.874,329.5 
		134.677,357.553 118.48,329.5 	"/>
	<polygon display="inline" fill="#1D9973" stroke="#26CC9F" stroke-width="5" stroke-miterlimit="10" points="214.916,611.5 
		231.112,583.447 247.309,611.5 	"/>
	<polygon display="inline" fill="#1D9973" stroke="#26CC9F" stroke-width="5" stroke-miterlimit="10" points="338.667,909.5 
		282.302,1007.126 225.938,909.5 	"/>
	<polygon display="inline" fill="#1D9973" stroke="#26CC9F" stroke-width="5" stroke-miterlimit="10" points="452.554,909.5 
		396.189,1007.126 339.823,909.5 	"/>
	<polygon display="inline" fill="#1D9973" stroke="#26CC9F" stroke-width="5" stroke-miterlimit="10" points="599.503,582.5 
		543.139,680.125 486.773,582.5 	"/>
	<polygon display="inline" fill="#1D9973" stroke="#26CC9F" stroke-width="5" stroke-miterlimit="10" points="452.792,910.5 
		543.103,754.077 633.413,910.5 	"/>
	<polygon display="inline" fill="#1D9973" stroke="#26CC9F" stroke-width="5" stroke-miterlimit="10" points="337.057,716.5 
		314.278,755.954 291.5,716.5 	"/>
</g>
<g id="Layer_2" display="none">
	<polygon display="inline" fill="#1D9973" stroke="#26CC9F" stroke-width="5" stroke-miterlimit="10" points="497.148,348.5 
		331.831,582.303 166.514,348.5 	"/>
</g>
</svg>
