<?xml version="1.0" encoding="utf-8"?>
<!-- Generator: Adobe Illustrator 16.0.0, SVG Export Plug-In . SVG Version: 6.00 Build 0)  -->
<!DOCTYPE svg PUBLIC "-//W3C//DTD SVG 1.1//EN" "http://www.w3.org/Graphics/SVG/1.1/DTD/svg11.dtd">
<svg version="1.1" id="Layer_1" xmlns="http://www.w3.org/2000/svg" xmlns:xlink="http://www.w3.org/1999/xlink" x="0px" y="0px"
	 width="366px" height="499.664px" viewBox="0 0 366 499.664" enable-background="new 0 0 366 499.664" xml:space="preserve">
<g>
	<path fill="#081C24" d="M74.069,240.322c5.471,0,6.725,0.305,9.803,1.521l-0.912,5.736c-0.038,0-3.724-0.646-7.637-0.646
		c-3.191,0-4.521-0.152-5.737,7.599c-0.988,6.231-0.494,7.523,3.344,7.523c3.989,0,7.789-0.342,7.789-0.342l-0.912,5.736
		c-2.508,0.988-4.598,1.33-10.221,1.216c-6.991-0.113-8.814-6.041-7.371-15.388C63.583,244.425,66.508,240.322,74.069,240.322z"/>
	<path fill="#081C24" d="M96.945,240.436c6.573,0,11.322,2.204,9.271,15.236c-1.938,12.271-6.877,12.918-13.716,12.918
		c-6.839,0-11.322-2.166-9.309-14.818C85.243,240.74,90.562,240.436,96.945,240.436z M93.525,261.979
		c3.268,0,4.37-1.368,5.319-7.257c1.026-6.459,0.532-7.675-2.925-7.675c-3.344,0-4.293,0.874-5.357,7.675
		C89.65,260.535,89.802,261.979,93.525,261.979z"/>
	<path fill="#081C24" d="M113.096,240.626h10.258l-0.114,15.615l4.787-15.615h10.449l-1.406,27.812h-7.257l0.76-15.16l-4.788,15.16
		h-8.625l-0.038-15.16l-3.952,15.16h-7.447L113.096,240.626z"/>
	<path fill="#081C24" d="M142.927,240.626h7.371l-4.407,27.812h-7.371L142.927,240.626z"/>
	<path fill="#081C24" d="M153.643,240.626h7.447l5.699,14.399l2.242-14.399h7.371l-4.408,27.812h-7.371l-5.775-14.02l-2.204,14.02
		h-7.409L153.643,240.626z"/>
	<path fill="#081C24" d="M188.259,240.322c6.041,0,6.421,0.076,11.322,1.482l-0.911,5.585c-0.229,0-4.294-0.836-9.119-0.836
		c-3.533,0-4.408,1.71-5.396,7.902c-0.988,6.231-0.95,7.409,2.394,7.409c2.355,0,3.002-1.747,3.002-1.747l0.455-2.85h-1.861
		l0.723-4.56c1.861-0.912,4.293-0.95,6.801-0.95c0.797,0,1.672,0.038,2.584,0.114l-2.66,16.565h-5.205l-1.786-1.861
		c-1.292,1.405-1.976,1.861-5.015,2.052c-7.941,0.493-8.359-7.865-6.801-15.769C178.532,244.007,180.698,240.322,188.259,240.322z"
		/>
	<path fill="#081C24" d="M209.578,261.713c1.482,0.151,5.852,0.418,9.385,0.418c1.634,0,2.318-0.418,2.508-1.559l0.076-0.607
		c0.189-1.102-0.076-1.672-1.748-1.672h-2.66c-7.256,0-6.959-6.455-6.725-8.245l0.418-3.191c0.76-5.509,4.521-6.345,8.777-6.459
		c5.623-0.151,8.549,0.229,11.208,1.254l-0.912,5.737c-2.394-0.266-6.192-0.38-8.7-0.38c-2.053,0-2.813,0.076-3.078,1.672
		l-0.076,0.418c-0.189,1.178-0.037,1.823,2.014,1.823h2.813c5.774,0,6.459,5.016,6.078,8.055l-0.076,2.394
		c-0.266,7.144-5.66,7.371-9.422,7.371c-5.498,0-7.182,0-10.791-1.292L209.578,261.713z"/>
	<path fill="#081C24" d="M245.828,240.436c6.572,0,11.322,2.204,9.271,15.236c-1.938,12.271-6.877,12.918-13.716,12.918
		c-6.84,0-11.322-2.166-9.309-14.818C234.125,240.74,239.445,240.436,245.828,240.436z M242.408,261.979
		c3.268,0,4.369-1.368,5.319-7.257c1.026-6.459,0.532-7.675-2.925-7.675c-3.344,0-4.294,0.874-5.357,7.675
		C238.533,260.535,238.686,261.979,242.408,261.979z"/>
	<path fill="#081C24" d="M271.136,240.436c6.573,0,11.322,2.204,9.271,15.236c-1.938,12.271-6.877,12.918-13.717,12.918
		c-6.838,0-11.322-2.166-9.309-14.818C259.434,240.74,264.752,240.436,271.136,240.436z M267.716,261.979
		c3.268,0,4.37-1.368,5.319-7.257c1.025-6.459,0.532-7.675-2.926-7.675c-3.344,0-4.293,0.874-5.357,7.675
		C263.841,260.535,263.992,261.979,267.716,261.979z"/>
	<path fill="#081C24" d="M285.234,240.626h7.447l5.699,14.399l2.242-14.399h7.37l-4.407,27.812h-7.371l-5.775-14.02l-2.203,14.02
		h-7.408L285.234,240.626z"/>
</g>
</svg>
