<?xml version="1.0" encoding="utf-8"?>
<!-- Generator: Adobe Illustrator 16.0.0, SVG Export Plug-In . SVG Version: 6.00 Build 0)  -->
<!DOCTYPE svg PUBLIC "-//W3C//DTD SVG 1.1//EN" "http://www.w3.org/Graphics/SVG/1.1/DTD/svg11.dtd">
<svg version="1.1" id="Layer_1" xmlns="http://www.w3.org/2000/svg" xmlns:xlink="http://www.w3.org/1999/xlink" x="0px" y="0px"
	 width="465.166px" height="132.666px" viewBox="650.167 0 465.166 132.666" enable-background="new 650.167 0 465.166 132.666"
	 xml:space="preserve">
<g>
	<path fill="#D4123A" d="M662.484,81.334V62.925v-4.013c0-2.785,0.528-5.405,1.589-7.858c1.058-2.45,2.758-4.598,5.099-6.437
		c2.341-1.839,5.292-3.286,8.861-4.347c3.565-1.058,7.857-1.588,12.874-1.588c9.918,0,17.137,1.923,21.65,5.768
		s6.771,8.668,6.771,14.462v4.013h-14.045v-1.672c0-1.113-0.225-2.257-0.668-3.428c-0.447-1.17-1.229-2.257-2.341-3.26
		c-1.115-1.003-2.591-1.81-4.431-2.424c-1.839-0.611-4.153-0.92-6.938-0.92c-5.575,0-9.337,1.145-11.286,3.428
		c-1.951,2.286-2.926,5.044-2.926,8.276v18.409"/>
	<path fill="#26CC9F" d="M662.484,81.334v19.209v7.857c0,2.007,0.36,4.209,1.087,6.604c0.724,2.397,2.145,4.598,4.264,6.604
		c2.115,2.007,5.016,3.679,8.693,5.016c3.678,1.338,8.469,2.007,14.379,2.007c5.906,0,10.699-0.669,14.377-2.007
		c3.679-1.337,6.576-3.009,8.694-5.016c2.116-2.006,3.537-4.206,4.264-6.604c0.724-2.396,1.087-4.598,1.087-6.604v-4.849h-14.045
		c0,4.013-1.002,7.105-3.009,9.279s-5.797,3.26-11.368,3.26c-5.463,0-9.196-1.028-11.202-3.093c-2.007-2.061-3.01-5.209-3.01-9.446
		V81.334"/>
	<polyline fill="#26CC9F" points="735.711,81.334 735.711,127.293 749.922,127.293 749.922,81.334 	"/>
	<path fill="#D4123A" d="M735.711,81.334V62.925V59.08c0-1.225,0.222-2.98,0.668-5.266c0.444-2.283,1.615-4.541,3.512-6.771
		c1.894-2.228,4.736-4.151,8.526-5.768c3.788-1.614,9.028-2.424,15.716-2.424c1.894,0,3.537-0.026,4.932-0.084
		c1.393-0.055,2.869,0.029,4.431,0.251l-3.177,12.205c-1.338,0-2.453,0.029-3.344,0.084c-0.893,0.057-1.951,0.083-3.176,0.083
		c-3.01,0-5.434,0.392-7.273,1.17c-1.839,0.781-3.26,1.701-4.264,2.758c-1.002,1.061-1.646,2.174-1.922,3.344
		c-0.279,1.17-0.418,2.257-0.418,3.26v1.505v17.907"/>
	<polyline fill="#D4123A" points="785.533,81.334 785.533,40.02 799.577,40.02 799.577,81.334 	"/>
	<polyline fill="#26CC9F" points="785.533,81.334 785.533,127.293 799.577,127.293 799.577,81.334 	"/>
	<rect x="785.533" y="6.248" fill="#D4123A" width="14.044" height="16.886"/>
	<path fill="#26CC9F" d="M829.441,81.334c-0.316,0.106-0.64,0.215-0.943,0.316c-4.013,1.45-7.105,3.902-9.278,7.356
		c-2.174,3.456-3.261,7.302-3.261,11.536v7.857c0,2.007,0.36,4.209,1.087,6.604c0.724,2.397,2.145,4.598,4.264,6.604
		c2.115,2.007,5.016,3.679,8.693,5.016c3.678,1.338,8.469,2.007,14.379,2.007c5.906,0,10.699-0.669,14.377-2.007
		c3.679-1.337,6.576-3.009,8.694-5.016c2.116-2.006,3.537-4.206,4.264-6.604c0.724-2.396,1.087-4.598,1.087-6.604v-4.849V81.334
		H829.441z M858.758,103.552c0,4.013-1.002,7.105-3.009,9.279s-5.797,3.26-11.368,3.26c-5.463,0-9.196-1.028-11.202-3.093
		c-2.007-2.061-3.01-5.209-3.01-9.446c0-2.115,0.418-3.871,1.254-5.267c0.836-1.392,1.756-2.533,2.759-3.427
		c1.225-1.003,2.508-1.782,3.846-2.341c1.781-0.669,3.678-1.338,5.684-2.006c1.672-0.557,3.482-1.197,5.434-1.923
		c1.949-0.724,3.762-1.364,5.434-1.923c0.779-0.222,1.615-0.611,2.508-1.17c0.892-0.557,1.447-1.393,1.672-2.508V103.552z"/>
	<path fill="#D4123A" d="M829.441,81.334c1.774-0.596,3.735-1.267,5.911-2.024c2.563-0.891,5.042-1.756,7.44-2.592
		c2.396-0.836,4.485-1.588,6.27-2.257c1.782-0.669,2.897-1.058,3.344-1.17c0.444-0.223,1.029-0.528,1.755-0.92
		c0.725-0.389,1.422-0.975,2.09-1.755c0.67-0.779,1.254-1.672,1.756-2.676c0.502-1.003,0.752-2.173,0.752-3.511v-3.176
		c0-1.113-0.225-2.257-0.668-3.428c-0.447-1.17-1.229-2.257-2.341-3.26c-1.115-1.003-2.591-1.81-4.431-2.424
		c-1.839-0.611-4.153-0.92-6.938-0.92c-5.575,0-9.337,1.145-11.286,3.428c-1.951,2.286-2.926,5.044-2.926,8.276h-14.211v-4.013
		c0-2.785,0.528-5.405,1.589-7.858c1.058-2.45,2.758-4.598,5.099-6.437c2.341-1.839,5.292-3.286,8.861-4.347
		c3.565-1.058,7.857-1.588,12.874-1.588c9.807,0,16.995,1.923,21.566,5.768c4.569,3.845,6.855,8.668,6.855,14.462v8.025v14.396"/>
	<path fill="#26CC9F" d="M899.885,81.334v22.72v3.01c0,1.228,0.223,2.982,0.668,5.266c0.445,2.286,1.645,4.543,3.596,6.771
		c1.948,2.231,4.819,4.153,8.609,5.769c3.788,1.616,9.029,2.424,15.717,2.424v-12.539h-0.502c-3.01,0-5.434-0.36-7.273-1.087
		c-1.838-0.724-3.26-1.644-4.263-2.759c-1.003-1.112-1.646-2.257-1.923-3.427c-0.279-1.171-0.418-2.258-0.418-3.261v-1.505V81.334"
		/>
	<polyline fill="#D4123A" points="899.885,81.334 899.885,50.553 889.185,50.553 889.185,38.683 899.885,38.683 899.885,16.446 
		914.096,16.446 914.096,38.683 928.475,38.683 928.475,50.553 914.096,50.553 914.096,81.334 	"/>
	<polyline fill="#D4123A" points="942.183,81.334 942.183,40.02 956.227,40.02 956.227,81.334 	"/>
	<rect x="942.183" y="6.248" fill="#D4123A" width="14.044" height="16.886"/>
	<polyline fill="#26CC9F" points="942.183,81.334 942.183,127.293 956.227,127.293 956.227,81.334 	"/>
	<polyline fill="#D4123A" points="972.609,81.334 972.609,40.522 986.653,40.522 986.653,81.334 	"/>
	<path fill="#26CC9F" d="M1015.243,81.334v12.521v12.539c0,1.896-0.113,3.427-0.335,4.598c-0.225,1.17-0.81,1.98-1.755,2.424
		c-0.949,0.447-2.37,0.502-4.264,0.167c-1.896-0.334-4.514-1.058-7.857-2.173c-1.451-0.557-3.039-1.113-4.766-1.672
		c-1.729-0.557-3.289-1.309-4.682-2.257c-1.395-0.946-2.564-2.174-3.511-3.679c-0.948-1.505-1.421-3.37-1.421-5.601v-1.003V81.334
		h-14.044v21.55c0,3.121,0.418,5.713,1.254,7.773c0.836,2.064,1.865,3.707,3.093,4.933c1.226,1.228,2.563,2.174,4.013,2.842
		c1.447,0.669,2.843,1.229,4.18,1.672c0.222,0.112,1.029,0.393,2.425,0.836c1.393,0.447,2.479,0.836,3.26,1.171
		c2.896,0.894,5.99,1.923,9.279,3.093c3.286,1.17,6.324,2.257,9.111,3.26c2.676,0.892,5.572,0.975,8.693,0.251
		c3.119-0.726,5.686-2.09,7.691-4.096c1.003-1.003,1.756-2.007,2.257-3.01c0.502-1.003,0.892-2.09,1.171-3.26
		c0.276-1.171,0.418-2.479,0.418-3.93c0-1.56,0-3.398,0-5.517V92.016V81.334H1015.243z"/>
	<polyline fill="#D4123A" points="1015.243,81.334 1015.243,40.522 1029.454,40.522 1029.454,81.334 	"/>
	<path fill="#26CC9F" d="M1046.171,81.334v15.697v7.524v3.845c-0.112,3.791,0.836,7.135,2.843,10.031
		c0.891,1.229,2.006,2.453,3.344,3.679c1.338,1.228,3.035,2.314,5.1,3.26c2.061,0.948,4.484,1.729,7.271,2.341
		c2.785,0.611,6.074,0.92,9.865,0.92c5.125,0,9.362-0.502,12.706-1.505s5.961-2.174,7.858-3.511
		c2.674-1.895,4.652-4.123,5.935-6.688c1.28-2.563,1.923-5.35,1.923-8.359v-4.012h-14.211c0,1.784-0.279,3.456-0.836,5.016
		c-0.56,1.562-1.563,2.899-3.01,4.012c-0.669,0.447-1.839,0.978-3.511,1.589c-1.672,0.614-3.958,0.919-6.854,0.919
		c-2.231,0-4.042-0.167-5.434-0.501c-1.396-0.335-2.537-0.724-3.428-1.171c-1.115-0.443-1.951-0.945-2.508-1.504
		c-0.559-0.557-1.061-1.226-1.505-2.007c-1.003-1.56-1.505-3.678-1.505-6.353v-7.524c0-3.119,1.113-5.739,3.344-7.857
		c2.229-2.116,4.791-3.177,7.691-3.177h12.706c1.56,0,3.063-0.222,4.514-0.669c1.226-0.334,2.618-0.836,4.181-1.504
		c1.344-0.577,2.556-1.417,3.654-2.49"/>
	<path fill="#D4123A" d="M1102.347,53.646c-0.446-2.283-1.617-4.54-3.511-6.771c-1.896-2.229-4.738-4.151-8.527-5.768
		c-3.79-1.614-9.027-2.424-15.715-2.424s-11.928,0.81-15.717,2.424c-3.79,1.617-6.633,3.54-8.526,5.768
		c-1.896,2.231-3.066,4.459-3.511,6.688c-0.447,2.231-0.669,4.013-0.669,5.35v4.18v0.167v18.075h50.134
		c0.176-0.172,0.355-0.335,0.525-0.52c2.674-2.675,4.373-5.183,5.099-7.523c0.724-2.341,1.087-4.457,1.087-6.354v-3.678v-0.167
		v-4.18C1103.016,57.688,1102.792,55.932,1102.347,53.646z M1088.805,63.092v0.167v1.338c0,2.565-0.949,4.765-2.843,6.604
		c-1.896,1.839-4.124,2.759-6.688,2.759h-9.53c-0.559,0-1.337,0.057-2.34,0.167c-1.004,0.112-2.006,0.334-3.01,0.669
		c-1.003,0.334-1.896,0.81-2.675,1.421c-0.781,0.613-1.282,1.421-1.505,2.424V64.597v-1.338v-0.167v-1.839
		c0-0.891,0.168-1.923,0.502-3.093s1.029-2.257,2.09-3.26c1.058-1.003,2.563-1.865,4.514-2.591c1.949-0.724,4.485-1.087,7.607-1.087
		c3.01,0,5.434,0.363,7.272,1.087c1.839,0.726,3.261,1.617,4.264,2.675c1.003,1.061,1.644,2.174,1.923,3.344
		c0.276,1.17,0.418,2.257,0.418,3.26V63.092z"/>
	<line fill="none" x1="972.609" y1="81.334" x2="986.653" y2="81.334"/>
	<line fill="none" x1="785.533" y1="81.334" x2="799.577" y2="81.334"/>
	<line fill="none" x1="1046.171" y1="81.334" x2="1096.305" y2="81.334"/>
	<line fill="none" x1="735.711" y1="81.334" x2="749.922" y2="81.334"/>
	<line fill="none" x1="829.441" y1="81.334" x2="872.803" y2="81.334"/>
	<line fill="none" x1="942.183" y1="81.334" x2="956.227" y2="81.334"/>
	<line fill="none" x1="1015.243" y1="81.334" x2="1029.454" y2="81.334"/>
	<line fill="none" x1="899.885" y1="81.334" x2="914.096" y2="81.334"/>
	<line fill="none" x1="662.484" y1="81.334" x2="676.695" y2="81.334"/>
</g>
</svg>
