<?xml version="1.0" encoding="utf-8"?>
<!-- Generator: Adobe Illustrator 16.0.0, SVG Export Plug-In . SVG Version: 6.00 Build 0)  -->
<!DOCTYPE svg PUBLIC "-//W3C//DTD SVG 1.1//EN" "http://www.w3.org/Graphics/SVG/1.1/DTD/svg11.dtd">
<svg version="1.1" xmlns="http://www.w3.org/2000/svg" xmlns:xlink="http://www.w3.org/1999/xlink" x="0px" y="0px" width="352px"
	 height="352px" viewBox="0 0 352 352" enable-background="new 0 0 352 352" xml:space="preserve">
<g id="Layer_2">
</g>
<g id="Layer_1">
	<polygon fill="#CFCFCF" points="117,92.333 177.001,156.333 208.334,77 	"/>
	<polygon fill="#B8B8B8" points="117,92.333 208.334,77 149,45.666 	"/>
	<polygon fill="#B8B8B8" points="149,46 208.334,77.333 231.667,46 	"/>
	<polygon fill="#A0A0A0" points="177.001,24.833 149,46 231.667,46 	"/>
	<polygon fill="#E7E7E7" points="208.334,76.833 177.001,156.333 261.001,159.666 	"/>
	<polygon fill="#B8B8B8" points="117,92.333 177.001,156.333 93,159.666 	"/>
	<polygon fill="#888888" points="49,121.666 86.334,58.333 117,92.333 93,159.666 	"/>
	<polygon fill="#666666" points="37.667,207 49,121.666 93,159.666 83,229 	"/>
	<polygon fill="#A0A0A0" points="86.334,58.333 149,45.5 117,92.333 	"/>
	<polygon fill="#666666" points="122.334,29.666 86.334,58.333 149,45.5 177.001,24.333 	"/>
	<polygon fill="#666666" points="37.667,109 86.334,58.333 49,121.666 	"/>
	<polygon fill="#666666" points="77,58.333 37.667,109 86.334,58.333 122.334,29.666 	"/>
	<polygon fill="#444444" points="19.667,182.667 49,121.666 37.667,109 	"/>
	<polygon fill="#444444" points="37.667,207 19.667,182.667 49,121.666 	"/>
	<polygon fill="#444444" points="46.333,262.333 37.667,207 19.667,182.667 	"/>
	<polygon fill="#666666" points="82,282 82,229 36.5,207 	"/>
	<polygon fill="#444444" points="46.333,262.333 83.167,282 37.667,207 	"/>
	<polygon fill="#444444" points="99,311.998 83.167,282 46.333,262.333 	"/>
	<polygon fill="#666666" points="144.5,247.332 82,282 82,229 	"/>
	<polygon fill="#888888" points="93,159.666 145.667,247.332 83.167,229 	"/>
	<polygon fill="#666666" points="154.333,311.998 83.167,282 145.667,247.332 	"/>
	<polygon fill="#444444" points="98.667,312 154.667,312 83.167,282.5 	"/>
	<polygon fill="#A0A0A0" points="145.667,247.332 177.001,156.333 93,159.666 	"/>
	<polygon fill="#A0A0A0" points="219.001,255.5 177.001,156.333 145.667,247.332 	"/>
	<polygon fill="#888888" points="154.667,311.5 219.001,255.5 145.667,247.332 	"/>
	<polygon fill="#444444" points="165.667,331.5 154.667,312 98.667,312 	"/>
	<polygon fill="#444444" points="225,314.333 154.667,311.5 165.667,331 	"/>
	<polygon fill="#666666" points="219.001,255.5 225,314.333 154.667,311.5 	"/>
	<polygon fill="#B8B8B8" points="261.001,159.666 219.001,255.5 177.001,156.333 	"/>
	<polygon fill="#B8B8B8" points="231.667,45.5 283.334,92.333 208.334,76.833 	"/>
	<polygon fill="#CFCFCF" points="261.001,159.666 283.334,92.333 208.334,76.833 	"/>
	<polygon fill="#CFCFCF" points="313.335,164.333 283.334,92.333 261.001,159.666 	"/>
	<polygon fill="#A0A0A0" points="231.667,45.5 283.334,92.333 289.001,70.667 	"/>
	<polygon fill="#888888" points="245.834,39.333 231.667,45.5 289.001,70.667 	"/>
	<polygon fill="#666666" points="200.001,24.333 231.667,45.5 245.834,39.333 	"/>
	<polygon fill="#888888" points="176.667,25 199.667,25 231.667,46 	"/>
	<polygon fill="#A0A0A0" points="261.001,159.666 280.167,249.5 219.001,255.5 	"/>
	<polygon fill="#A0A0A0" points="313.335,164.333 280.167,249.5 261.001,159.666 	"/>
	<polygon fill="#A0A0A0" points="283.334,92.333 313.335,164.333 318.167,118.25 	"/>
	<polygon fill="#888888" points="289.001,70.667 318.167,118.25 283.334,92.333 	"/>
	<polygon fill="#888888" points="280.167,249.5 219.001,255.5 225,314.333 	"/>
	<polygon fill="#888888" points="312,164 312,237 279,249.5 	"/>
	<polygon fill="#666666" points="318.167,118.25 330.667,168 313.167,164 	"/>
	<polygon fill="#666666" points="312,237 329.5,168 312,164 	"/>
	<polygon fill="#666666" points="280.167,249.5 276.667,293.5 313.167,237 	"/>
	<polygon fill="#666666" points="225,314.333 276.667,293.5 280.167,249.5 	"/>
	<polygon fill="#444444" points="165.667,331 228.167,321.25 276.667,293.5 225,314.333 	"/>
	<polygon fill="#666666" points="313.167,237 324.667,218 330.667,168 	"/>
	<polygon fill="#444444" points="276.667,293.5 303.167,262.333 313.167,237 	"/>
</g>
<g id="Layer_3">
	<g>
		
			<line fill="none" stroke="#888888" stroke-width="4" stroke-linecap="round" stroke-linejoin="round" x1="208.334" y1="77" x2="177.001" y2="156.333"/>
		
			<line fill="none" stroke="#888888" stroke-width="4" stroke-linecap="round" stroke-linejoin="round" x1="208.28" y1="76.971" x2="208.334" y2="77"/>
		<polyline fill="none" stroke="#888888" stroke-width="4" stroke-linecap="round" stroke-linejoin="round" points="208.28,76.971 
			149,45.666 117,92.333 		"/>
		
			<line fill="none" stroke="#888888" stroke-width="4" stroke-linecap="round" stroke-linejoin="round" x1="208.334" y1="77" x2="208.264" y2="77.011"/>
		
			<line fill="none" stroke="#888888" stroke-width="4" stroke-linecap="round" stroke-linejoin="round" x1="117" y1="92.333" x2="208.264" y2="77.011"/>
		
			<line fill="none" stroke="#888888" stroke-width="4" stroke-linecap="round" stroke-linejoin="round" x1="149" y1="45.5" x2="208.334" y2="76.833"/>
		
			<line fill="none" stroke="#888888" stroke-width="4" stroke-linecap="round" stroke-linejoin="round" x1="177.433" y1="24.5" x2="177.001" y2="24.333"/>
		
			<line fill="none" stroke="#888888" stroke-width="4" stroke-linecap="round" stroke-linejoin="round" x1="231.667" y1="45.5" x2="177.433" y2="24.5"/>
		
			<line fill="none" stroke="#888888" stroke-width="4" stroke-linecap="round" stroke-linejoin="round" x1="149" y1="45.666" x2="231.667" y2="45.5"/>
		
			<line fill="none" stroke="#888888" stroke-width="4" stroke-linecap="round" stroke-linejoin="round" x1="177.001" y1="156.333" x2="208.264" y2="77.011"/>
		
			<line fill="none" stroke="#888888" stroke-width="4" stroke-linecap="round" stroke-linejoin="round" x1="208.28" y1="76.971" x2="208.264" y2="77.011"/>
		
			<line fill="none" stroke="#888888" stroke-width="4" stroke-linecap="round" stroke-linejoin="round" x1="208.334" y1="76.833" x2="208.28" y2="76.971"/>
		
			<line fill="none" stroke="#888888" stroke-width="4" stroke-linecap="round" stroke-linejoin="round" x1="117" y1="92.333" x2="177.001" y2="156.333"/>
		
			<line fill="none" stroke="#888888" stroke-width="4" stroke-linecap="round" stroke-linejoin="round" x1="117" y1="92.333" x2="93" y2="159.666"/>
		
			<line fill="none" stroke="#888888" stroke-width="4" stroke-linecap="round" stroke-linejoin="round" x1="83.011" y1="228.925" x2="93" y2="159.666"/>
		<polyline fill="none" stroke="#888888" stroke-width="4" stroke-linecap="round" stroke-linejoin="round" points="37.667,207 
			83,229 83.011,228.925 		"/>
		
			<line fill="none" stroke="#888888" stroke-width="4" stroke-linecap="round" stroke-linejoin="round" x1="93" y1="159.666" x2="49" y2="121.666"/>
		
			<line fill="none" stroke="#888888" stroke-width="4" stroke-linecap="round" stroke-linejoin="round" x1="149" y1="45.5" x2="117" y2="92.333"/>
		
			<line fill="none" stroke="#888888" stroke-width="4" stroke-linecap="round" stroke-linejoin="round" x1="86.334" y1="58.333" x2="117" y2="92.333"/>
		
			<line fill="none" stroke="#888888" stroke-width="4" stroke-linecap="round" stroke-linejoin="round" x1="122.334" y1="29.666" x2="177.001" y2="24.333"/>
		
			<line fill="none" stroke="#888888" stroke-width="4" stroke-linecap="round" stroke-linejoin="round" x1="177.001" y1="24.333" x2="176.78" y2="24.5"/>
		
			<line fill="none" stroke="#888888" stroke-width="4" stroke-linecap="round" stroke-linejoin="round" x1="149" y1="45.5" x2="176.742" y2="24.529"/>
		
			<line fill="none" stroke="#888888" stroke-width="4" stroke-linecap="round" stroke-linejoin="round" x1="176.742" y1="24.529" x2="176.78" y2="24.5"/>
		
			<line fill="none" stroke="#888888" stroke-width="4" stroke-linecap="round" stroke-linejoin="round" x1="149" y1="45.5" x2="86.334" y2="58.333"/>
		
			<line fill="none" stroke="#888888" stroke-width="4" stroke-linecap="round" stroke-linejoin="round" x1="86.334" y1="58.333" x2="49" y2="121.666"/>
		<polyline fill="none" stroke="#888888" stroke-width="4" stroke-linecap="round" stroke-linejoin="round" points="122.334,29.666 
			77,58.333 37.667,109 		"/>
		
			<line fill="none" stroke="#888888" stroke-width="4" stroke-linecap="round" stroke-linejoin="round" x1="122.334" y1="29.666" x2="86.334" y2="58.333"/>
		
			<line fill="none" stroke="#888888" stroke-width="4" stroke-linecap="round" stroke-linejoin="round" x1="37.667" y1="109" x2="86.334" y2="58.333"/>
		
			<line fill="none" stroke="#888888" stroke-width="4" stroke-linecap="round" stroke-linejoin="round" x1="37.667" y1="109" x2="19.667" y2="182.667"/>
		
			<line fill="none" stroke="#888888" stroke-width="4" stroke-linecap="round" stroke-linejoin="round" x1="37.667" y1="109" x2="49" y2="121.666"/>
		
			<line fill="none" stroke="#888888" stroke-width="4" stroke-linecap="round" stroke-linejoin="round" x1="37.667" y1="207" x2="49" y2="121.666"/>
		
			<line fill="none" stroke="#888888" stroke-width="4" stroke-linecap="round" stroke-linejoin="round" x1="19.667" y1="182.667" x2="49" y2="121.666"/>
		
			<line fill="none" stroke="#888888" stroke-width="4" stroke-linecap="round" stroke-linejoin="round" x1="46.333" y1="262.333" x2="19.667" y2="182.667"/>
		
			<line fill="none" stroke="#888888" stroke-width="4" stroke-linecap="round" stroke-linejoin="round" x1="19.667" y1="182.667" x2="37.667" y2="207"/>
		
			<line fill="none" stroke="#888888" stroke-width="4" stroke-linecap="round" stroke-linejoin="round" x1="83.011" y1="228.925" x2="83.167" y2="229"/>
		
			<line fill="none" stroke="#888888" stroke-width="4" stroke-linecap="round" stroke-linejoin="round" x1="37.667" y1="207" x2="83.011" y2="228.925"/>
		
			<line fill="none" stroke="#888888" stroke-width="4" stroke-linecap="round" stroke-linejoin="round" x1="46.333" y1="262.333" x2="37.667" y2="207"/>
		
			<line fill="none" stroke="#888888" stroke-width="4" stroke-linecap="round" stroke-linejoin="round" x1="37.667" y1="207" x2="83.167" y2="282"/>
		
			<line fill="none" stroke="#888888" stroke-width="4" stroke-linecap="round" stroke-linejoin="round" x1="98.738" y1="311.5" x2="83.167" y2="282"/>
		<polyline fill="none" stroke="#888888" stroke-width="4" stroke-linecap="round" stroke-linejoin="round" points="98.75,311.524 
			99,311.998 46.333,262.333 		"/>
		
			<line fill="none" stroke="#888888" stroke-width="4" stroke-linecap="round" stroke-linejoin="round" x1="98.75" y1="311.524" x2="98.738" y2="311.5"/>
		
			<line fill="none" stroke="#888888" stroke-width="4" stroke-linecap="round" stroke-linejoin="round" x1="46.333" y1="262.333" x2="83.167" y2="282"/>
		
			<line fill="none" stroke="#888888" stroke-width="4" stroke-linecap="round" stroke-linejoin="round" x1="83.167" y1="282" x2="83" y2="229"/>
		
			<line fill="none" stroke="#888888" stroke-width="4" stroke-linecap="round" stroke-linejoin="round" x1="93" y1="159.666" x2="83.167" y2="229"/>
		
			<line fill="none" stroke="#888888" stroke-width="4" stroke-linecap="round" stroke-linejoin="round" x1="145.667" y1="247.332" x2="83.167" y2="229"/>
		
			<line fill="none" stroke="#888888" stroke-width="4" stroke-linecap="round" stroke-linejoin="round" x1="154.243" y1="311.325" x2="145.667" y2="247.332"/>
		
			<line fill="none" stroke="#888888" stroke-width="4" stroke-linecap="round" stroke-linejoin="round" x1="153.152" y1="311.5" x2="83.167" y2="282"/>
		<polyline fill="none" stroke="#888888" stroke-width="4" stroke-linecap="round" stroke-linejoin="round" points="153.152,311.5 
			154.333,311.998 154.267,311.5 		"/>
		
			<line fill="none" stroke="#888888" stroke-width="4" stroke-linecap="round" stroke-linejoin="round" x1="154.267" y1="311.5" x2="154.243" y2="311.325"/>
		
			<line fill="none" stroke="#888888" stroke-width="4" stroke-linecap="round" stroke-linejoin="round" x1="83.167" y1="282" x2="145.667" y2="247.332"/>
		
			<line fill="none" stroke="#888888" stroke-width="4" stroke-linecap="round" stroke-linejoin="round" x1="98.667" y1="311.5" x2="83.167" y2="282"/>
		
			<line fill="none" stroke="#888888" stroke-width="4" stroke-linecap="round" stroke-linejoin="round" x1="83.167" y1="282" x2="154.243" y2="311.325"/>
		
			<line fill="none" stroke="#888888" stroke-width="4" stroke-linecap="round" stroke-linejoin="round" x1="154.667" y1="311.5" x2="154.243" y2="311.325"/>
		
			<line fill="none" stroke="#888888" stroke-width="4" stroke-linecap="round" stroke-linejoin="round" x1="177.001" y1="156.333" x2="93" y2="159.666"/>
		
			<line fill="none" stroke="#888888" stroke-width="4" stroke-linecap="round" stroke-linejoin="round" x1="93" y1="159.666" x2="145.667" y2="247.332"/>
		
			<line fill="none" stroke="#888888" stroke-width="4" stroke-linecap="round" stroke-linejoin="round" x1="177.001" y1="156.333" x2="145.667" y2="247.332"/>
		
			<line fill="none" stroke="#888888" stroke-width="4" stroke-linecap="round" stroke-linejoin="round" x1="154.667" y1="311.5" x2="145.667" y2="247.332"/>
		
			<line fill="none" stroke="#888888" stroke-width="4" stroke-linecap="round" stroke-linejoin="round" x1="219.001" y1="255.5" x2="145.667" y2="247.332"/>
		
			<line fill="none" stroke="#888888" stroke-width="4" stroke-linecap="round" stroke-linejoin="round" x1="98.75" y1="311.524" x2="165.667" y2="331"/>
		
			<line fill="none" stroke="#888888" stroke-width="4" stroke-linecap="round" stroke-linejoin="round" x1="98.75" y1="311.524" x2="98.667" y2="311.5"/>
		
			<line fill="none" stroke="#888888" stroke-width="4" stroke-linecap="round" stroke-linejoin="round" x1="98.738" y1="311.5" x2="154.243" y2="311.325"/>
		
			<line fill="none" stroke="#888888" stroke-width="4" stroke-linecap="round" stroke-linejoin="round" x1="154.667" y1="312" x2="154.667" y2="312"/>
		
			<line fill="none" stroke="#888888" stroke-width="4" stroke-linecap="round" stroke-linejoin="round" x1="98.667" y1="312" x2="98.667" y2="312"/>
		
			<line fill="none" stroke="#888888" stroke-width="4" stroke-linecap="round" stroke-linejoin="round" x1="154.267" y1="311.5" x2="154.267" y2="311.5"/>
		
			<line fill="none" stroke="#888888" stroke-width="4" stroke-linecap="round" stroke-linejoin="round" x1="165.667" y1="331" x2="154.667" y2="311.5"/>
		
			<line fill="none" stroke="#888888" stroke-width="4" stroke-linecap="round" stroke-linejoin="round" x1="219.001" y1="255.5" x2="154.667" y2="311.5"/>
		
			<line fill="none" stroke="#888888" stroke-width="4" stroke-linecap="round" stroke-linejoin="round" x1="225" y1="314.333" x2="154.667" y2="311.5"/>
		
			<line fill="none" stroke="#888888" stroke-width="4" stroke-linecap="round" stroke-linejoin="round" x1="261.001" y1="159.666" x2="177.001" y2="156.333"/>
		
			<line fill="none" stroke="#888888" stroke-width="4" stroke-linecap="round" stroke-linejoin="round" x1="219.001" y1="255.5" x2="177.001" y2="156.333"/>
		
			<line fill="none" stroke="#888888" stroke-width="4" stroke-linecap="round" stroke-linejoin="round" x1="208.334" y1="76.833" x2="231.667" y2="45.5"/>
		
			<line fill="none" stroke="#888888" stroke-width="4" stroke-linecap="round" stroke-linejoin="round" x1="208.334" y1="76.833" x2="261.001" y2="159.666"/>
		
			<line fill="none" stroke="#888888" stroke-width="4" stroke-linecap="round" stroke-linejoin="round" x1="208.334" y1="76.833" x2="283.334" y2="92.333"/>
		
			<line fill="none" stroke="#888888" stroke-width="4" stroke-linecap="round" stroke-linejoin="round" x1="261.001" y1="159.666" x2="283.334" y2="92.333"/>
		
			<line fill="none" stroke="#888888" stroke-width="4" stroke-linecap="round" stroke-linejoin="round" x1="283.334" y1="92.333" x2="231.667" y2="45.5"/>
		
			<line fill="none" stroke="#888888" stroke-width="4" stroke-linecap="round" stroke-linejoin="round" x1="289.001" y1="70.667" x2="245.834" y2="39.333"/>
		
			<line fill="none" stroke="#888888" stroke-width="4" stroke-linecap="round" stroke-linejoin="round" x1="231.667" y1="45.5" x2="289.001" y2="70.667"/>
		<polyline fill="none" stroke="#888888" stroke-width="4" stroke-linecap="round" stroke-linejoin="round" points="245.834,39.333 
			200.001,24.333 231.667,45.5 		"/>
		
			<line fill="none" stroke="#888888" stroke-width="4" stroke-linecap="round" stroke-linejoin="round" x1="231.667" y1="45.5" x2="245.834" y2="39.333"/>
		
			<line fill="none" stroke="#888888" stroke-width="4" stroke-linecap="round" stroke-linejoin="round" x1="176.742" y1="24.529" x2="231.667" y2="45.5"/>
		<polyline fill="none" stroke="#888888" stroke-width="4" stroke-linecap="round" stroke-linejoin="round" points="231.667,45.5 
			200.001,24.333 177.433,24.5 		"/>
		<polyline fill="none" stroke="#888888" stroke-width="4" stroke-linecap="round" stroke-linejoin="round" points="176.742,24.529 
			176.667,24.5 176.78,24.5 		"/>
		
			<line fill="none" stroke="#888888" stroke-width="4" stroke-linecap="round" stroke-linejoin="round" x1="177.001" y1="24.333" x2="177.001" y2="24.333"/>
		
			<line fill="none" stroke="#888888" stroke-width="4" stroke-linecap="round" stroke-linejoin="round" x1="261.001" y1="159.666" x2="219.001" y2="255.5"/>
		
			<line fill="none" stroke="#888888" stroke-width="4" stroke-linecap="round" stroke-linejoin="round" x1="280.167" y1="249.5" x2="313.167" y2="164.764"/>
		
			<line fill="none" stroke="#888888" stroke-width="4" stroke-linecap="round" stroke-linejoin="round" x1="313.167" y1="164.764" x2="313.335" y2="164.333"/>
		
			<line fill="none" stroke="#888888" stroke-width="4" stroke-linecap="round" stroke-linejoin="round" x1="313.048" y1="164.308" x2="313.167" y2="164.318"/>
		
			<line fill="none" stroke="#888888" stroke-width="4" stroke-linecap="round" stroke-linejoin="round" x1="261.001" y1="159.666" x2="313.048" y2="164.308"/>
		
			<line fill="none" stroke="#888888" stroke-width="4" stroke-linecap="round" stroke-linejoin="round" x1="313.167" y1="164.318" x2="313.335" y2="164.333"/>
		
			<line fill="none" stroke="#888888" stroke-width="4" stroke-linecap="round" stroke-linejoin="round" x1="261.001" y1="159.666" x2="280.167" y2="249.5"/>
		
			<line fill="none" stroke="#888888" stroke-width="4" stroke-linecap="round" stroke-linejoin="round" x1="318.167" y1="118.25" x2="313.365" y2="164.045"/>
		
			<line fill="none" stroke="#888888" stroke-width="4" stroke-linecap="round" stroke-linejoin="round" x1="313.335" y1="164.333" x2="313.365" y2="164.045"/>
		
			<line fill="none" stroke="#888888" stroke-width="4" stroke-linecap="round" stroke-linejoin="round" x1="283.334" y1="92.333" x2="313.173" y2="163.944"/>
		
			<line fill="none" stroke="#888888" stroke-width="4" stroke-linecap="round" stroke-linejoin="round" x1="313.199" y1="164.008" x2="313.173" y2="163.944"/>
		
			<line fill="none" stroke="#888888" stroke-width="4" stroke-linecap="round" stroke-linejoin="round" x1="313.335" y1="164.333" x2="313.199" y2="164.008"/>
		
			<line fill="none" stroke="#888888" stroke-width="4" stroke-linecap="round" stroke-linejoin="round" x1="318.167" y1="118.25" x2="289.001" y2="70.667"/>
		
			<line fill="none" stroke="#888888" stroke-width="4" stroke-linecap="round" stroke-linejoin="round" x1="283.334" y1="92.333" x2="289.001" y2="70.667"/>
		
			<line fill="none" stroke="#888888" stroke-width="4" stroke-linecap="round" stroke-linejoin="round" x1="283.334" y1="92.333" x2="318.167" y2="118.25"/>
		
			<line fill="none" stroke="#888888" stroke-width="4" stroke-linecap="round" stroke-linejoin="round" x1="219.001" y1="255.5" x2="225" y2="314.333"/>
		
			<line fill="none" stroke="#888888" stroke-width="4" stroke-linecap="round" stroke-linejoin="round" x1="280.167" y1="249.5" x2="219.001" y2="255.5"/>
		
			<line fill="none" stroke="#888888" stroke-width="4" stroke-linecap="round" stroke-linejoin="round" x1="280.167" y1="249.5" x2="313.048" y2="164.308"/>
		
			<line fill="none" stroke="#888888" stroke-width="4" stroke-linecap="round" stroke-linejoin="round" x1="313.048" y1="164.308" x2="313.167" y2="164"/>
		
			<line fill="none" stroke="#888888" stroke-width="4" stroke-linecap="round" stroke-linejoin="round" x1="318.167" y1="118.25" x2="313.173" y2="163.944"/>
		
			<line fill="none" stroke="#888888" stroke-width="4" stroke-linecap="round" stroke-linejoin="round" x1="330.667" y1="168" x2="318.167" y2="118.25"/>
		
			<line fill="none" stroke="#888888" stroke-width="4" stroke-linecap="round" stroke-linejoin="round" x1="313.167" y1="164" x2="313.173" y2="163.944"/>
		
			<line fill="none" stroke="#888888" stroke-width="4" stroke-linecap="round" stroke-linejoin="round" x1="313.335" y1="164.333" x2="313.335" y2="164.333"/>
		
			<line fill="none" stroke="#888888" stroke-width="4" stroke-linecap="round" stroke-linejoin="round" x1="312.667" y1="164" x2="312.667" y2="164"/>
		
			<line fill="none" stroke="#888888" stroke-width="4" stroke-linecap="round" stroke-linejoin="round" x1="309.667" y1="237" x2="313.167" y2="164.764"/>
		
			<line fill="none" stroke="#888888" stroke-width="4" stroke-linecap="round" stroke-linejoin="round" x1="330.667" y1="168" x2="313.365" y2="164.045"/>
		
			<line fill="none" stroke="#888888" stroke-width="4" stroke-linecap="round" stroke-linejoin="round" x1="313.365" y1="164.045" x2="313.199" y2="164.008"/>
		
			<line fill="none" stroke="#888888" stroke-width="4" stroke-linecap="round" stroke-linejoin="round" x1="313.167" y1="164" x2="313.199" y2="164.008"/>
		
			<line fill="none" stroke="#888888" stroke-width="4" stroke-linecap="round" stroke-linejoin="round" x1="280.167" y1="249.5" x2="313.167" y2="237"/>
		
			<line fill="none" stroke="#888888" stroke-width="4" stroke-linecap="round" stroke-linejoin="round" x1="280.167" y1="249.5" x2="225" y2="314.333"/>
		
			<line fill="none" stroke="#888888" stroke-width="4" stroke-linecap="round" stroke-linejoin="round" x1="280.167" y1="249.5" x2="276.667" y2="293.5"/>
		<polyline fill="none" stroke="#888888" stroke-width="4" stroke-linecap="round" stroke-linejoin="round" points="165.667,331 
			228.167,321.25 276.667,293.5 		"/>
		
			<line fill="none" stroke="#888888" stroke-width="4" stroke-linecap="round" stroke-linejoin="round" x1="225" y1="314.333" x2="165.667" y2="331"/>
		
			<line fill="none" stroke="#888888" stroke-width="4" stroke-linecap="round" stroke-linejoin="round" x1="225" y1="314.333" x2="276.667" y2="293.5"/>
		<polyline fill="none" stroke="#888888" stroke-width="4" stroke-linecap="round" stroke-linejoin="round" points="313.167,237 
			324.667,218 330.667,168 		"/>
		
			<line fill="none" stroke="#888888" stroke-width="4" stroke-linecap="round" stroke-linejoin="round" x1="313.167" y1="237" x2="330.667" y2="168"/>
		<polyline fill="none" stroke="#888888" stroke-width="4" stroke-linecap="round" stroke-linejoin="round" points="313.167,237 
			303.167,262.333 276.667,293.5 		"/>
		
			<line fill="none" stroke="#888888" stroke-width="4" stroke-linecap="round" stroke-linejoin="round" x1="313.167" y1="237" x2="276.667" y2="293.5"/>
	</g>
</g>
</svg>
