<?xml version="1.0" encoding="utf-8"?>
<!-- Generator: Adobe Illustrator 16.0.0, SVG Export Plug-In . SVG Version: 6.00 Build 0)  -->
<!DOCTYPE svg PUBLIC "-//W3C//DTD SVG 1.1//EN" "http://www.w3.org/Graphics/SVG/1.1/DTD/svg11.dtd">
<svg version="1.1" xmlns="http://www.w3.org/2000/svg" xmlns:xlink="http://www.w3.org/1999/xlink" x="0px" y="0px" width="352px"
	 height="352px" viewBox="0 0 352 352" enable-background="new 0 0 352 352" xml:space="preserve">
<g id="Layer_2">
</g>
<g id="Layer_1">
	<polygon fill="#EEA0B0" points="116.667,92.333 176.667,156.333 208,77 	"/>
	<polygon fill="#E57189" points="116.667,92.333 208,77 148.667,45.666 	"/>
	<polygon fill="#E57189" points="148.667,46 208,77.333 231.333,46 	"/>
	<polygon fill="#DD4161" points="176.667,24.833 148.667,46 231.333,46 	"/>
	<polygon fill="#F6D0D8" points="208,76.833 176.667,156.333 260.667,159.666 	"/>
	<polygon fill="#E57189" points="116.667,92.333 176.667,156.333 92.667,159.666 	"/>
	<polygon fill="#D4123A" points="48.667,121.666 86,58.333 116.667,92.333 92.667,159.666 	"/>
	<polygon fill="#9F0E2C" points="37.333,207 48.667,121.666 92.667,159.666 82.667,229 	"/>
	<polygon fill="#DD4161" points="86,58.333 148.667,45.5 116.667,92.333 	"/>
	<polygon fill="#9F0E2C" points="122,29.666 86,58.333 148.667,45.5 176.667,24.333 	"/>
	<polygon fill="#9F0E2C" points="37.333,109 86,58.333 48.667,121.666 	"/>
	<polygon fill="#9F0E2C" points="76.667,58.333 37.333,109 86,58.333 122,29.666 	"/>
	<polygon fill="#6A091D" points="19.333,182.667 48.667,121.666 37.333,109 	"/>
	<polygon fill="#6A091D" points="37.333,207 19.333,182.667 48.667,121.666 	"/>
	<polygon fill="#6A091D" points="46,262.333 37.333,207 19.333,182.667 	"/>
	<polygon fill="#9F0E2C" points="82,282 82,229 36.5,207 	"/>
	<polygon fill="#6A091D" points="46,262.333 82.833,282 37.333,207 	"/>
	<polygon fill="#6A091D" points="98.667,311.998 82.833,282 46,262.333 	"/>
	<polygon fill="#9F0E2C" points="144.5,247.332 82,282 82,229 	"/>
	<polygon fill="#D4123A" points="92.667,159.666 145.333,247.332 82.833,229 	"/>
	<polygon fill="#9F0E2C" points="154,311.998 82.833,282 145.333,247.332 	"/>
	<polygon fill="#6A091D" points="98.333,312 154.333,312 82.833,282.5 	"/>
	<polygon fill="#DD4161" points="145.333,247.332 176.667,156.333 92.667,159.666 	"/>
	<polygon fill="#DD4161" points="218.667,255.5 176.667,156.333 145.333,247.332 	"/>
	<polygon fill="#D4123A" points="154.333,311.5 218.667,255.5 145.333,247.332 	"/>
	<polygon fill="#6A091D" points="165.333,331.5 154.333,312 98.333,312 	"/>
	<polygon fill="#6A091D" points="224.667,314.333 154.333,311.5 165.333,331 	"/>
	<polygon fill="#9F0E2C" points="218.667,255.5 224.667,314.333 154.333,311.5 	"/>
	<polygon fill="#E57189" points="260.667,159.666 218.667,255.5 176.667,156.333 	"/>
	<polygon fill="#E57189" points="231.333,45.5 283,92.333 208,76.833 	"/>
	<polygon fill="#EEA0B0" points="260.667,159.666 283,92.333 208,76.833 	"/>
	<polygon fill="#EEA0B0" points="313.001,164.333 283,92.333 260.667,159.666 	"/>
	<polygon fill="#DD4161" points="231.333,45.5 283,92.333 288.667,70.667 	"/>
	<polygon fill="#D4123A" points="245.5,39.333 231.333,45.5 288.667,70.667 	"/>
	<polygon fill="#9F0E2C" points="199.667,24.333 231.333,45.5 245.5,39.333 	"/>
	<polygon fill="#D4123A" points="176.333,25 199.333,25 231.333,46 	"/>
	<polygon fill="#DD4161" points="260.667,159.666 279.833,249.5 218.667,255.5 	"/>
	<polygon fill="#DD4161" points="313.001,164.333 279.833,249.5 260.667,159.666 	"/>
	<polygon fill="#DD4161" points="283,92.333 313.001,164.333 317.833,118.25 	"/>
	<polygon fill="#D4123A" points="288.667,70.667 317.833,118.25 283,92.333 	"/>
	<polygon fill="#D4123A" points="279.833,249.5 218.667,255.5 224.667,314.333 	"/>
	<polygon fill="#D4123A" points="312,164 312,237 279,249.5 	"/>
	<polygon fill="#9F0E2C" points="317.833,118.25 330.333,168 312.833,164 	"/>
	<polygon fill="#9F0E2C" points="312,237 329.5,168 312,164 	"/>
	<polygon fill="#9F0E2C" points="279.833,249.5 276.333,293.5 312.833,237 	"/>
	<polygon fill="#9F0E2C" points="224.667,314.333 276.333,293.5 279.833,249.5 	"/>
	<polygon fill="#6A091D" points="165.333,331 227.833,321.25 276.333,293.5 224.667,314.333 	"/>
	<polygon fill="#9F0E2C" points="312.833,237 324.333,218 330.333,168 	"/>
	<polygon fill="#6A091D" points="276.333,293.5 302.833,262.333 312.833,237 	"/>
</g>
<g id="Layer_3">
	<g>
		
			<line fill="none" stroke="#D4123A" stroke-width="4" stroke-linecap="round" stroke-linejoin="round" x1="208" y1="77" x2="176.667" y2="156.333"/>
		
			<line fill="none" stroke="#D4123A" stroke-width="4" stroke-linecap="round" stroke-linejoin="round" x1="207.947" y1="76.971" x2="208" y2="77"/>
		<polyline fill="none" stroke="#D4123A" stroke-width="4" stroke-linecap="round" stroke-linejoin="round" points="207.947,76.971 
			148.667,45.666 116.667,92.333 		"/>
		
			<line fill="none" stroke="#D4123A" stroke-width="4" stroke-linecap="round" stroke-linejoin="round" x1="208" y1="77" x2="207.93" y2="77.011"/>
		
			<line fill="none" stroke="#D4123A" stroke-width="4" stroke-linecap="round" stroke-linejoin="round" x1="116.667" y1="92.333" x2="207.93" y2="77.011"/>
		
			<line fill="none" stroke="#D4123A" stroke-width="4" stroke-linecap="round" stroke-linejoin="round" x1="148.667" y1="45.5" x2="208" y2="76.833"/>
		
			<line fill="none" stroke="#D4123A" stroke-width="4" stroke-linecap="round" stroke-linejoin="round" x1="177.099" y1="24.5" x2="176.667" y2="24.333"/>
		
			<line fill="none" stroke="#D4123A" stroke-width="4" stroke-linecap="round" stroke-linejoin="round" x1="231.333" y1="45.5" x2="177.099" y2="24.5"/>
		
			<line fill="none" stroke="#D4123A" stroke-width="4" stroke-linecap="round" stroke-linejoin="round" x1="148.667" y1="45.666" x2="231.333" y2="45.5"/>
		
			<line fill="none" stroke="#D4123A" stroke-width="4" stroke-linecap="round" stroke-linejoin="round" x1="176.667" y1="156.333" x2="207.93" y2="77.011"/>
		
			<line fill="none" stroke="#D4123A" stroke-width="4" stroke-linecap="round" stroke-linejoin="round" x1="207.947" y1="76.971" x2="207.93" y2="77.011"/>
		
			<line fill="none" stroke="#D4123A" stroke-width="4" stroke-linecap="round" stroke-linejoin="round" x1="208" y1="76.833" x2="207.947" y2="76.971"/>
		
			<line fill="none" stroke="#D4123A" stroke-width="4" stroke-linecap="round" stroke-linejoin="round" x1="116.667" y1="92.333" x2="176.667" y2="156.333"/>
		
			<line fill="none" stroke="#D4123A" stroke-width="4" stroke-linecap="round" stroke-linejoin="round" x1="116.667" y1="92.333" x2="92.667" y2="159.666"/>
		
			<line fill="none" stroke="#D4123A" stroke-width="4" stroke-linecap="round" stroke-linejoin="round" x1="82.678" y1="228.925" x2="92.667" y2="159.666"/>
		<polyline fill="none" stroke="#D4123A" stroke-width="4" stroke-linecap="round" stroke-linejoin="round" points="37.333,207 
			82.667,229 82.678,228.925 		"/>
		
			<line fill="none" stroke="#D4123A" stroke-width="4" stroke-linecap="round" stroke-linejoin="round" x1="92.667" y1="159.666" x2="48.667" y2="121.666"/>
		
			<line fill="none" stroke="#D4123A" stroke-width="4" stroke-linecap="round" stroke-linejoin="round" x1="148.667" y1="45.5" x2="116.667" y2="92.333"/>
		
			<line fill="none" stroke="#D4123A" stroke-width="4" stroke-linecap="round" stroke-linejoin="round" x1="86" y1="58.333" x2="116.667" y2="92.333"/>
		
			<line fill="none" stroke="#D4123A" stroke-width="4" stroke-linecap="round" stroke-linejoin="round" x1="122" y1="29.666" x2="176.667" y2="24.333"/>
		
			<line fill="none" stroke="#D4123A" stroke-width="4" stroke-linecap="round" stroke-linejoin="round" x1="176.667" y1="24.333" x2="176.447" y2="24.5"/>
		
			<line fill="none" stroke="#D4123A" stroke-width="4" stroke-linecap="round" stroke-linejoin="round" x1="148.667" y1="45.5" x2="176.409" y2="24.529"/>
		
			<line fill="none" stroke="#D4123A" stroke-width="4" stroke-linecap="round" stroke-linejoin="round" x1="176.409" y1="24.529" x2="176.447" y2="24.5"/>
		
			<line fill="none" stroke="#D4123A" stroke-width="4" stroke-linecap="round" stroke-linejoin="round" x1="148.667" y1="45.5" x2="86" y2="58.333"/>
		
			<line fill="none" stroke="#D4123A" stroke-width="4" stroke-linecap="round" stroke-linejoin="round" x1="86" y1="58.333" x2="48.667" y2="121.666"/>
		<polyline fill="none" stroke="#D4123A" stroke-width="4" stroke-linecap="round" stroke-linejoin="round" points="122,29.666 
			76.667,58.333 37.333,109 		"/>
		
			<line fill="none" stroke="#D4123A" stroke-width="4" stroke-linecap="round" stroke-linejoin="round" x1="122" y1="29.666" x2="86" y2="58.333"/>
		
			<line fill="none" stroke="#D4123A" stroke-width="4" stroke-linecap="round" stroke-linejoin="round" x1="37.333" y1="109" x2="86" y2="58.333"/>
		
			<line fill="none" stroke="#D4123A" stroke-width="4" stroke-linecap="round" stroke-linejoin="round" x1="37.333" y1="109" x2="19.333" y2="182.667"/>
		
			<line fill="none" stroke="#D4123A" stroke-width="4" stroke-linecap="round" stroke-linejoin="round" x1="37.333" y1="109" x2="48.667" y2="121.666"/>
		
			<line fill="none" stroke="#D4123A" stroke-width="4" stroke-linecap="round" stroke-linejoin="round" x1="37.333" y1="207" x2="48.667" y2="121.666"/>
		
			<line fill="none" stroke="#D4123A" stroke-width="4" stroke-linecap="round" stroke-linejoin="round" x1="19.333" y1="182.667" x2="48.667" y2="121.666"/>
		
			<line fill="none" stroke="#D4123A" stroke-width="4" stroke-linecap="round" stroke-linejoin="round" x1="46" y1="262.333" x2="19.333" y2="182.667"/>
		
			<line fill="none" stroke="#D4123A" stroke-width="4" stroke-linecap="round" stroke-linejoin="round" x1="19.333" y1="182.667" x2="37.333" y2="207"/>
		
			<line fill="none" stroke="#D4123A" stroke-width="4" stroke-linecap="round" stroke-linejoin="round" x1="82.678" y1="228.925" x2="82.833" y2="229"/>
		
			<line fill="none" stroke="#D4123A" stroke-width="4" stroke-linecap="round" stroke-linejoin="round" x1="37.333" y1="207" x2="82.678" y2="228.925"/>
		
			<line fill="none" stroke="#D4123A" stroke-width="4" stroke-linecap="round" stroke-linejoin="round" x1="46" y1="262.333" x2="37.333" y2="207"/>
		
			<line fill="none" stroke="#D4123A" stroke-width="4" stroke-linecap="round" stroke-linejoin="round" x1="37.333" y1="207" x2="82.833" y2="282"/>
		
			<line fill="none" stroke="#D4123A" stroke-width="4" stroke-linecap="round" stroke-linejoin="round" x1="98.404" y1="311.5" x2="82.833" y2="282"/>
		<polyline fill="none" stroke="#D4123A" stroke-width="4" stroke-linecap="round" stroke-linejoin="round" points="98.417,311.524 
			98.667,311.998 46,262.333 		"/>
		
			<line fill="none" stroke="#D4123A" stroke-width="4" stroke-linecap="round" stroke-linejoin="round" x1="98.417" y1="311.524" x2="98.404" y2="311.5"/>
		
			<line fill="none" stroke="#D4123A" stroke-width="4" stroke-linecap="round" stroke-linejoin="round" x1="46" y1="262.333" x2="82.833" y2="282"/>
		
			<line fill="none" stroke="#D4123A" stroke-width="4" stroke-linecap="round" stroke-linejoin="round" x1="82.833" y1="282" x2="82.667" y2="229"/>
		
			<line fill="none" stroke="#D4123A" stroke-width="4" stroke-linecap="round" stroke-linejoin="round" x1="92.667" y1="159.666" x2="82.833" y2="229"/>
		
			<line fill="none" stroke="#D4123A" stroke-width="4" stroke-linecap="round" stroke-linejoin="round" x1="145.333" y1="247.332" x2="82.833" y2="229"/>
		
			<line fill="none" stroke="#D4123A" stroke-width="4" stroke-linecap="round" stroke-linejoin="round" x1="153.91" y1="311.325" x2="145.333" y2="247.332"/>
		
			<line fill="none" stroke="#D4123A" stroke-width="4" stroke-linecap="round" stroke-linejoin="round" x1="152.818" y1="311.5" x2="82.833" y2="282"/>
		<polyline fill="none" stroke="#D4123A" stroke-width="4" stroke-linecap="round" stroke-linejoin="round" points="152.818,311.5 
			154,311.998 153.933,311.5 		"/>
		
			<line fill="none" stroke="#D4123A" stroke-width="4" stroke-linecap="round" stroke-linejoin="round" x1="153.933" y1="311.5" x2="153.91" y2="311.325"/>
		
			<line fill="none" stroke="#D4123A" stroke-width="4" stroke-linecap="round" stroke-linejoin="round" x1="82.833" y1="282" x2="145.333" y2="247.332"/>
		
			<line fill="none" stroke="#D4123A" stroke-width="4" stroke-linecap="round" stroke-linejoin="round" x1="98.333" y1="311.5" x2="82.833" y2="282"/>
		
			<line fill="none" stroke="#D4123A" stroke-width="4" stroke-linecap="round" stroke-linejoin="round" x1="82.833" y1="282" x2="153.91" y2="311.325"/>
		
			<line fill="none" stroke="#D4123A" stroke-width="4" stroke-linecap="round" stroke-linejoin="round" x1="154.333" y1="311.5" x2="153.91" y2="311.325"/>
		
			<line fill="none" stroke="#D4123A" stroke-width="4" stroke-linecap="round" stroke-linejoin="round" x1="176.667" y1="156.333" x2="92.667" y2="159.666"/>
		
			<line fill="none" stroke="#D4123A" stroke-width="4" stroke-linecap="round" stroke-linejoin="round" x1="92.667" y1="159.666" x2="145.333" y2="247.332"/>
		
			<line fill="none" stroke="#D4123A" stroke-width="4" stroke-linecap="round" stroke-linejoin="round" x1="176.667" y1="156.333" x2="145.333" y2="247.332"/>
		
			<line fill="none" stroke="#D4123A" stroke-width="4" stroke-linecap="round" stroke-linejoin="round" x1="154.333" y1="311.5" x2="145.333" y2="247.332"/>
		
			<line fill="none" stroke="#D4123A" stroke-width="4" stroke-linecap="round" stroke-linejoin="round" x1="218.667" y1="255.5" x2="145.333" y2="247.332"/>
		
			<line fill="none" stroke="#D4123A" stroke-width="4" stroke-linecap="round" stroke-linejoin="round" x1="98.417" y1="311.524" x2="165.333" y2="331"/>
		
			<line fill="none" stroke="#D4123A" stroke-width="4" stroke-linecap="round" stroke-linejoin="round" x1="98.417" y1="311.524" x2="98.333" y2="311.5"/>
		
			<line fill="none" stroke="#D4123A" stroke-width="4" stroke-linecap="round" stroke-linejoin="round" x1="98.404" y1="311.5" x2="153.91" y2="311.325"/>
		
			<line fill="none" stroke="#D4123A" stroke-width="4" stroke-linecap="round" stroke-linejoin="round" x1="154.333" y1="312" x2="154.333" y2="312"/>
		
			<line fill="none" stroke="#D4123A" stroke-width="4" stroke-linecap="round" stroke-linejoin="round" x1="98.333" y1="312" x2="98.333" y2="312"/>
		
			<line fill="none" stroke="#D4123A" stroke-width="4" stroke-linecap="round" stroke-linejoin="round" x1="153.933" y1="311.5" x2="153.933" y2="311.5"/>
		
			<line fill="none" stroke="#D4123A" stroke-width="4" stroke-linecap="round" stroke-linejoin="round" x1="165.333" y1="331" x2="154.333" y2="311.5"/>
		
			<line fill="none" stroke="#D4123A" stroke-width="4" stroke-linecap="round" stroke-linejoin="round" x1="218.667" y1="255.5" x2="154.333" y2="311.5"/>
		
			<line fill="none" stroke="#D4123A" stroke-width="4" stroke-linecap="round" stroke-linejoin="round" x1="224.667" y1="314.333" x2="154.333" y2="311.5"/>
		
			<line fill="none" stroke="#D4123A" stroke-width="4" stroke-linecap="round" stroke-linejoin="round" x1="260.667" y1="159.666" x2="176.667" y2="156.333"/>
		
			<line fill="none" stroke="#D4123A" stroke-width="4" stroke-linecap="round" stroke-linejoin="round" x1="218.667" y1="255.5" x2="176.667" y2="156.333"/>
		
			<line fill="none" stroke="#D4123A" stroke-width="4" stroke-linecap="round" stroke-linejoin="round" x1="208" y1="76.833" x2="231.333" y2="45.5"/>
		
			<line fill="none" stroke="#D4123A" stroke-width="4" stroke-linecap="round" stroke-linejoin="round" x1="208" y1="76.833" x2="260.667" y2="159.666"/>
		
			<line fill="none" stroke="#D4123A" stroke-width="4" stroke-linecap="round" stroke-linejoin="round" x1="208" y1="76.833" x2="283" y2="92.333"/>
		
			<line fill="none" stroke="#D4123A" stroke-width="4" stroke-linecap="round" stroke-linejoin="round" x1="260.667" y1="159.666" x2="283" y2="92.333"/>
		
			<line fill="none" stroke="#D4123A" stroke-width="4" stroke-linecap="round" stroke-linejoin="round" x1="283" y1="92.333" x2="231.333" y2="45.5"/>
		
			<line fill="none" stroke="#D4123A" stroke-width="4" stroke-linecap="round" stroke-linejoin="round" x1="288.667" y1="70.667" x2="245.5" y2="39.333"/>
		
			<line fill="none" stroke="#D4123A" stroke-width="4" stroke-linecap="round" stroke-linejoin="round" x1="231.333" y1="45.5" x2="288.667" y2="70.667"/>
		<polyline fill="none" stroke="#D4123A" stroke-width="4" stroke-linecap="round" stroke-linejoin="round" points="245.5,39.333 
			199.667,24.333 231.333,45.5 		"/>
		
			<line fill="none" stroke="#D4123A" stroke-width="4" stroke-linecap="round" stroke-linejoin="round" x1="231.333" y1="45.5" x2="245.5" y2="39.333"/>
		
			<line fill="none" stroke="#D4123A" stroke-width="4" stroke-linecap="round" stroke-linejoin="round" x1="176.409" y1="24.529" x2="231.333" y2="45.5"/>
		<polyline fill="none" stroke="#D4123A" stroke-width="4" stroke-linecap="round" stroke-linejoin="round" points="231.333,45.5 
			199.667,24.333 177.099,24.5 		"/>
		<polyline fill="none" stroke="#D4123A" stroke-width="4" stroke-linecap="round" stroke-linejoin="round" points="176.409,24.529 
			176.333,24.5 176.447,24.5 		"/>
		
			<line fill="none" stroke="#D4123A" stroke-width="4" stroke-linecap="round" stroke-linejoin="round" x1="176.667" y1="24.333" x2="176.667" y2="24.333"/>
		
			<line fill="none" stroke="#D4123A" stroke-width="4" stroke-linecap="round" stroke-linejoin="round" x1="260.667" y1="159.666" x2="218.667" y2="255.5"/>
		
			<line fill="none" stroke="#D4123A" stroke-width="4" stroke-linecap="round" stroke-linejoin="round" x1="279.833" y1="249.5" x2="312.833" y2="164.764"/>
		
			<line fill="none" stroke="#D4123A" stroke-width="4" stroke-linecap="round" stroke-linejoin="round" x1="312.833" y1="164.764" x2="313.001" y2="164.333"/>
		
			<line fill="none" stroke="#D4123A" stroke-width="4" stroke-linecap="round" stroke-linejoin="round" x1="312.714" y1="164.308" x2="312.833" y2="164.318"/>
		
			<line fill="none" stroke="#D4123A" stroke-width="4" stroke-linecap="round" stroke-linejoin="round" x1="260.667" y1="159.666" x2="312.714" y2="164.308"/>
		
			<line fill="none" stroke="#D4123A" stroke-width="4" stroke-linecap="round" stroke-linejoin="round" x1="312.833" y1="164.318" x2="313.001" y2="164.333"/>
		
			<line fill="none" stroke="#D4123A" stroke-width="4" stroke-linecap="round" stroke-linejoin="round" x1="260.667" y1="159.666" x2="279.833" y2="249.5"/>
		
			<line fill="none" stroke="#D4123A" stroke-width="4" stroke-linecap="round" stroke-linejoin="round" x1="317.833" y1="118.25" x2="313.032" y2="164.045"/>
		
			<line fill="none" stroke="#D4123A" stroke-width="4" stroke-linecap="round" stroke-linejoin="round" x1="313.001" y1="164.333" x2="313.032" y2="164.045"/>
		
			<line fill="none" stroke="#D4123A" stroke-width="4" stroke-linecap="round" stroke-linejoin="round" x1="283" y1="92.333" x2="312.839" y2="163.944"/>
		
			<line fill="none" stroke="#D4123A" stroke-width="4" stroke-linecap="round" stroke-linejoin="round" x1="312.866" y1="164.007" x2="312.839" y2="163.944"/>
		
			<line fill="none" stroke="#D4123A" stroke-width="4" stroke-linecap="round" stroke-linejoin="round" x1="313.001" y1="164.333" x2="312.866" y2="164.007"/>
		
			<line fill="none" stroke="#D4123A" stroke-width="4" stroke-linecap="round" stroke-linejoin="round" x1="317.833" y1="118.25" x2="288.667" y2="70.667"/>
		
			<line fill="none" stroke="#D4123A" stroke-width="4" stroke-linecap="round" stroke-linejoin="round" x1="283" y1="92.333" x2="288.667" y2="70.667"/>
		
			<line fill="none" stroke="#D4123A" stroke-width="4" stroke-linecap="round" stroke-linejoin="round" x1="283" y1="92.333" x2="317.833" y2="118.25"/>
		
			<line fill="none" stroke="#D4123A" stroke-width="4" stroke-linecap="round" stroke-linejoin="round" x1="218.667" y1="255.5" x2="224.667" y2="314.333"/>
		
			<line fill="none" stroke="#D4123A" stroke-width="4" stroke-linecap="round" stroke-linejoin="round" x1="279.833" y1="249.5" x2="218.667" y2="255.5"/>
		
			<line fill="none" stroke="#D4123A" stroke-width="4" stroke-linecap="round" stroke-linejoin="round" x1="279.833" y1="249.5" x2="312.714" y2="164.308"/>
		
			<line fill="none" stroke="#D4123A" stroke-width="4" stroke-linecap="round" stroke-linejoin="round" x1="312.714" y1="164.308" x2="312.833" y2="164"/>
		
			<line fill="none" stroke="#D4123A" stroke-width="4" stroke-linecap="round" stroke-linejoin="round" x1="317.833" y1="118.25" x2="312.839" y2="163.944"/>
		
			<line fill="none" stroke="#D4123A" stroke-width="4" stroke-linecap="round" stroke-linejoin="round" x1="330.333" y1="168" x2="317.833" y2="118.25"/>
		
			<line fill="none" stroke="#D4123A" stroke-width="4" stroke-linecap="round" stroke-linejoin="round" x1="312.833" y1="164" x2="312.839" y2="163.944"/>
		
			<line fill="none" stroke="#D4123A" stroke-width="4" stroke-linecap="round" stroke-linejoin="round" x1="313.001" y1="164.333" x2="313.001" y2="164.333"/>
		
			<line fill="none" stroke="#D4123A" stroke-width="4" stroke-linecap="round" stroke-linejoin="round" x1="312.333" y1="164" x2="312.333" y2="164"/>
		
			<line fill="none" stroke="#D4123A" stroke-width="4" stroke-linecap="round" stroke-linejoin="round" x1="309.333" y1="237" x2="312.833" y2="164.764"/>
		
			<line fill="none" stroke="#D4123A" stroke-width="4" stroke-linecap="round" stroke-linejoin="round" x1="330.333" y1="168" x2="313.032" y2="164.045"/>
		
			<line fill="none" stroke="#D4123A" stroke-width="4" stroke-linecap="round" stroke-linejoin="round" x1="313.032" y1="164.045" x2="312.866" y2="164.007"/>
		
			<line fill="none" stroke="#D4123A" stroke-width="4" stroke-linecap="round" stroke-linejoin="round" x1="312.833" y1="164" x2="312.866" y2="164.007"/>
		
			<line fill="none" stroke="#D4123A" stroke-width="4" stroke-linecap="round" stroke-linejoin="round" x1="279.833" y1="249.5" x2="312.833" y2="237"/>
		
			<line fill="none" stroke="#D4123A" stroke-width="4" stroke-linecap="round" stroke-linejoin="round" x1="279.833" y1="249.5" x2="224.667" y2="314.333"/>
		
			<line fill="none" stroke="#D4123A" stroke-width="4" stroke-linecap="round" stroke-linejoin="round" x1="279.833" y1="249.5" x2="276.333" y2="293.5"/>
		<polyline fill="none" stroke="#D4123A" stroke-width="4" stroke-linecap="round" stroke-linejoin="round" points="165.333,331 
			227.833,321.25 276.333,293.5 		"/>
		
			<line fill="none" stroke="#D4123A" stroke-width="4" stroke-linecap="round" stroke-linejoin="round" x1="224.667" y1="314.333" x2="165.333" y2="331"/>
		
			<line fill="none" stroke="#D4123A" stroke-width="4" stroke-linecap="round" stroke-linejoin="round" x1="224.667" y1="314.333" x2="276.333" y2="293.5"/>
		<polyline fill="none" stroke="#D4123A" stroke-width="4" stroke-linecap="round" stroke-linejoin="round" points="312.833,237 
			324.333,218 330.333,168 		"/>
		
			<line fill="none" stroke="#D4123A" stroke-width="4" stroke-linecap="round" stroke-linejoin="round" x1="312.833" y1="237" x2="330.333" y2="168"/>
		<polyline fill="none" stroke="#D4123A" stroke-width="4" stroke-linecap="round" stroke-linejoin="round" points="312.833,237 
			302.833,262.333 276.333,293.5 		"/>
		
			<line fill="none" stroke="#D4123A" stroke-width="4" stroke-linecap="round" stroke-linejoin="round" x1="312.833" y1="237" x2="276.333" y2="293.5"/>
	</g>
</g>
</svg>
