<?xml version="1.0" encoding="utf-8"?>
<!-- Generator: Adobe Illustrator 16.0.0, SVG Export Plug-In . SVG Version: 6.00 Build 0)  -->
<!DOCTYPE svg PUBLIC "-//W3C//DTD SVG 1.1//EN" "http://www.w3.org/Graphics/SVG/1.1/DTD/svg11.dtd">
<svg version="1.1" xmlns="http://www.w3.org/2000/svg" xmlns:xlink="http://www.w3.org/1999/xlink" x="0px" y="0px" width="352px"
	 height="352px" viewBox="0 0 352 352" enable-background="new 0 0 352 352" xml:space="preserve">
<g id="Layer_2">
</g>
<g id="Layer_1">
	<polygon fill="#A8EBD9" points="116.333,92.333 176.334,156.333 207.667,77 	"/>
	<polygon fill="#7DE0C5" points="116.333,92.333 207.667,77 148.333,45.666 	"/>
	<polygon fill="#7DE0C5" points="148.333,46 207.667,77.333 231,46 	"/>
	<polygon fill="#51D6B2" points="176.334,24.833 148.333,46 231,46 	"/>
	<polygon fill="#D4F5EC" points="207.667,76.833 176.334,156.333 260.334,159.666 	"/>
	<polygon fill="#7DE0C5" points="116.333,92.333 176.334,156.333 92.333,159.666 	"/>
	<polygon fill="#26CC9F" points="48.333,121.666 85.667,58.333 116.333,92.333 92.333,159.666 	"/>
	<polygon fill="#1D9977" points="37,207 48.333,121.666 92.333,159.666 82.333,229 	"/>
	<polygon fill="#51D6B2" points="85.667,58.333 148.333,45.5 116.333,92.333 	"/>
	<polygon fill="#1D9977" points="121.667,29.666 85.667,58.333 148.333,45.5 176.334,24.333 	"/>
	<polygon fill="#1D9977" points="37,109 85.667,58.333 48.333,121.666 	"/>
	<polygon fill="#1D9977" points="76.333,58.333 37,109 85.667,58.333 121.667,29.666 	"/>
	<polygon fill="#136650" points="19,182.667 48.333,121.666 37,109 	"/>
	<polygon fill="#136650" points="37,207 19,182.667 48.333,121.666 	"/>
	<polygon fill="#136650" points="45.667,262.333 37,207 19,182.667 	"/>
	<polygon fill="#1D9977" points="82,282 82,229 36.5,207 	"/>
	<polygon fill="#136650" points="45.667,262.333 82.5,282 37,207 	"/>
	<polygon fill="#136650" points="98.333,311.998 82.5,282 45.667,262.333 	"/>
	<polygon fill="#1D9977" points="144.5,247.332 82,282 82,229 	"/>
	<polygon fill="#26CC9F" points="92.333,159.666 145,247.332 82.5,229 	"/>
	<polygon fill="#1D9977" points="153.667,311.998 82.5,282 145,247.332 	"/>
	<polygon fill="#136650" points="98,312 154,312 82.5,282.5 	"/>
	<polygon fill="#51D6B2" points="145,247.332 176.334,156.333 92.333,159.666 	"/>
	<polygon fill="#51D6B2" points="218.334,255.5 176.334,156.333 145,247.332 	"/>
	<polygon fill="#26CC9F" points="154,311.5 218.334,255.5 145,247.332 	"/>
	<polygon fill="#136650" points="165,331.5 154,312 98,312 	"/>
	<polygon fill="#136650" points="224.333,314.333 154,311.5 165,331 	"/>
	<polygon fill="#1D9977" points="218.334,255.5 224.333,314.333 154,311.5 	"/>
	<polygon fill="#7DE0C5" points="260.334,159.666 218.334,255.5 176.334,156.333 	"/>
	<polygon fill="#7DE0C5" points="231,45.5 282.667,92.333 207.667,76.833 	"/>
	<polygon fill="#A8EBD9" points="260.334,159.666 282.667,92.333 207.667,76.833 	"/>
	<polygon fill="#A8EBD9" points="312.668,164.333 282.667,92.333 260.334,159.666 	"/>
	<polygon fill="#51D6B2" points="231,45.5 282.667,92.333 288.334,70.667 	"/>
	<polygon fill="#26CC9F" points="245.167,39.333 231,45.5 288.334,70.667 	"/>
	<polygon fill="#1D9977" points="199.334,24.333 231,45.5 245.167,39.333 	"/>
	<polygon fill="#26CC9F" points="176,25 199,25 231,46 	"/>
	<polygon fill="#51D6B2" points="260.334,159.666 279.5,249.5 218.334,255.5 	"/>
	<polygon fill="#51D6B2" points="312.668,164.333 279.5,249.5 260.334,159.666 	"/>
	<polygon fill="#51D6B2" points="282.667,92.333 312.668,164.333 317.5,118.25 	"/>
	<polygon fill="#26CC9F" points="288.334,70.667 317.5,118.25 282.667,92.333 	"/>
	<polygon fill="#26CC9F" points="279.5,249.5 218.334,255.5 224.333,314.333 	"/>
	<polygon fill="#26CC9F" points="312,164 312,237 279,249.5 	"/>
	<polygon fill="#1D9977" points="317.5,118.25 330,168 312.5,164 	"/>
	<polygon fill="#1D9977" points="312,237 329.5,168 312,164 	"/>
	<polygon fill="#1D9977" points="279.5,249.5 276,293.5 312.5,237 	"/>
	<polygon fill="#1D9977" points="224.333,314.333 276,293.5 279.5,249.5 	"/>
	<polygon fill="#136650" points="165,331 227.5,321.25 276,293.5 224.333,314.333 	"/>
	<polygon fill="#1D9977" points="312.5,237 324,218 330,168 	"/>
	<polygon fill="#136650" points="276,293.5 302.5,262.333 312.5,237 	"/>
</g>
<g id="Layer_3">
	<g>
		
			<line fill="none" stroke="#26CC9F" stroke-width="4" stroke-linecap="round" stroke-linejoin="round" x1="207.667" y1="77" x2="176.334" y2="156.333"/>
		
			<line fill="none" stroke="#26CC9F" stroke-width="4" stroke-linecap="round" stroke-linejoin="round" x1="207.613" y1="76.971" x2="207.667" y2="77"/>
		<polyline fill="none" stroke="#26CC9F" stroke-width="4" stroke-linecap="round" stroke-linejoin="round" points="207.613,76.971 
			148.333,45.666 116.333,92.333 		"/>
		
			<line fill="none" stroke="#26CC9F" stroke-width="4" stroke-linecap="round" stroke-linejoin="round" x1="207.667" y1="77" x2="207.597" y2="77.011"/>
		
			<line fill="none" stroke="#26CC9F" stroke-width="4" stroke-linecap="round" stroke-linejoin="round" x1="116.333" y1="92.333" x2="207.597" y2="77.011"/>
		
			<line fill="none" stroke="#26CC9F" stroke-width="4" stroke-linecap="round" stroke-linejoin="round" x1="148.333" y1="45.5" x2="207.667" y2="76.833"/>
		
			<line fill="none" stroke="#26CC9F" stroke-width="4" stroke-linecap="round" stroke-linejoin="round" x1="176.766" y1="24.5" x2="176.334" y2="24.333"/>
		
			<line fill="none" stroke="#26CC9F" stroke-width="4" stroke-linecap="round" stroke-linejoin="round" x1="231" y1="45.5" x2="176.766" y2="24.5"/>
		
			<line fill="none" stroke="#26CC9F" stroke-width="4" stroke-linecap="round" stroke-linejoin="round" x1="148.333" y1="45.666" x2="231" y2="45.5"/>
		
			<line fill="none" stroke="#26CC9F" stroke-width="4" stroke-linecap="round" stroke-linejoin="round" x1="176.334" y1="156.333" x2="207.597" y2="77.011"/>
		
			<line fill="none" stroke="#26CC9F" stroke-width="4" stroke-linecap="round" stroke-linejoin="round" x1="207.613" y1="76.971" x2="207.597" y2="77.011"/>
		
			<line fill="none" stroke="#26CC9F" stroke-width="4" stroke-linecap="round" stroke-linejoin="round" x1="207.667" y1="76.833" x2="207.613" y2="76.971"/>
		
			<line fill="none" stroke="#26CC9F" stroke-width="4" stroke-linecap="round" stroke-linejoin="round" x1="116.333" y1="92.333" x2="176.334" y2="156.333"/>
		
			<line fill="none" stroke="#26CC9F" stroke-width="4" stroke-linecap="round" stroke-linejoin="round" x1="116.333" y1="92.333" x2="92.333" y2="159.666"/>
		
			<line fill="none" stroke="#26CC9F" stroke-width="4" stroke-linecap="round" stroke-linejoin="round" x1="82.344" y1="228.925" x2="92.333" y2="159.666"/>
		<polyline fill="none" stroke="#26CC9F" stroke-width="4" stroke-linecap="round" stroke-linejoin="round" points="37,207 
			82.333,229 82.344,228.925 		"/>
		
			<line fill="none" stroke="#26CC9F" stroke-width="4" stroke-linecap="round" stroke-linejoin="round" x1="92.333" y1="159.666" x2="48.333" y2="121.666"/>
		
			<line fill="none" stroke="#26CC9F" stroke-width="4" stroke-linecap="round" stroke-linejoin="round" x1="148.333" y1="45.5" x2="116.333" y2="92.333"/>
		
			<line fill="none" stroke="#26CC9F" stroke-width="4" stroke-linecap="round" stroke-linejoin="round" x1="85.667" y1="58.333" x2="116.333" y2="92.333"/>
		
			<line fill="none" stroke="#26CC9F" stroke-width="4" stroke-linecap="round" stroke-linejoin="round" x1="121.667" y1="29.666" x2="176.334" y2="24.333"/>
		
			<line fill="none" stroke="#26CC9F" stroke-width="4" stroke-linecap="round" stroke-linejoin="round" x1="176.334" y1="24.333" x2="176.113" y2="24.5"/>
		
			<line fill="none" stroke="#26CC9F" stroke-width="4" stroke-linecap="round" stroke-linejoin="round" x1="148.333" y1="45.5" x2="176.075" y2="24.529"/>
		
			<line fill="none" stroke="#26CC9F" stroke-width="4" stroke-linecap="round" stroke-linejoin="round" x1="176.075" y1="24.529" x2="176.113" y2="24.5"/>
		
			<line fill="none" stroke="#26CC9F" stroke-width="4" stroke-linecap="round" stroke-linejoin="round" x1="148.333" y1="45.5" x2="85.667" y2="58.333"/>
		
			<line fill="none" stroke="#26CC9F" stroke-width="4" stroke-linecap="round" stroke-linejoin="round" x1="85.667" y1="58.333" x2="48.333" y2="121.666"/>
		<polyline fill="none" stroke="#26CC9F" stroke-width="4" stroke-linecap="round" stroke-linejoin="round" points="121.667,29.666 
			76.333,58.333 37,109 		"/>
		
			<line fill="none" stroke="#26CC9F" stroke-width="4" stroke-linecap="round" stroke-linejoin="round" x1="121.667" y1="29.666" x2="85.667" y2="58.333"/>
		
			<line fill="none" stroke="#26CC9F" stroke-width="4" stroke-linecap="round" stroke-linejoin="round" x1="37" y1="109" x2="85.667" y2="58.333"/>
		
			<line fill="none" stroke="#26CC9F" stroke-width="4" stroke-linecap="round" stroke-linejoin="round" x1="37" y1="109" x2="19" y2="182.667"/>
		
			<line fill="none" stroke="#26CC9F" stroke-width="4" stroke-linecap="round" stroke-linejoin="round" x1="37" y1="109" x2="48.333" y2="121.666"/>
		
			<line fill="none" stroke="#26CC9F" stroke-width="4" stroke-linecap="round" stroke-linejoin="round" x1="37" y1="207" x2="48.333" y2="121.666"/>
		
			<line fill="none" stroke="#26CC9F" stroke-width="4" stroke-linecap="round" stroke-linejoin="round" x1="19" y1="182.667" x2="48.333" y2="121.666"/>
		
			<line fill="none" stroke="#26CC9F" stroke-width="4" stroke-linecap="round" stroke-linejoin="round" x1="45.667" y1="262.333" x2="19" y2="182.667"/>
		
			<line fill="none" stroke="#26CC9F" stroke-width="4" stroke-linecap="round" stroke-linejoin="round" x1="19" y1="182.667" x2="37" y2="207"/>
		
			<line fill="none" stroke="#26CC9F" stroke-width="4" stroke-linecap="round" stroke-linejoin="round" x1="82.344" y1="228.925" x2="82.5" y2="229"/>
		
			<line fill="none" stroke="#26CC9F" stroke-width="4" stroke-linecap="round" stroke-linejoin="round" x1="37" y1="207" x2="82.344" y2="228.925"/>
		
			<line fill="none" stroke="#26CC9F" stroke-width="4" stroke-linecap="round" stroke-linejoin="round" x1="45.667" y1="262.333" x2="37" y2="207"/>
		
			<line fill="none" stroke="#26CC9F" stroke-width="4" stroke-linecap="round" stroke-linejoin="round" x1="37" y1="207" x2="82.5" y2="282"/>
		
			<line fill="none" stroke="#26CC9F" stroke-width="4" stroke-linecap="round" stroke-linejoin="round" x1="98.071" y1="311.5" x2="82.5" y2="282"/>
		<polyline fill="none" stroke="#26CC9F" stroke-width="4" stroke-linecap="round" stroke-linejoin="round" points="98.083,311.524 
			98.333,311.998 45.667,262.333 		"/>
		
			<line fill="none" stroke="#26CC9F" stroke-width="4" stroke-linecap="round" stroke-linejoin="round" x1="98.083" y1="311.524" x2="98.071" y2="311.5"/>
		
			<line fill="none" stroke="#26CC9F" stroke-width="4" stroke-linecap="round" stroke-linejoin="round" x1="45.667" y1="262.333" x2="82.5" y2="282"/>
		
			<line fill="none" stroke="#26CC9F" stroke-width="4" stroke-linecap="round" stroke-linejoin="round" x1="82.5" y1="282" x2="82.333" y2="229"/>
		
			<line fill="none" stroke="#26CC9F" stroke-width="4" stroke-linecap="round" stroke-linejoin="round" x1="92.333" y1="159.666" x2="82.5" y2="229"/>
		
			<line fill="none" stroke="#26CC9F" stroke-width="4" stroke-linecap="round" stroke-linejoin="round" x1="145" y1="247.332" x2="82.5" y2="229"/>
		
			<line fill="none" stroke="#26CC9F" stroke-width="4" stroke-linecap="round" stroke-linejoin="round" x1="153.576" y1="311.325" x2="145" y2="247.332"/>
		
			<line fill="none" stroke="#26CC9F" stroke-width="4" stroke-linecap="round" stroke-linejoin="round" x1="152.485" y1="311.5" x2="82.5" y2="282"/>
		<polyline fill="none" stroke="#26CC9F" stroke-width="4" stroke-linecap="round" stroke-linejoin="round" points="152.485,311.5 
			153.667,311.998 153.6,311.5 		"/>
		
			<line fill="none" stroke="#26CC9F" stroke-width="4" stroke-linecap="round" stroke-linejoin="round" x1="153.6" y1="311.5" x2="153.576" y2="311.325"/>
		
			<line fill="none" stroke="#26CC9F" stroke-width="4" stroke-linecap="round" stroke-linejoin="round" x1="82.5" y1="282" x2="145" y2="247.332"/>
		
			<line fill="none" stroke="#26CC9F" stroke-width="4" stroke-linecap="round" stroke-linejoin="round" x1="98" y1="311.5" x2="82.5" y2="282"/>
		
			<line fill="none" stroke="#26CC9F" stroke-width="4" stroke-linecap="round" stroke-linejoin="round" x1="82.5" y1="282" x2="153.576" y2="311.325"/>
		
			<line fill="none" stroke="#26CC9F" stroke-width="4" stroke-linecap="round" stroke-linejoin="round" x1="154" y1="311.5" x2="153.576" y2="311.325"/>
		
			<line fill="none" stroke="#26CC9F" stroke-width="4" stroke-linecap="round" stroke-linejoin="round" x1="176.334" y1="156.333" x2="92.333" y2="159.666"/>
		
			<line fill="none" stroke="#26CC9F" stroke-width="4" stroke-linecap="round" stroke-linejoin="round" x1="92.333" y1="159.666" x2="145" y2="247.332"/>
		
			<line fill="none" stroke="#26CC9F" stroke-width="4" stroke-linecap="round" stroke-linejoin="round" x1="176.334" y1="156.333" x2="145" y2="247.332"/>
		
			<line fill="none" stroke="#26CC9F" stroke-width="4" stroke-linecap="round" stroke-linejoin="round" x1="154" y1="311.5" x2="145" y2="247.332"/>
		
			<line fill="none" stroke="#26CC9F" stroke-width="4" stroke-linecap="round" stroke-linejoin="round" x1="218.334" y1="255.5" x2="145" y2="247.332"/>
		
			<line fill="none" stroke="#26CC9F" stroke-width="4" stroke-linecap="round" stroke-linejoin="round" x1="98.083" y1="311.524" x2="165" y2="331"/>
		
			<line fill="none" stroke="#26CC9F" stroke-width="4" stroke-linecap="round" stroke-linejoin="round" x1="98.083" y1="311.524" x2="98" y2="311.5"/>
		
			<line fill="none" stroke="#26CC9F" stroke-width="4" stroke-linecap="round" stroke-linejoin="round" x1="98.071" y1="311.5" x2="153.576" y2="311.325"/>
		
			<line fill="none" stroke="#26CC9F" stroke-width="4" stroke-linecap="round" stroke-linejoin="round" x1="154" y1="312" x2="154" y2="312"/>
		
			<line fill="none" stroke="#26CC9F" stroke-width="4" stroke-linecap="round" stroke-linejoin="round" x1="98" y1="312" x2="98" y2="312"/>
		
			<line fill="none" stroke="#26CC9F" stroke-width="4" stroke-linecap="round" stroke-linejoin="round" x1="153.6" y1="311.5" x2="153.6" y2="311.5"/>
		
			<line fill="none" stroke="#26CC9F" stroke-width="4" stroke-linecap="round" stroke-linejoin="round" x1="165" y1="331" x2="154" y2="311.5"/>
		
			<line fill="none" stroke="#26CC9F" stroke-width="4" stroke-linecap="round" stroke-linejoin="round" x1="218.334" y1="255.5" x2="154" y2="311.5"/>
		
			<line fill="none" stroke="#26CC9F" stroke-width="4" stroke-linecap="round" stroke-linejoin="round" x1="224.333" y1="314.333" x2="154" y2="311.5"/>
		
			<line fill="none" stroke="#26CC9F" stroke-width="4" stroke-linecap="round" stroke-linejoin="round" x1="260.334" y1="159.666" x2="176.334" y2="156.333"/>
		
			<line fill="none" stroke="#26CC9F" stroke-width="4" stroke-linecap="round" stroke-linejoin="round" x1="218.334" y1="255.5" x2="176.334" y2="156.333"/>
		
			<line fill="none" stroke="#26CC9F" stroke-width="4" stroke-linecap="round" stroke-linejoin="round" x1="207.667" y1="76.833" x2="231" y2="45.5"/>
		
			<line fill="none" stroke="#26CC9F" stroke-width="4" stroke-linecap="round" stroke-linejoin="round" x1="207.667" y1="76.833" x2="260.334" y2="159.666"/>
		
			<line fill="none" stroke="#26CC9F" stroke-width="4" stroke-linecap="round" stroke-linejoin="round" x1="207.667" y1="76.833" x2="282.667" y2="92.333"/>
		
			<line fill="none" stroke="#26CC9F" stroke-width="4" stroke-linecap="round" stroke-linejoin="round" x1="260.334" y1="159.666" x2="282.667" y2="92.333"/>
		
			<line fill="none" stroke="#26CC9F" stroke-width="4" stroke-linecap="round" stroke-linejoin="round" x1="282.667" y1="92.333" x2="231" y2="45.5"/>
		
			<line fill="none" stroke="#26CC9F" stroke-width="4" stroke-linecap="round" stroke-linejoin="round" x1="288.334" y1="70.667" x2="245.167" y2="39.333"/>
		
			<line fill="none" stroke="#26CC9F" stroke-width="4" stroke-linecap="round" stroke-linejoin="round" x1="231" y1="45.5" x2="288.334" y2="70.667"/>
		<polyline fill="none" stroke="#26CC9F" stroke-width="4" stroke-linecap="round" stroke-linejoin="round" points="245.167,39.333 
			199.334,24.333 231,45.5 		"/>
		
			<line fill="none" stroke="#26CC9F" stroke-width="4" stroke-linecap="round" stroke-linejoin="round" x1="231" y1="45.5" x2="245.167" y2="39.333"/>
		
			<line fill="none" stroke="#26CC9F" stroke-width="4" stroke-linecap="round" stroke-linejoin="round" x1="176.075" y1="24.529" x2="231" y2="45.5"/>
		<polyline fill="none" stroke="#26CC9F" stroke-width="4" stroke-linecap="round" stroke-linejoin="round" points="231,45.5 
			199.334,24.333 176.766,24.5 		"/>
		<polyline fill="none" stroke="#26CC9F" stroke-width="4" stroke-linecap="round" stroke-linejoin="round" points="176.075,24.529 
			176,24.5 176.113,24.5 		"/>
		
			<line fill="none" stroke="#26CC9F" stroke-width="4" stroke-linecap="round" stroke-linejoin="round" x1="176.334" y1="24.333" x2="176.334" y2="24.333"/>
		
			<line fill="none" stroke="#26CC9F" stroke-width="4" stroke-linecap="round" stroke-linejoin="round" x1="260.334" y1="159.666" x2="218.334" y2="255.5"/>
		
			<line fill="none" stroke="#26CC9F" stroke-width="4" stroke-linecap="round" stroke-linejoin="round" x1="279.5" y1="249.5" x2="312.5" y2="164.764"/>
		
			<line fill="none" stroke="#26CC9F" stroke-width="4" stroke-linecap="round" stroke-linejoin="round" x1="312.5" y1="164.764" x2="312.668" y2="164.333"/>
		
			<line fill="none" stroke="#26CC9F" stroke-width="4" stroke-linecap="round" stroke-linejoin="round" x1="312.381" y1="164.308" x2="312.5" y2="164.318"/>
		
			<line fill="none" stroke="#26CC9F" stroke-width="4" stroke-linecap="round" stroke-linejoin="round" x1="260.334" y1="159.666" x2="312.381" y2="164.308"/>
		
			<line fill="none" stroke="#26CC9F" stroke-width="4" stroke-linecap="round" stroke-linejoin="round" x1="312.5" y1="164.318" x2="312.668" y2="164.333"/>
		
			<line fill="none" stroke="#26CC9F" stroke-width="4" stroke-linecap="round" stroke-linejoin="round" x1="260.334" y1="159.666" x2="279.5" y2="249.5"/>
		
			<line fill="none" stroke="#26CC9F" stroke-width="4" stroke-linecap="round" stroke-linejoin="round" x1="317.5" y1="118.25" x2="312.698" y2="164.045"/>
		
			<line fill="none" stroke="#26CC9F" stroke-width="4" stroke-linecap="round" stroke-linejoin="round" x1="312.668" y1="164.333" x2="312.698" y2="164.045"/>
		
			<line fill="none" stroke="#26CC9F" stroke-width="4" stroke-linecap="round" stroke-linejoin="round" x1="282.667" y1="92.333" x2="312.506" y2="163.944"/>
		
			<line fill="none" stroke="#26CC9F" stroke-width="4" stroke-linecap="round" stroke-linejoin="round" x1="312.532" y1="164.007" x2="312.506" y2="163.944"/>
		
			<line fill="none" stroke="#26CC9F" stroke-width="4" stroke-linecap="round" stroke-linejoin="round" x1="312.668" y1="164.333" x2="312.532" y2="164.007"/>
		
			<line fill="none" stroke="#26CC9F" stroke-width="4" stroke-linecap="round" stroke-linejoin="round" x1="317.5" y1="118.25" x2="288.334" y2="70.667"/>
		
			<line fill="none" stroke="#26CC9F" stroke-width="4" stroke-linecap="round" stroke-linejoin="round" x1="282.667" y1="92.333" x2="288.334" y2="70.667"/>
		
			<line fill="none" stroke="#26CC9F" stroke-width="4" stroke-linecap="round" stroke-linejoin="round" x1="282.667" y1="92.333" x2="317.5" y2="118.25"/>
		
			<line fill="none" stroke="#26CC9F" stroke-width="4" stroke-linecap="round" stroke-linejoin="round" x1="218.334" y1="255.5" x2="224.333" y2="314.333"/>
		
			<line fill="none" stroke="#26CC9F" stroke-width="4" stroke-linecap="round" stroke-linejoin="round" x1="279.5" y1="249.5" x2="218.334" y2="255.5"/>
		
			<line fill="none" stroke="#26CC9F" stroke-width="4" stroke-linecap="round" stroke-linejoin="round" x1="279.5" y1="249.5" x2="312.381" y2="164.308"/>
		
			<line fill="none" stroke="#26CC9F" stroke-width="4" stroke-linecap="round" stroke-linejoin="round" x1="312.381" y1="164.308" x2="312.5" y2="164"/>
		
			<line fill="none" stroke="#26CC9F" stroke-width="4" stroke-linecap="round" stroke-linejoin="round" x1="317.5" y1="118.25" x2="312.506" y2="163.944"/>
		
			<line fill="none" stroke="#26CC9F" stroke-width="4" stroke-linecap="round" stroke-linejoin="round" x1="330" y1="168" x2="317.5" y2="118.25"/>
		
			<line fill="none" stroke="#26CC9F" stroke-width="4" stroke-linecap="round" stroke-linejoin="round" x1="312.5" y1="164" x2="312.506" y2="163.944"/>
		
			<line fill="none" stroke="#26CC9F" stroke-width="4" stroke-linecap="round" stroke-linejoin="round" x1="312.668" y1="164.333" x2="312.668" y2="164.333"/>
		
			<line fill="none" stroke="#26CC9F" stroke-width="4" stroke-linecap="round" stroke-linejoin="round" x1="312" y1="164" x2="312" y2="164"/>
		
			<line fill="none" stroke="#26CC9F" stroke-width="4" stroke-linecap="round" stroke-linejoin="round" x1="309" y1="237" x2="312.5" y2="164.764"/>
		
			<line fill="none" stroke="#26CC9F" stroke-width="4" stroke-linecap="round" stroke-linejoin="round" x1="330" y1="168" x2="312.698" y2="164.045"/>
		
			<line fill="none" stroke="#26CC9F" stroke-width="4" stroke-linecap="round" stroke-linejoin="round" x1="312.698" y1="164.045" x2="312.532" y2="164.007"/>
		
			<line fill="none" stroke="#26CC9F" stroke-width="4" stroke-linecap="round" stroke-linejoin="round" x1="312.5" y1="164" x2="312.532" y2="164.007"/>
		
			<line fill="none" stroke="#26CC9F" stroke-width="4" stroke-linecap="round" stroke-linejoin="round" x1="279.5" y1="249.5" x2="312.5" y2="237"/>
		
			<line fill="none" stroke="#26CC9F" stroke-width="4" stroke-linecap="round" stroke-linejoin="round" x1="279.5" y1="249.5" x2="224.333" y2="314.333"/>
		
			<line fill="none" stroke="#26CC9F" stroke-width="4" stroke-linecap="round" stroke-linejoin="round" x1="279.5" y1="249.5" x2="276" y2="293.5"/>
		<polyline fill="none" stroke="#26CC9F" stroke-width="4" stroke-linecap="round" stroke-linejoin="round" points="165,331 
			227.5,321.25 276,293.5 		"/>
		
			<line fill="none" stroke="#26CC9F" stroke-width="4" stroke-linecap="round" stroke-linejoin="round" x1="224.333" y1="314.333" x2="165" y2="331"/>
		
			<line fill="none" stroke="#26CC9F" stroke-width="4" stroke-linecap="round" stroke-linejoin="round" x1="224.333" y1="314.333" x2="276" y2="293.5"/>
		<polyline fill="none" stroke="#26CC9F" stroke-width="4" stroke-linecap="round" stroke-linejoin="round" points="312.5,237 
			324,218 330,168 		"/>
		
			<line fill="none" stroke="#26CC9F" stroke-width="4" stroke-linecap="round" stroke-linejoin="round" x1="312.5" y1="237" x2="330" y2="168"/>
		<polyline fill="none" stroke="#26CC9F" stroke-width="4" stroke-linecap="round" stroke-linejoin="round" points="312.5,237 
			302.5,262.333 276,293.5 		"/>
		
			<line fill="none" stroke="#26CC9F" stroke-width="4" stroke-linecap="round" stroke-linejoin="round" x1="312.5" y1="237" x2="276" y2="293.5"/>
	</g>
</g>
</svg>
