<?xml version="1.0" encoding="utf-8"?>
<!-- Generator: Adobe Illustrator 16.0.0, SVG Export Plug-In . SVG Version: 6.00 Build 0)  -->
<!DOCTYPE svg PUBLIC "-//W3C//DTD SVG 1.1//EN" "http://www.w3.org/Graphics/SVG/1.1/DTD/svg11.dtd">
<svg version="1.1" id="Layer_1" xmlns="http://www.w3.org/2000/svg" xmlns:xlink="http://www.w3.org/1999/xlink" x="0px" y="0px"
	 width="366px" height="499.664px" viewBox="0 0 366 499.664" enable-background="new 0 0 366 499.664" xml:space="preserve">
<path fill="#4D4D4D" d="M261.68,303.372c0,7.208-5.848,13.056-13.056,13.056H115.899c-7.208,0-13.055-5.848-13.055-13.056V188.054
	c0-7.208,5.847-13.055,13.055-13.055h132.725c7.208,0,13.056,5.847,13.056,13.055V303.372z"/>
<path fill="#081C24" d="M183.208,339.185c25.388,0.314,42.153,23.16,55.172,39.768c11.055,14.109,30.311,15.609,38.555,3.103
	c17.959-27.228-36.054-122.093-36.054-122.093c7.411,0.876,20.113,10.875,24.512,17.5c9.632,14.496,24.293,28.702,38.123,21.895
	c14.729-7.25,8.827-31.821-11.121-62.32c-4.447-6.803-19.952-26.93-41.54-32.142c-13.376-3.229-15.142-3.487-15.142-3.487
	l-0.629-36.253c-0.004-32.598-21.841-52.166-50.928-52.166h-1.758c-29.087,0-50.995,19.567-50.995,52.166l-0.664,36.347
	c0,0-1.784,0.208-15.163,3.44c-21.586,5.212-37.1,25.315-41.547,32.119c-19.946,30.499-25.853,55.06-11.123,62.31
	c13.827,6.809,28.487-7.407,38.121-21.902c4.397-6.626,17.099-16.625,24.513-17.5c0,0-54.017,94.86-36.058,122.088
	c8.247,12.507,27.5,11.007,38.556-3.103c13.018-16.607,29.928-39.453,55.315-39.768"/>
<path fill="#FFFFFF" d="M222.515,201.109v-34.311c0-23.847-17.887-43.178-39.165-43.178c-21.282,0-39.165,19.331-39.165,43.178
	v34.311H222.515z"/>
<path fill="#FFFFFF" d="M215.987,276.914c0,6.2-5.027,11.228-11.224,11.228H159.76c-6.197,0-11.223-5.027-11.223-11.228v-47.171
	c0-6.201,5.026-11.228,11.223-11.228h45.004c6.196,0,11.224,5.026,11.224,11.228V276.914z"/>
<path fill="#081C24" d="M192.053,129.851c0,0,17.951,1.632,16.319,64.731h7.615C215.987,194.582,225.778,139.642,192.053,129.851z"
	/>
</svg>
