<?xml version="1.0" encoding="utf-8"?>
<!-- Generator: Adobe Illustrator 16.0.0, SVG Export Plug-In . SVG Version: 6.00 Build 0)  -->
<!DOCTYPE svg PUBLIC "-//W3C//DTD SVG 1.1//EN" "http://www.w3.org/Graphics/SVG/1.1/DTD/svg11.dtd">
<svg version="1.1" id="Layer_1" xmlns="http://www.w3.org/2000/svg" xmlns:xlink="http://www.w3.org/1999/xlink" x="0px" y="0px"
	 width="147.458px" height="500px" viewBox="0 0 147.458 500" enable-background="new 0 0 147.458 500" xml:space="preserve">
<path fill="#187C5D" stroke="#26CC9F" stroke-width="5" stroke-miterlimit="10" d="M137.887,413.843
	c0,30.267-24.576,54.802-24.576,54.802s-24.576-24.535-24.576-54.802s11.004-54.802,24.576-54.802
	C126.884,359.041,137.887,383.576,137.887,413.843z"/>
<g>
	<line x1="75.057" y1="110" x2="75.057" y2="20"/>
	<polygon fill="#D4123A" points="67.057,110 75.057,20 83.057,110 	"/>
</g>
<path fill="#187C5D" stroke="#26CC9F" stroke-width="5" stroke-miterlimit="10" d="M59.887,413.843
	c0,30.267-24.577,54.802-24.577,54.802s-24.576-24.535-24.576-54.802s11.003-54.802,24.576-54.802
	C48.884,359.041,59.887,383.576,59.887,413.843z"/>
<path fill="#26CC9F" d="M135.328,251.994c0,93.296-27.065,168.927-60.452,168.927S14.424,345.29,14.424,251.994
	c0-93.295,60.452-168.926,60.452-168.926S135.328,158.699,135.328,251.994z"/>
<path fill="#187C5D" stroke="#26CC9F" stroke-width="5" stroke-miterlimit="10" d="M105.59,411.003
	c0,38.388-30.279,69.506-30.279,69.506s-30.279-31.118-30.279-69.506s13.557-69.506,30.279-69.506
	C92.033,341.497,105.59,372.615,105.59,411.003z"/>
<ellipse fill="#D4123A" cx="74.746" cy="215.452" rx="31.578" ry="51.195"/>
<path fill="#FFFFFF" d="M53.672,237.542c0,0-6.214-18.079-1.13-41.243c2.339-10.658,14.689-23.164,14.689-23.164
	s-6.248,10.755-10.098,27.729C55.684,207.257,53.672,215.452,53.672,237.542z"/>
</svg>
