<?xml version="1.0" encoding="utf-8"?>
<!-- Generator: Adobe Illustrator 16.0.0, SVG Export Plug-In . SVG Version: 6.00 Build 0)  -->
<!DOCTYPE svg PUBLIC "-//W3C//DTD SVG 1.1//EN" "http://www.w3.org/Graphics/SVG/1.1/DTD/svg11.dtd">
<svg version="1.1" id="Layer_1" xmlns="http://www.w3.org/2000/svg" xmlns:xlink="http://www.w3.org/1999/xlink" x="0px" y="0px"
	 width="640px" height="1080px" viewBox="0 0 640 1080" enable-background="new 0 0 640 1080" xml:space="preserve">
<rect x="-59.5" y="-92.5" opacity="0.3" fill="#26CC9F" width="749" height="1225"/>
<rect x="-43.419" y="-46.5" fill="none" width="721" height="1149"/>
<text transform="matrix(1 0 0 1 -43.4189 -29.46)"><tspan x="0" y="0" fill="#26CC9F" font-family="'MyriadPro-Regular'" font-size="24">1010010101101010001110100110101000011010101011111010010101</tspan><tspan x="0" y="28.8" fill="#26CC9F" font-family="'MyriadPro-Regular'" font-size="24">1010100011101001101010000110101010111110100101011010100011</tspan><tspan x="0" y="57.6" fill="#26CC9F" font-family="'MyriadPro-Regular'" font-size="24">1010011010100001101010101111101001010110101000111010011010</tspan><tspan x="0" y="86.4" fill="#26CC9F" font-family="'MyriadPro-Regular'" font-size="24">1000011010101011111010010101101010001110100110101000011010</tspan><tspan x="0" y="115.2" fill="#26CC9F" font-family="'MyriadPro-Regular'" font-size="24">1010111110100101011010100011101001101010000110101010111110</tspan><tspan x="0" y="144" fill="#26CC9F" font-family="'MyriadPro-Regular'" font-size="24">1001010110101000111010011010100001101010101111101001010110</tspan><tspan x="0" y="172.8" fill="#26CC9F" font-family="'MyriadPro-Regular'" font-size="24">1010001110100110101000011010101011111010010101101010001110</tspan><tspan x="0" y="201.6" fill="#26CC9F" font-family="'MyriadPro-Regular'" font-size="24">1001101010000110101010111110100101011010100011101001101010</tspan><tspan x="0" y="230.4" fill="#26CC9F" font-family="'MyriadPro-Regular'" font-size="24">0001101010101111101001010110101000111010011010100001101010</tspan><tspan x="0" y="259.2" fill="#26CC9F" font-family="'MyriadPro-Regular'" font-size="24">1011111010010101101010001110100110101000011010101011111010</tspan><tspan x="0" y="288" fill="#26CC9F" font-family="'MyriadPro-Regular'" font-size="24">0101011010100011101001101010000110101010111110100101011010</tspan><tspan x="0" y="316.8" fill="#26CC9F" font-family="'MyriadPro-Regular'" font-size="24">1000111010011010100001101010101111101001010110101000111010</tspan><tspan x="0" y="345.6" fill="#26CC9F" font-family="'MyriadPro-Regular'" font-size="24">0110101000011010101011111010010101101010001110100110101000</tspan><tspan x="0" y="374.4" fill="#26CC9F" font-family="'MyriadPro-Regular'" font-size="24">0110101010111110100101011010100011101001101010000110101010</tspan><tspan x="0" y="403.2" fill="#26CC9F" font-family="'MyriadPro-Regular'" font-size="24">1111101001010110101000111010011010100001101010101111101001</tspan><tspan x="0" y="432" fill="#26CC9F" font-family="'MyriadPro-Regular'" font-size="24">0101101010001110100110101000011010101011111010010101101010</tspan><tspan x="0" y="460.8" fill="#26CC9F" font-family="'MyriadPro-Regular'" font-size="24">0011101001101010000110101010111110100101011010100011101001</tspan><tspan x="0" y="489.6" fill="#26CC9F" font-family="'MyriadPro-Regular'" font-size="24">1010100001101010101111101001010110101000111010011010100001</tspan><tspan x="0" y="518.399" fill="#26CC9F" font-family="'MyriadPro-Regular'" font-size="24">1010101011111010010101101010001110100110101000011010101011</tspan><tspan x="0" y="547.2" fill="#26CC9F" font-family="'MyriadPro-Regular'" font-size="24">1110100101011010100011101001101010000110101010111110100101</tspan><tspan x="0" y="576" fill="#26CC9F" font-family="'MyriadPro-Regular'" font-size="24">0110101000111010011010100001101010101111101001010110101000</tspan><tspan x="0" y="604.8" fill="#26CC9F" font-family="'MyriadPro-Regular'" font-size="24">1110100110101000011010101011111010010101101010001110100110</tspan><tspan x="0" y="633.6" fill="#26CC9F" font-family="'MyriadPro-Regular'" font-size="24">1010000110101010111110100101011010100011101001101010000110</tspan><tspan x="0" y="662.399" fill="#26CC9F" font-family="'MyriadPro-Regular'" font-size="24">1010101111101001010110101000111010011010100001101010101111</tspan><tspan x="0" y="691.199" fill="#26CC9F" font-family="'MyriadPro-Regular'" font-size="24">1010010101101010001110100110101000011010101011111010010101</tspan><tspan x="0" y="720" fill="#26CC9F" font-family="'MyriadPro-Regular'" font-size="24">1010100011101001101010000110101010111110100101011010100011</tspan><tspan x="0" y="748.8" fill="#26CC9F" font-family="'MyriadPro-Regular'" font-size="24">1010011010100001101010101111101001010110101000111010011010</tspan><tspan x="0" y="777.6" fill="#26CC9F" font-family="'MyriadPro-Regular'" font-size="24">1000011010101011111010010101101010001110100110101000011010</tspan><tspan x="0" y="806.399" fill="#26CC9F" font-family="'MyriadPro-Regular'" font-size="24">1010111110100101011010100011101001101010000110101010111110</tspan><tspan x="0" y="835.199" fill="#26CC9F" font-family="'MyriadPro-Regular'" font-size="24">1001010110101000111010011010100001101010101111101001010110</tspan><tspan x="0" y="863.999" fill="#26CC9F" font-family="'MyriadPro-Regular'" font-size="24">1010001110100110101000011010101011111010010101101010001110</tspan><tspan x="0" y="892.8" fill="#26CC9F" font-family="'MyriadPro-Regular'" font-size="24">1001101010000110101010111110100101011010100011101001101010</tspan><tspan x="0" y="921.6" fill="#26CC9F" font-family="'MyriadPro-Regular'" font-size="24">0001101010101111101001010110101000111010011010100001101010</tspan><tspan x="0" y="950.399" fill="#26CC9F" font-family="'MyriadPro-Regular'" font-size="24">1011111010010101101010001110100110101000011010101011111010</tspan><tspan x="0" y="979.199" fill="#26CC9F" font-family="'MyriadPro-Regular'" font-size="24">0101011010100011101001101010000110101010111110100101011010</tspan><tspan x="0" y="1007.999" fill="#26CC9F" font-family="'MyriadPro-Regular'" font-size="24">1000111010011010100001101010101111101001010110101000111010</tspan><tspan x="0" y="1036.8" fill="#26CC9F" font-family="'MyriadPro-Regular'" font-size="24">0110101000011010101011111010010101101010001110100110101000</tspan><tspan x="0" y="1065.6" fill="#26CC9F" font-family="'MyriadPro-Regular'" font-size="24">0110101010111110100101011010100011101001101010000110101010</tspan><tspan x="0" y="1094.399" fill="#26CC9F" font-family="'MyriadPro-Regular'" font-size="24">1111101001010110101000111010011010100001101010101111101001</tspan><tspan x="0" y="1123.2" fill="#26CC9F" font-family="'MyriadPro-Regular'" font-size="24">0101101010001110100110101000011010101011111010010101101010</tspan></text>
<path fill="#26CC9F" stroke="#D4123A" stroke-miterlimit="10" d="M-28.5-44.5v1154h690v-1154H-28.5z M321.081,622.442L178.014,350.5
	h286.135L321.081,622.442z"/>
<polygon fill="#1D9973" stroke="#26CC9F" stroke-width="5" stroke-miterlimit="10" points="45.922,1077.5 183.948,838.434 
	321.974,1077.5 "/>
<polygon fill="#1D9973" stroke="#26CC9F" stroke-width="5" stroke-miterlimit="10" points="364.396,1007.5 323.179,1078.891 
	281.961,1007.5 "/>
<polygon fill="#1D9973" stroke="#26CC9F" stroke-width="5" stroke-miterlimit="10" points="266.123,838.5 224.906,909.89 
	183.688,838.5 "/>
<polygon fill="#1D9973" stroke="#26CC9F" stroke-width="5" stroke-miterlimit="10" points="225.937,909.5 314.681,755.791 
	403.426,909.5 "/>
<polygon fill="#1D9973" stroke="#26CC9F" stroke-width="5" stroke-miterlimit="10" points="492.652,1078.5 563.217,956.278 
	633.782,1078.5 "/>
<polygon fill="#1D9973" stroke="#26CC9F" stroke-width="5" stroke-miterlimit="10" points="589.696,910.5 541.947,993.202 
	494.198,910.5 "/>
<polygon fill="#1D9973" stroke="#26CC9F" stroke-width="5" stroke-miterlimit="10" points="6.431,838.5 95.175,684.791 
	183.919,838.5 "/>
<polygon fill="#1D9973" stroke="#26CC9F" stroke-width="5" stroke-miterlimit="10" points="94.601,686.5 154.759,582.303 
	214.918,686.5 "/>
<polygon fill="#1D9973" stroke="#26CC9F" stroke-width="5" stroke-miterlimit="10" points="183.689,838.5 224.391,768.001 
	265.094,838.5 "/>
<polygon fill="#1D9973" stroke="#26CC9F" stroke-width="5" stroke-miterlimit="10" points="502.387,751.5 543.089,681.002 
	583.791,751.5 "/>
<polygon fill="#1D9973" stroke="#26CC9F" stroke-width="5" stroke-miterlimit="10" points="502.387,454.5 528.465,409.333 
	554.541,454.5 "/>
<polygon fill="#1D9973" stroke="#26CC9F" stroke-width="5" stroke-miterlimit="10" points="337.986,266.5 364.064,221.333 
	390.141,266.5 "/>
<polygon fill="#1D9973" stroke="#26CC9F" stroke-width="5" stroke-miterlimit="10" points="377.841,199.5 364.801,222.083 
	351.764,199.5 "/>
<polygon fill="#1D9973" stroke="#26CC9F" stroke-width="5" stroke-miterlimit="10" points="150.874,329.5 134.677,357.553 
	118.48,329.5 "/>
<polygon fill="#1D9973" stroke="#26CC9F" stroke-width="5" stroke-miterlimit="10" points="214.916,611.5 231.112,583.447 
	247.309,611.5 "/>
<polygon fill="#1D9973" stroke="#26CC9F" stroke-width="5" stroke-miterlimit="10" points="338.667,909.5 282.302,1007.126 
	225.938,909.5 "/>
<polygon fill="#1D9973" stroke="#26CC9F" stroke-width="5" stroke-miterlimit="10" points="452.554,909.5 396.189,1007.126 
	339.823,909.5 "/>
<polygon fill="#1D9973" stroke="#26CC9F" stroke-width="5" stroke-miterlimit="10" points="599.503,582.5 543.139,680.125 
	486.773,582.5 "/>
<polygon fill="#1D9973" stroke="#26CC9F" stroke-width="5" stroke-miterlimit="10" points="452.792,910.5 543.104,754.077 
	633.413,910.5 "/>
<polygon fill="#1D9973" stroke="#26CC9F" stroke-width="5" stroke-miterlimit="10" points="337.057,716.5 314.278,755.954 
	291.5,716.5 "/>
<linearGradient id="SVGID_1_" gradientUnits="userSpaceOnUse" x1="-231.7944" y1="854.4199" x2="-231.7946" y2="1933.4189" gradientTransform="matrix(1 0 0 -1 552.7949 1934.4199)">
	<stop  offset="0" style="stop-color:#344952;stop-opacity:0.5"/>
	<stop  offset="1" style="stop-color:#344952;stop-opacity:0"/>
</linearGradient>
<path fill="url(#SVGID_1_)" d="M-9,1v1079h660V1H-9z M321.081,622.942L178.014,351h286.135L321.081,622.942z"/>
<polygon fill="none" stroke="#26CC9F" stroke-width="5" stroke-miterlimit="10" points="464.148,350.5 321.081,622.442 
	178.014,350.5 "/>
<g id="bigger" display="none">
	<polygon display="inline" fill="#1D9973" stroke="#26CC9F" stroke-width="5" stroke-miterlimit="10" points="45.922,1077.5 
		183.948,838.434 321.974,1077.5 	"/>
	<polygon display="inline" fill="#1D9973" stroke="#26CC9F" stroke-width="5" stroke-miterlimit="10" points="364.396,1007.5 
		323.179,1078.891 281.961,1007.5 	"/>
	<polygon display="inline" fill="#1D9973" stroke="#26CC9F" stroke-width="5" stroke-miterlimit="10" points="266.123,838.5 
		224.906,909.89 183.688,838.5 	"/>
	<polygon display="inline" fill="#1D9973" stroke="#26CC9F" stroke-width="5" stroke-miterlimit="10" points="225.937,909.5 
		314.681,755.791 403.426,909.5 	"/>
	<polygon display="inline" fill="#1D9973" stroke="#26CC9F" stroke-width="5" stroke-miterlimit="10" points="492.652,1078.5 
		563.217,956.278 633.782,1078.5 	"/>
	<polygon display="inline" fill="#1D9973" stroke="#26CC9F" stroke-width="5" stroke-miterlimit="10" points="589.696,910.5 
		541.947,993.202 494.198,910.5 	"/>
	<polygon display="inline" fill="#1D9973" stroke="#26CC9F" stroke-width="5" stroke-miterlimit="10" points="6.431,838.5 
		95.175,684.791 183.919,838.5 	"/>
	<polygon display="inline" fill="#1D9973" stroke="#26CC9F" stroke-width="5" stroke-miterlimit="10" points="94.601,686.5 
		154.759,582.303 214.918,686.5 	"/>
	<polygon display="inline" fill="#1D9973" stroke="#26CC9F" stroke-width="5" stroke-miterlimit="10" points="183.689,838.5 
		224.391,768.001 265.094,838.5 	"/>
	<polygon display="inline" fill="#1D9973" stroke="#26CC9F" stroke-width="5" stroke-miterlimit="10" points="502.387,751.5 
		543.089,681.002 583.791,751.5 	"/>
	<polygon display="inline" fill="#1D9973" stroke="#26CC9F" stroke-width="5" stroke-miterlimit="10" points="502.387,454.5 
		528.465,409.333 554.541,454.5 	"/>
	<polygon display="inline" fill="#1D9973" stroke="#26CC9F" stroke-width="5" stroke-miterlimit="10" points="337.986,266.5 
		364.064,221.333 390.141,266.5 	"/>
	<polygon display="inline" fill="#1D9973" stroke="#26CC9F" stroke-width="5" stroke-miterlimit="10" points="377.841,199.5 
		364.801,222.083 351.764,199.5 	"/>
	<polygon display="inline" fill="#1D9973" stroke="#26CC9F" stroke-width="5" stroke-miterlimit="10" points="150.874,329.5 
		134.677,357.553 118.48,329.5 	"/>
	<polygon display="inline" fill="#1D9973" stroke="#26CC9F" stroke-width="5" stroke-miterlimit="10" points="214.916,611.5 
		231.112,583.447 247.309,611.5 	"/>
	<polygon display="inline" fill="#1D9973" stroke="#26CC9F" stroke-width="5" stroke-miterlimit="10" points="338.667,909.5 
		282.302,1007.126 225.938,909.5 	"/>
	<polygon display="inline" fill="#1D9973" stroke="#26CC9F" stroke-width="5" stroke-miterlimit="10" points="452.554,909.5 
		396.189,1007.126 339.823,909.5 	"/>
	<polygon display="inline" fill="#1D9973" stroke="#26CC9F" stroke-width="5" stroke-miterlimit="10" points="599.503,582.5 
		543.139,680.125 486.773,582.5 	"/>
	<polygon display="inline" fill="#1D9973" stroke="#26CC9F" stroke-width="5" stroke-miterlimit="10" points="452.792,910.5 
		543.104,754.077 633.413,910.5 	"/>
	<polygon display="inline" fill="#1D9973" stroke="#26CC9F" stroke-width="5" stroke-miterlimit="10" points="337.057,716.5 
		314.278,755.954 291.5,716.5 	"/>
</g>
<g id="Layer_2" display="none">
	<polygon display="inline" fill="#1D9973" stroke="#26CC9F" stroke-width="5" stroke-miterlimit="10" points="497.148,348.5 
		331.831,582.303 166.514,348.5 	"/>
</g>
</svg>
