<?xml version="1.0" encoding="utf-8"?>
<!-- Generator: Adobe Illustrator 16.0.0, SVG Export Plug-In . SVG Version: 6.00 Build 0)  -->
<!DOCTYPE svg PUBLIC "-//W3C//DTD SVG 1.1//EN" "http://www.w3.org/Graphics/SVG/1.1/DTD/svg11.dtd">
<svg version="1.1" id="Layer_1" xmlns="http://www.w3.org/2000/svg" xmlns:xlink="http://www.w3.org/1999/xlink" x="0px" y="0px"
	 width="366px" height="499.665px" viewBox="0 0 366 499.665" enable-background="new 0 0 366 499.665" xml:space="preserve">
<rect x="42" y="257" fill="#081C24" width="287" height="131"/>
<path fill="#4D4D4D" d="M185.392,388.336c0,0,2.715-7.518,15.648-11.168c10.631-3,26.484-3.168,26.484-3.168h36.41
	c0,0,20.104-0.207,32.262-2.35c13.111-2.311,16.803-8.314,16.803-8.314v-118c0,0-3.692,6.004-16.803,8.314
	c-12.158,2.143-32.262,2.35-32.262,2.35h-36.41c0,0-15.854,0.168-26.484,3.168c-12.934,3.65-15.648,11.084-15.648,11.084
	s-2.715-7.476-15.65-11.126c-10.629-3-26.483-3.126-26.483-3.126h-36.409c0,0-19.996-0.207-32.155-2.35
	C61.583,251.34,58,245.336,58,245.336v118c0,0,3.583,6.004,16.694,8.314c12.159,2.143,32.155,2.35,32.155,2.35h36.409
	c0,0,15.854,0.168,26.483,3.168C182.677,380.818,185.392,388.336,185.392,388.336z"/>
<path fill="#FFFFFF" d="M185.392,377.336c0,0,2.396-7.518,13.82-11.168c9.387-3,23.388-3.168,23.388-3.168h32.154
	c0,0,18.212-0.207,28.95-2.35c11.578-2.311,15.296-8.314,15.296-8.314v-118c0,0-3.718,6.004-15.296,8.314
	c-10.737,2.143-28.95,2.35-28.95,2.35H222.6c0,0-14.001,0.168-23.388,3.168c-11.424,3.65-13.82,11.084-13.82,11.084
	s-2.398-7.476-13.82-11.126c-9.388-3-23.389-3.126-23.389-3.126h-32.154c0,0-17.603-0.207-28.341-2.35
	C76.109,240.34,73,234.336,73,234.336v118c0,0,3.109,6.004,14.687,8.314c10.738,2.143,28.341,2.35,28.341,2.35h32.154
	c0,0,14.001,0.168,23.389,3.168C182.993,369.818,185.392,377.336,185.392,377.336z"/>
<g>
	<line fill="#00A99D" x1="185" y1="259" x2="185" y2="379"/>
	<path fill="#4D4D4D" d="M185.339,259.336c0,0,0.114,0.469,0.327,1.348c0.193,0.879,0.515,2.168,0.839,3.809
		c0.341,1.641,0.756,3.633,1.174,5.918c0.203,1.143,0.419,2.358,0.648,3.641c0.126,0.641-0.063,1.298-0.123,1.971
		c-0.054,0.673-0.204,1.361-0.204,2.064c0,11.25,0,26.25,0,41.25s0,30,0,41.25c0,0.703,0.151,1.392,0.196,2.064
		c0.07,0.673,0.147,1.33,0.006,1.971c-0.234,1.282-0.414,2.498-0.623,3.641c-0.4,2.285-0.793,4.277-1.127,5.918
		c-0.32,1.641-0.622,2.93-0.809,3.809c-0.206,0.879-0.31,1.348-0.31,1.348s-0.107-0.469-0.313-1.348
		c-0.188-0.879-0.499-2.168-0.818-3.809c-0.333-1.641-0.747-3.633-1.147-5.918c-0.208-1.143-0.431-2.358-0.665-3.641
		c-0.142-0.641-0.318-1.298-0.248-1.971c0.045-0.673-0.143-1.361-0.143-2.064c0-11.25,0-26.25,0-41.25s0-30,0-41.25
		c0-0.703,0.188-1.392,0.135-2.064c-0.059-0.673,0.006-1.33,0.132-1.971c0.229-1.282,0.487-2.498,0.69-3.641
		c0.418-2.285,0.855-4.277,1.196-5.918c0.324-1.641,0.656-2.93,0.849-3.809C185.214,259.805,185.339,259.336,185.339,259.336z"/>
</g>
<path fill="none" stroke="#081C24" stroke-width="23" stroke-miterlimit="10" d="M77.332,182.007
	c21.607-36.894,61.663-61.671,107.507-61.671c46.082,0,86.316,25.037,107.844,62.249"/>
<path fill="none" stroke="#081C24" stroke-width="23" stroke-miterlimit="10" d="M116.255,203.965
	c13.797-23.557,39.373-39.378,68.645-39.378c29.424,0,55.114,15.986,68.859,39.747"/>
<path fill="none" stroke="#081C24" stroke-width="23" stroke-miterlimit="10" d="M152.461,227.693
	c6.531-11.151,18.639-18.641,32.495-18.641c13.93,0,26.09,7.567,32.598,18.815"/>
</svg>
